<svg width="522" height="2040" viewBox="0 0 522 2040" fill="none" xmlns="http://www.w3.org/2000/svg">
<g opacity="0.5">
<mask id="path-1-inside-1_1017_11688" fill="white">
<path d="M176.156 1.63032C208.91 -6.40992 209.968 16.8615 223.625 37.0187C295.398 142.929 324.462 381.192 427.062 461.679C400.629 512.1 362.207 482.544 318.563 489.99L467.75 659.854C468.916 725.889 376.976 667.172 372.813 702.32L379.594 766.019C345.565 754.327 333.834 674.066 291.438 730.631C350.489 836.98 586.395 932.429 332.125 928.805C534.817 990.551 363.197 940.979 454.188 1098.67L420.281 1105.75L379.594 1049.13C288.155 1150.12 521.837 1143.78 522 1169.45L359.25 1211.91C437.845 1266.18 482.411 1358.8 522 1452.55H332.125L467.75 1480.86L386.375 1523.33C419.359 1524.19 495.987 1645.72 481.312 1664.88H210.063L189.719 2040C107.72 1809.48 308.92 1600.25 -54.406 1657.81C-108.941 1638.82 13.081 1573.02 -6.93726 1523.33C-21.1101 1488.17 -72.9188 1508.57 -81.531 1502.1C-106.635 1483.24 -73.3392 1454.58 -74.7497 1452.55C-87.4578 1434.43 -128.769 1421.68 -129 1410.09C-129.298 1395.01 106.784 1220.07 26.969 1190.68C-245.895 1192.31 -77.6792 1146.02 -61.1872 1084.51C-59.3292 1077.56 -111.219 976.608 -88.3122 942.961C-57.7966 898.145 37.7511 1002.82 60.8752 928.805L-88.3122 914.65C-113.077 868.164 4.50948 877.945 6.62523 829.718C6.82866 824.948 -21.0558 805.711 -20.4998 801.407C-7.64252 702.476 42.8506 729.951 -61.1872 659.854C-61.1737 632.973 105.008 600.925 88.0002 518.3C86.549 511.223 -21.5305 492.495 -20.4998 447.524C-19.6046 408.441 230.745 392.658 20.1877 376.747L176.156 1.63032ZM189.719 129.028L196.5 150.261L203.281 157.339L210.063 136.106L189.719 129.028ZM149.031 185.65C140.609 186.414 116.644 219.41 135.469 228.116C164.438 241.507 174.882 183.286 149.031 185.65ZM230.406 185.65C209.846 189.925 238.666 230.777 243.969 228.116C257.125 221.534 257.843 179.945 230.406 185.65ZM189.719 256.427C163.136 261.027 171.342 304.427 203.281 298.893C229.864 294.292 221.659 250.892 189.719 256.427ZM135.469 313.048C126.518 314.265 103.258 346.893 121.906 355.514C144.651 366.031 177.282 307.386 135.469 313.048ZM230.406 327.203C243.399 382.239 285.348 454.729 345.688 419.213L230.406 327.203ZM189.719 369.669C155.243 362.917 154.416 459.315 203.281 426.291C221.32 414.103 204.787 372.614 189.719 369.669ZM121.906 454.601C112.955 455.819 89.6955 488.447 108.344 497.067C131.088 507.585 163.72 448.939 121.906 454.601ZM230.406 468.757C201.233 474.617 216.139 519.15 243.969 511.223C266.889 504.697 280.357 458.735 230.406 468.757ZM176.156 511.223C149.981 514.818 149.981 578.404 176.156 581.999C208.517 586.43 208.517 506.792 176.156 511.223ZM284.656 511.223C241.27 512.78 259.634 594.853 298.219 581.999C329.06 571.723 326.334 509.736 284.656 511.223ZM121.906 581.999C96.0563 579.635 106.499 637.856 135.469 624.466C154.294 615.76 130.329 582.764 121.906 581.999ZM230.406 581.999C204.366 581.674 181.364 656.216 243.969 638.621C281.415 628.103 239.059 582.113 230.406 581.999ZM338.906 596.155C308.96 617.246 354.232 654.192 379.594 652.776C400.195 628.203 349.01 589.035 338.906 596.155ZM176.156 652.776C163.082 653.413 143.525 698.356 162.594 709.398C191.916 726.37 207.716 651.247 176.156 652.776ZM271.094 666.932C227.518 697.833 315.24 697.493 305 674.009C300.945 664.695 275.827 663.577 271.094 666.932ZM108.344 723.553C81.4088 728.253 95.0256 785.129 121.906 780.174C142.101 776.451 163.991 713.857 108.344 723.553ZM203.281 737.708C183.846 746.654 209.941 780.401 216.844 780.174C240.022 779.424 248.187 717.027 203.281 737.708ZM162.594 780.174C149.75 781.845 139.917 839.726 162.594 836.796C180.713 834.446 199.959 775.333 162.594 780.174ZM257.531 780.174C230.596 784.874 244.213 841.75 271.094 836.796C291.288 833.073 313.178 770.478 257.531 780.174ZM54.094 794.33C43.9357 798.109 21.6254 828.104 40.5315 836.796C64.076 847.61 114.501 771.865 54.094 794.33ZM94.7814 850.951C93.3574 851.163 73.8545 870.811 74.4377 872.184C90.3601 909.71 145.709 843.435 94.7814 850.951ZM189.719 850.951C160.614 873.033 212.951 894.153 223.625 872.184C233.417 852.013 199.62 843.435 189.719 850.951ZM311.781 850.951C289.715 854.929 292.061 890.996 311.781 893.417C358.016 899.093 374.494 839.655 311.781 850.951ZM135.469 907.572C116.034 916.519 142.128 950.265 149.031 950.038C172.21 949.288 180.374 886.891 135.469 907.572ZM243.969 907.572C206.536 917.453 246.668 970.04 271.094 964.194C304.715 956.154 292.319 894.804 243.969 907.572ZM81.2189 964.194C60.7396 967.237 30.0341 1026.96 67.6564 1034.97C101.658 1042.2 132.906 956.507 81.2189 964.194ZM189.719 964.194C146.672 978.632 184.619 1048.91 203.281 1049.13C248.2 1049.65 233.838 949.387 189.719 964.194ZM-27.281 978.349C-35.7033 979.114 -59.6682 1012.11 -40.8435 1020.82C-11.874 1034.21 -1.43089 975.985 -27.281 978.349ZM298.219 978.349C270.823 997.091 319.539 1050.13 325.344 1049.13C367.618 1041.82 336.465 952.176 298.219 978.349ZM121.906 1049.13C103.868 1061.31 120.401 1102.8 135.469 1105.75C169.945 1112.5 170.772 1016.1 121.906 1049.13ZM257.531 1049.13C241.324 1052.85 232.644 1116.48 271.094 1105.75C303.617 1096.67 290.081 1041.65 257.531 1049.13ZM67.6564 1105.75C38.3615 1109.19 14.9255 1169.67 94.7814 1148.21C113.294 1127.82 87.1458 1103.45 67.6564 1105.75ZM203.281 1105.75C182.449 1110.06 161.645 1171.98 216.844 1162.37C255.714 1155.6 210.171 1104.32 203.281 1105.75ZM311.781 1119.9C308.838 1120.28 284.806 1140.89 298.219 1148.21C344.494 1173.45 358.925 1113.73 311.781 1119.9ZM135.469 1176.52C133.529 1176.37 114.65 1189.31 121.906 1204.83C136.907 1236.92 181.554 1180.26 135.469 1176.52ZM257.531 1176.52C225.768 1183.9 237.771 1240.87 271.094 1233.15C302.857 1225.77 290.854 1168.8 257.531 1176.52ZM189.719 1233.15C156.016 1241.78 167.395 1313.11 203.281 1303.92C236.984 1295.29 225.605 1223.96 189.719 1233.15ZM325.344 1233.15C239.927 1233.02 366.235 1398.55 420.281 1388.85C424.133 1361.63 334.187 1233.16 325.344 1233.15ZM81.2189 1247.3C76.9874 1247.5 54.433 1272.13 60.8752 1282.69C85.2334 1322.62 131.78 1245.01 81.2189 1247.3ZM121.906 1303.92C82.9414 1316.78 103.068 1392.14 149.031 1374.7C180.646 1362.71 152.937 1293.69 121.906 1303.92ZM13.4065 1318.08C-3.62802 1324.28 -17.9093 1363.98 -0.156021 1374.7C25.1245 1389.96 79.4151 1294.06 13.4065 1318.08ZM243.969 1318.08C206.686 1321.29 247.346 1375.86 257.531 1374.7C283.083 1371.77 285.145 1314.54 243.969 1318.08ZM189.719 1388.85L203.281 1403.01C230.054 1405.25 230.054 1386.62 203.281 1388.85H189.719ZM13.4065 1431.32C-11.9418 1437.83 -10.7212 1482.6 13.4065 1487.94C57.6338 1497.74 94.6729 1410.47 13.4065 1431.32ZM135.469 1431.32C112.548 1437.85 99.0807 1483.81 149.031 1473.79C178.204 1467.93 163.299 1423.39 135.469 1431.32ZM230.406 1445.48C209.941 1465.36 245.461 1496.05 257.531 1487.94C277.97 1474.21 264.123 1432.24 230.406 1445.48ZM81.2189 1502.1C64.3201 1507.82 49.9574 1548.03 67.6564 1558.72C96.5853 1576.17 133.828 1484.3 81.2189 1502.1ZM189.719 1502.1C163.136 1506.7 171.342 1550.1 203.281 1544.56C229.864 1539.96 221.659 1496.56 189.719 1502.1ZM311.781 1502.1C309.801 1502.03 289.973 1521.08 277.875 1523.33C291.343 1584.58 333.875 1617.35 393.156 1629.49C427.971 1610.14 319.444 1502.35 311.781 1502.1ZM135.469 1558.72C97.9686 1568.5 99.2164 1655.98 149.031 1629.49C161.482 1622.87 176.672 1547.97 135.469 1558.72ZM26.969 1572.87C24.5684 1572.38 -11.4265 1604.91 -0.156021 1615.34C55.1383 1633.1 58.1085 1579.27 26.969 1572.87ZM243.969 1572.87C212.056 1580.08 216.532 1632.91 271.094 1615.34C275.949 1601 263.621 1568.43 243.969 1572.87Z"/>
</mask>
<path d="M176.156 1.63032C208.91 -6.40992 209.968 16.8615 223.625 37.0187C295.398 142.929 324.462 381.192 427.062 461.679C400.629 512.1 362.207 482.544 318.563 489.99L467.75 659.854C468.916 725.889 376.976 667.172 372.813 702.32L379.594 766.019C345.565 754.327 333.834 674.066 291.438 730.631C350.489 836.98 586.395 932.429 332.125 928.805C534.817 990.551 363.197 940.979 454.188 1098.67L420.281 1105.75L379.594 1049.13C288.155 1150.12 521.837 1143.78 522 1169.45L359.25 1211.91C437.845 1266.18 482.411 1358.8 522 1452.55H332.125L467.75 1480.86L386.375 1523.33C419.359 1524.19 495.987 1645.72 481.312 1664.88H210.063L189.719 2040C107.72 1809.48 308.92 1600.25 -54.406 1657.81C-108.941 1638.82 13.081 1573.02 -6.93726 1523.33C-21.1101 1488.17 -72.9188 1508.57 -81.531 1502.1C-106.635 1483.24 -73.3392 1454.58 -74.7497 1452.55C-87.4578 1434.43 -128.769 1421.68 -129 1410.09C-129.298 1395.01 106.784 1220.07 26.969 1190.68C-245.895 1192.31 -77.6792 1146.02 -61.1872 1084.51C-59.3292 1077.56 -111.219 976.608 -88.3122 942.961C-57.7966 898.145 37.7511 1002.82 60.8752 928.805L-88.3122 914.65C-113.077 868.164 4.50948 877.945 6.62523 829.718C6.82866 824.948 -21.0558 805.711 -20.4998 801.407C-7.64252 702.476 42.8506 729.951 -61.1872 659.854C-61.1737 632.973 105.008 600.925 88.0002 518.3C86.549 511.223 -21.5305 492.495 -20.4998 447.524C-19.6046 408.441 230.745 392.658 20.1877 376.747L176.156 1.63032ZM189.719 129.028L196.5 150.261L203.281 157.339L210.063 136.106L189.719 129.028ZM149.031 185.65C140.609 186.414 116.644 219.41 135.469 228.116C164.438 241.507 174.882 183.286 149.031 185.65ZM230.406 185.65C209.846 189.925 238.666 230.777 243.969 228.116C257.125 221.534 257.843 179.945 230.406 185.65ZM189.719 256.427C163.136 261.027 171.342 304.427 203.281 298.893C229.864 294.292 221.659 250.892 189.719 256.427ZM135.469 313.048C126.518 314.265 103.258 346.893 121.906 355.514C144.651 366.031 177.282 307.386 135.469 313.048ZM230.406 327.203C243.399 382.239 285.348 454.729 345.688 419.213L230.406 327.203ZM189.719 369.669C155.243 362.917 154.416 459.315 203.281 426.291C221.32 414.103 204.787 372.614 189.719 369.669ZM121.906 454.601C112.955 455.819 89.6955 488.447 108.344 497.067C131.088 507.585 163.72 448.939 121.906 454.601ZM230.406 468.757C201.233 474.617 216.139 519.15 243.969 511.223C266.889 504.697 280.357 458.735 230.406 468.757ZM176.156 511.223C149.981 514.818 149.981 578.404 176.156 581.999C208.517 586.43 208.517 506.792 176.156 511.223ZM284.656 511.223C241.27 512.78 259.634 594.853 298.219 581.999C329.06 571.723 326.334 509.736 284.656 511.223ZM121.906 581.999C96.0563 579.635 106.499 637.856 135.469 624.466C154.294 615.76 130.329 582.764 121.906 581.999ZM230.406 581.999C204.366 581.674 181.364 656.216 243.969 638.621C281.415 628.103 239.059 582.113 230.406 581.999ZM338.906 596.155C308.96 617.246 354.232 654.192 379.594 652.776C400.195 628.203 349.01 589.035 338.906 596.155ZM176.156 652.776C163.082 653.413 143.525 698.356 162.594 709.398C191.916 726.37 207.716 651.247 176.156 652.776ZM271.094 666.932C227.518 697.833 315.24 697.493 305 674.009C300.945 664.695 275.827 663.577 271.094 666.932ZM108.344 723.553C81.4088 728.253 95.0256 785.129 121.906 780.174C142.101 776.451 163.991 713.857 108.344 723.553ZM203.281 737.708C183.846 746.654 209.941 780.401 216.844 780.174C240.022 779.424 248.187 717.027 203.281 737.708ZM162.594 780.174C149.75 781.845 139.917 839.726 162.594 836.796C180.713 834.446 199.959 775.333 162.594 780.174ZM257.531 780.174C230.596 784.874 244.213 841.75 271.094 836.796C291.288 833.073 313.178 770.478 257.531 780.174ZM54.094 794.33C43.9357 798.109 21.6254 828.104 40.5315 836.796C64.076 847.61 114.501 771.865 54.094 794.33ZM94.7814 850.951C93.3574 851.163 73.8545 870.811 74.4377 872.184C90.3601 909.71 145.709 843.435 94.7814 850.951ZM189.719 850.951C160.614 873.033 212.951 894.153 223.625 872.184C233.417 852.013 199.62 843.435 189.719 850.951ZM311.781 850.951C289.715 854.929 292.061 890.996 311.781 893.417C358.016 899.093 374.494 839.655 311.781 850.951ZM135.469 907.572C116.034 916.519 142.128 950.265 149.031 950.038C172.21 949.288 180.374 886.891 135.469 907.572ZM243.969 907.572C206.536 917.453 246.668 970.04 271.094 964.194C304.715 956.154 292.319 894.804 243.969 907.572ZM81.2189 964.194C60.7396 967.237 30.0341 1026.96 67.6564 1034.97C101.658 1042.2 132.906 956.507 81.2189 964.194ZM189.719 964.194C146.672 978.632 184.619 1048.91 203.281 1049.13C248.2 1049.65 233.838 949.387 189.719 964.194ZM-27.281 978.349C-35.7033 979.114 -59.6682 1012.11 -40.8435 1020.82C-11.874 1034.21 -1.43089 975.985 -27.281 978.349ZM298.219 978.349C270.823 997.091 319.539 1050.13 325.344 1049.13C367.618 1041.82 336.465 952.176 298.219 978.349ZM121.906 1049.13C103.868 1061.31 120.401 1102.8 135.469 1105.75C169.945 1112.5 170.772 1016.1 121.906 1049.13ZM257.531 1049.13C241.324 1052.85 232.644 1116.48 271.094 1105.75C303.617 1096.67 290.081 1041.65 257.531 1049.13ZM67.6564 1105.75C38.3615 1109.19 14.9255 1169.67 94.7814 1148.21C113.294 1127.82 87.1458 1103.45 67.6564 1105.75ZM203.281 1105.75C182.449 1110.06 161.645 1171.98 216.844 1162.37C255.714 1155.6 210.171 1104.32 203.281 1105.75ZM311.781 1119.9C308.838 1120.28 284.806 1140.89 298.219 1148.21C344.494 1173.45 358.925 1113.73 311.781 1119.9ZM135.469 1176.52C133.529 1176.37 114.65 1189.31 121.906 1204.83C136.907 1236.92 181.554 1180.26 135.469 1176.52ZM257.531 1176.52C225.768 1183.9 237.771 1240.87 271.094 1233.15C302.857 1225.77 290.854 1168.8 257.531 1176.52ZM189.719 1233.15C156.016 1241.78 167.395 1313.11 203.281 1303.92C236.984 1295.29 225.605 1223.96 189.719 1233.15ZM325.344 1233.15C239.927 1233.02 366.235 1398.55 420.281 1388.85C424.133 1361.63 334.187 1233.16 325.344 1233.15ZM81.2189 1247.3C76.9874 1247.5 54.433 1272.13 60.8752 1282.69C85.2334 1322.62 131.78 1245.01 81.2189 1247.3ZM121.906 1303.92C82.9414 1316.78 103.068 1392.14 149.031 1374.7C180.646 1362.71 152.937 1293.69 121.906 1303.92ZM13.4065 1318.08C-3.62802 1324.28 -17.9093 1363.98 -0.156021 1374.7C25.1245 1389.96 79.4151 1294.06 13.4065 1318.08ZM243.969 1318.08C206.686 1321.29 247.346 1375.86 257.531 1374.7C283.083 1371.77 285.145 1314.54 243.969 1318.08ZM189.719 1388.85L203.281 1403.01C230.054 1405.25 230.054 1386.62 203.281 1388.85H189.719ZM13.4065 1431.32C-11.9418 1437.83 -10.7212 1482.6 13.4065 1487.94C57.6338 1497.74 94.6729 1410.47 13.4065 1431.32ZM135.469 1431.32C112.548 1437.85 99.0807 1483.81 149.031 1473.79C178.204 1467.93 163.299 1423.39 135.469 1431.32ZM230.406 1445.48C209.941 1465.36 245.461 1496.05 257.531 1487.94C277.97 1474.21 264.123 1432.24 230.406 1445.48ZM81.2189 1502.1C64.3201 1507.82 49.9574 1548.03 67.6564 1558.72C96.5853 1576.17 133.828 1484.3 81.2189 1502.1ZM189.719 1502.1C163.136 1506.7 171.342 1550.1 203.281 1544.56C229.864 1539.96 221.659 1496.56 189.719 1502.1ZM311.781 1502.1C309.801 1502.03 289.973 1521.08 277.875 1523.33C291.343 1584.58 333.875 1617.35 393.156 1629.49C427.971 1610.14 319.444 1502.35 311.781 1502.1ZM135.469 1558.72C97.9686 1568.5 99.2164 1655.98 149.031 1629.49C161.482 1622.87 176.672 1547.97 135.469 1558.72ZM26.969 1572.87C24.5684 1572.38 -11.4265 1604.91 -0.156021 1615.34C55.1383 1633.1 58.1085 1579.27 26.969 1572.87ZM243.969 1572.87C212.056 1580.08 216.532 1632.91 271.094 1615.34C275.949 1601 263.621 1568.43 243.969 1572.87Z" fill="#F2F7F2" stroke="#E0ECDF" stroke-width="2" mask="url(#path-1-inside-1_1017_11688)"/>
</g>
</svg>
