<svg width="381" height="1320" viewBox="0 0 381 1320" fill="none" xmlns="http://www.w3.org/2000/svg">
<g opacity="0.5" filter="url(#filter0_d_1017_11689)">
<path d="M327.255 0C391.132 85.3777 544.428 310.651 389.151 314.043C419.604 392.623 577.481 353.5 485.434 411.745C539.105 400.593 558.031 446.164 581.717 495.489C585.238 502.831 551.498 501.812 554.208 509.447C560.535 527.243 609.653 537.753 609.226 551.319C608.786 565.053 445.862 602.292 609.226 676.936L554.208 746.723C713.185 746.807 604.866 910.263 678 970.043C671.838 1018.89 398.683 968.34 368.519 1004.94C337.323 1042.77 392.59 1257.12 341.01 1312C302.373 1311.94 330.955 1038.39 306.623 1011.91C270.145 972.22 -0.0519161 1061.32 17.7742 984C24.3077 955.666 100.454 968.256 100.302 942.128C100.137 911.714 11.7221 932.553 4.01948 900.255C3.0704 896.305 37.0858 851.837 45.2836 830.468C51.8721 813.3 23.95 804.437 31.5289 788.596C45.4899 759.439 145.212 791.513 169.076 718.809C-86.8579 683.161 106.341 685.478 169.076 593.192C41.8174 587.204 131.457 543.768 127.812 523.404C126.409 515.546 85.8325 486.78 86.5477 481.532C91.4444 445.675 245.456 476.828 230.972 404.766L114.057 397.787C164.124 369.188 170.947 296.121 196.585 258.213C211.991 235.434 276.706 228.581 279.114 202.383C279.402 199.27 234.906 195.767 251.604 146.553C264.272 109.175 316.375 46.7854 327.255 0ZM341.01 83.7447C329.167 92.0354 330.542 118.917 341.01 125.617C359.138 137.216 358.011 71.8529 341.01 83.7447ZM341.01 167.489L306.623 202.383L382.274 237.277C426.605 204.56 361.463 185.927 341.01 167.489ZM313.5 251.234C267.037 268.611 322.95 361.358 354.764 362.894L320.378 286.128L375.396 258.213C363.169 248.917 324.408 247.158 313.5 251.234ZM244.727 307.064C242.306 307.301 210.67 339.515 210.34 341.957C198.36 432.304 342.179 297.74 244.727 307.064ZM299.746 390.809C245.071 401.416 307.888 462.899 361.642 425.702C337.213 421.92 319.979 386.886 299.746 390.809ZM258.482 446.638C258.248 496.815 154.523 502.859 155.321 523.404C157.756 586.478 299.594 484.756 258.482 446.638ZM354.764 446.638L320.378 509.447L423.538 530.383L354.764 446.638ZM478.557 460.596C428.875 460.037 453.111 556.107 492.311 544.34C535.928 531.248 497.676 460.819 478.557 460.596ZM258.482 558.298L162.199 669.957C208.923 685.045 307.476 608.838 258.482 558.298ZM327.255 572.255L313.5 669.957L430.415 662.979L327.255 572.255ZM451.047 572.255C420.127 591.628 483.357 659.699 506.066 656C519.45 649.789 479.451 554.46 451.047 572.255ZM244.727 697.872L189.708 781.617C219.762 802.442 293.391 691.578 244.727 697.872ZM368.519 697.872C289.595 694.523 365.135 778.63 409.783 781.617C460.057 781.436 375.314 698.165 368.519 697.872ZM464.802 711.83C421.103 742.285 523.108 792.532 526.698 746.723C529.339 713.1 479.011 701.92 464.802 711.83ZM354.764 795.574C311.63 801.939 332.207 911.812 409.783 879.319C428.503 858.104 359.675 794.849 354.764 795.574ZM574.84 795.574C539.036 795.756 577.783 879.947 602.349 865.362C628.744 849.688 584.592 795.533 574.84 795.574ZM120.934 809.532C92.5998 819.553 68.0476 879.905 107.18 893.277C157.632 910.5 249.844 763.919 120.934 809.532ZM258.482 809.532C254.96 810.704 214.398 871.336 230.972 879.319C279.471 883.116 321.341 788.512 258.482 809.532ZM451.047 809.532C430.814 835.604 467.36 853.442 485.434 858.383C575.376 882.99 528.83 788.763 451.047 809.532ZM175.953 907.234C150.975 908.56 110.288 970.88 148.444 977.021C190.066 983.721 235.786 904.052 175.953 907.234ZM285.991 907.234C282.552 907.039 235.979 950.307 244.727 963.064C329.016 991.942 329.098 909.663 285.991 907.234ZM451.047 907.234C422.96 923.397 491.775 987.434 512.944 956.085C531.389 928.784 479.245 891.016 451.047 907.234ZM561.085 907.234C529.656 921.261 594.069 972.681 609.226 942.128C610.561 939.448 574.111 901.414 561.085 907.234ZM368.519 921.192C339.002 942.965 392.081 963.79 402.906 942.128C412.837 922.238 378.56 913.78 368.519 921.192Z" fill="#F2F7F2"/>
<path d="M327.492 1.15527C359.509 44.0176 413.227 121.051 439.921 187.951C453.365 221.644 459.907 252.654 453.489 275.413C450.287 286.769 443.857 296.073 433.426 302.653C422.983 309.24 408.494 313.12 389.141 313.543L388.428 313.559L388.685 314.224C396.361 334.032 412.063 346.398 429.774 354.722C447.477 363.041 467.246 367.349 483.117 371.007C491.066 372.839 498.02 374.505 503.277 376.425C505.905 377.385 508.085 378.4 509.744 379.518C511.405 380.636 512.509 381.834 513.041 383.146C514.086 385.721 513.026 389.063 508.611 393.702C504.223 398.313 496.666 404.046 485.167 411.322L485.536 412.234C498.879 409.462 510.029 410.22 519.621 413.659C529.215 417.099 537.286 423.234 544.446 431.271C556.996 445.356 566.695 465.217 576.868 486.507L581.267 495.706C581.452 496.094 581.501 496.422 581.463 496.706C581.425 496.991 581.294 497.274 581.053 497.562C580.554 498.154 579.631 498.709 578.337 499.229C575.761 500.266 572.009 501.057 568.163 501.869C564.351 502.674 560.448 503.501 557.672 504.613C556.288 505.168 555.121 505.817 554.388 506.618C554.015 507.025 553.743 507.484 553.622 507.998C553.515 508.451 553.532 508.922 553.67 509.406L553.736 509.614C555.375 514.224 559.751 518.294 565.254 522.004C570.773 525.725 577.523 529.145 584.025 532.416C590.545 535.696 596.807 538.821 601.417 541.969C603.721 543.542 605.586 545.103 606.856 546.67C608.126 548.235 608.775 549.768 608.727 551.303C608.706 551.935 608.196 552.761 607.027 553.799C605.886 554.812 604.225 555.934 602.145 557.168C597.983 559.636 592.243 562.499 585.839 565.8C573.064 572.384 557.693 580.691 547.446 590.933C542.319 596.058 538.443 601.698 536.835 607.883C535.223 614.083 535.904 620.784 539.806 627.987C547.545 642.278 567.974 658.57 608.44 677.125L553.815 746.414L553.177 747.223L554.207 747.224C593.871 747.245 616.735 757.454 629.947 773.562C643.18 789.697 646.828 811.858 647.795 836.017C648.278 848.091 648.092 860.626 648.11 873.136C648.129 885.636 648.353 898.102 649.663 909.996C652.272 933.688 659.198 955.19 677.464 970.247C676.619 975.951 671.917 980.314 663.979 983.604C655.929 986.94 644.694 989.11 631.236 990.46C604.327 993.158 568.694 992.564 532.273 991.585C495.87 990.606 458.682 989.244 428.715 990.415C413.731 991.001 400.529 992.22 390.12 994.444C380.065 996.593 372.506 999.701 368.509 1004.18L368.134 1004.62C364.148 1009.45 361.582 1017.05 360.003 1026.66C358.421 1036.29 357.819 1048.01 357.813 1061.16C357.802 1087.45 360.175 1119.53 361.909 1152.1C363.644 1184.69 364.74 1217.78 362.184 1246.14C359.635 1274.42 353.464 1297.88 340.796 1311.49C338.633 1311.43 336.674 1310.44 334.886 1308.57C333.029 1306.62 331.372 1303.73 329.902 1299.99C326.963 1292.52 324.821 1281.77 323.255 1268.75C320.125 1242.72 319.315 1207.72 318.952 1171.86C318.589 1136.02 318.674 1099.32 317.327 1069.94C316.654 1055.25 315.622 1042.37 313.995 1032.33C313.182 1027.31 312.217 1022.98 311.069 1019.49C309.996 1016.23 308.75 1013.65 307.287 1011.91L306.991 1011.58C302.308 1006.48 293.944 1003.51 283.076 1002C272.185 1000.48 258.671 1000.4 243.568 1001.18C213.367 1002.75 176.699 1007.75 141.78 1011.57C106.83 1015.4 73.6472 1018.04 50.3232 1014.91C38.6543 1013.34 29.5415 1010.34 23.9014 1005.4C21.0906 1002.93 19.1412 999.988 18.1611 996.485C17.2413 993.198 17.1677 989.393 18.0684 984.999L18.2617 984.112C19.8387 977.273 25.6249 972.836 33.6318 969.643C41.6321 966.452 51.706 964.561 61.6357 962.729C71.5336 960.902 81.3005 959.132 88.5781 956.172C95.6218 953.307 100.527 949.241 100.791 942.76L100.803 942.125C100.781 938.185 99.3238 935.058 96.7842 932.564C94.2593 930.085 90.6815 928.248 86.4307 926.822C77.9367 923.974 66.5674 922.714 55.0439 921.401C43.4866 920.085 31.7621 918.715 22.4453 915.671C13.2669 912.672 6.58083 908.099 4.59668 900.503L4.50586 900.14V900.139L4.5 900.053C4.50117 900.007 4.50683 899.944 4.52246 899.858C4.55244 899.695 4.61216 899.485 4.70605 899.227C4.89401 898.709 5.20353 898.04 5.62695 897.23C6.4726 895.613 7.74673 893.483 9.33691 890.956C12.5168 885.904 16.93 879.316 21.6387 872.169C30.7439 858.349 40.9666 842.423 45.3447 831.671L45.75 830.647C47.4532 826.21 46.921 822.297 45.3037 818.705C43.6986 815.141 41.016 811.877 38.4209 808.718C35.8044 805.533 33.281 802.458 31.8652 799.208C30.5083 796.092 30.1778 792.831 31.8154 789.167L31.9795 788.812C33.6626 785.296 36.6487 782.678 40.6924 780.655C44.7415 778.63 49.8234 777.218 55.6484 776.106C61.4709 774.996 68.0048 774.191 74.9512 773.368C81.8919 772.546 89.2404 771.707 96.667 770.526C126.362 765.806 157.525 755.603 169.551 718.965L169.737 718.396L169.145 718.313C105.143 709.399 69.2915 702.866 52.4551 696.651C48.2496 695.099 45.2692 693.58 43.3398 692.072C41.4115 690.566 40.5956 689.122 40.5635 687.719C40.5312 686.298 41.2955 684.762 42.8916 683.062C44.4819 681.37 46.8378 679.58 49.8438 677.661C55.855 673.825 64.3555 669.542 74.25 664.54C84.1338 659.543 95.3883 653.839 106.87 647.172C129.828 633.842 153.742 616.637 169.489 593.473L169.991 592.734L169.1 592.692C137.287 591.196 119.133 587.358 109.694 582.187C104.99 579.609 102.507 576.729 101.533 573.695C100.558 570.657 101.063 567.362 102.549 563.886C104.035 560.407 106.481 556.797 109.31 553.163C112.139 549.528 115.323 545.906 118.284 542.379C121.235 538.864 123.966 535.446 125.843 532.258C127.653 529.183 128.723 526.235 128.345 523.573L128.304 523.316C128.104 522.197 127.24 520.801 125.997 519.251C124.736 517.679 123.021 515.874 121.021 513.927C117.018 510.031 111.824 505.523 106.712 501.11C101.593 496.692 96.5557 492.369 92.8418 488.822C90.9837 487.048 89.4709 485.481 88.4482 484.203C87.9364 483.564 87.5591 483.011 87.3223 482.552C87.1081 482.136 87.0367 481.85 87.0381 481.67L87.043 481.6C87.6268 477.324 90.4306 474.002 95.0059 471.326C99.5887 468.646 105.888 466.653 113.323 465.032C128.208 461.788 147.4 460.079 166.104 457.221C184.754 454.37 202.894 450.377 215.469 442.544C221.766 438.621 226.693 433.72 229.579 427.494C232.467 421.265 233.289 413.758 231.462 404.667L231.387 404.29L231.002 404.267L115.73 397.386C140.032 382.86 153.979 357.776 164.942 331.685C170.526 318.395 175.364 304.774 180.379 292.177C185.247 279.949 190.296 268.651 196.405 259.384L196.999 258.493H197C200.777 252.909 207.613 248.257 215.87 244.009C224.12 239.765 233.7 235.965 242.92 232.04C252.12 228.123 260.962 224.081 267.657 219.364C274.138 214.798 278.697 209.537 279.541 203.06L279.611 202.429C279.635 202.171 279.536 201.952 279.411 201.787C279.29 201.627 279.125 201.49 278.95 201.371C278.601 201.133 278.106 200.895 277.524 200.648C276.367 200.158 274.677 199.558 272.773 198.803C268.92 197.274 263.964 195.029 259.523 191.37C255.09 187.717 251.172 182.656 249.384 175.48C247.65 168.524 247.906 159.535 251.699 147.853L252.077 146.714H252.078C255.229 137.418 260.839 126.546 267.672 114.715C274.504 102.886 282.537 90.1325 290.526 77.0654C306.252 51.346 321.813 24.4052 327.492 1.15527ZM203.196 917.514C199.702 910.563 191.508 906.212 177.318 906.675L175.927 906.734C169.508 907.075 162.173 911.314 155.415 917.464C148.64 923.629 142.369 931.783 138.079 940.093C133.797 948.387 131.451 956.913 132.64 963.798C133.236 967.254 134.725 970.302 137.308 972.682C139.726 974.91 143.073 976.523 147.471 977.358L148.364 977.515C158.94 979.217 169.732 975.429 179.003 968.905C188.276 962.38 196.079 953.084 200.693 943.667C205.297 934.272 206.778 924.638 203.196 917.514ZM286.018 906.735C285.796 906.723 285.562 906.795 285.357 906.878C285.138 906.967 284.887 907.096 284.612 907.257C284.061 907.58 283.371 908.054 282.571 908.653C280.97 909.855 278.891 911.59 276.528 913.709C271.802 917.949 265.918 923.751 260.415 929.96C254.916 936.164 249.778 942.796 246.562 948.691C244.954 951.638 243.812 954.427 243.355 956.903C242.899 959.38 243.119 961.603 244.314 963.347L244.408 963.483L244.564 963.537C265.698 970.778 281.626 971.076 292.952 967.34C304.294 963.598 310.98 955.821 313.611 947.032C318.855 929.517 307.952 907.97 286.019 906.734L286.018 906.735ZM475.305 903.695C466.928 902.046 458.523 902.629 451.476 906.424L450.798 906.801C447.176 908.885 445.087 911.764 444.288 915.145C443.493 918.507 443.986 922.315 445.423 926.265C448.294 934.159 454.99 942.766 463.198 949.854C471.407 956.944 481.191 962.569 490.291 964.439C499.411 966.314 507.919 964.421 513.358 956.365L513.357 956.364C518.074 949.383 518.269 941.728 515.485 934.475C512.708 927.238 506.968 920.394 499.789 914.941C492.607 909.486 483.952 905.398 475.305 903.695ZM567.055 906.464C564.9 905.994 562.908 905.989 561.216 906.639L560.881 906.777C556.871 908.567 554.332 910.981 553.053 913.808C551.774 916.633 551.784 919.801 552.736 923.041C554.634 929.5 560.305 936.369 567.381 941.795C574.464 947.226 583.041 951.28 590.842 952.035C594.747 952.413 598.479 951.966 601.73 950.428C604.989 948.886 607.733 946.263 609.675 942.35L609.674 942.349C609.788 942.118 609.771 941.868 609.732 941.677C609.691 941.473 609.609 941.25 609.502 941.02C609.287 940.557 608.939 939.987 608.485 939.335C607.575 938.027 606.195 936.326 604.473 934.394C601.025 930.525 596.17 925.686 590.867 921.114C585.567 916.545 579.8 912.227 574.525 909.413C571.889 908.006 569.356 906.965 567.055 906.464ZM379.531 918.039C375.157 917.979 371.12 918.788 368.474 920.609L368.223 920.789C360.765 926.29 358.375 931.85 359.428 936.799C360.469 941.695 364.84 945.76 370.368 948.399C375.913 951.047 382.737 952.319 388.877 951.553C394.829 950.81 400.202 948.137 403.082 942.869L403.354 942.352V942.351C405.902 937.246 405.634 932.811 403.569 929.177C401.522 925.573 397.746 922.823 393.398 920.962C389.044 919.098 384.064 918.101 379.531 918.039ZM180.579 805.408C176.101 801.772 169.185 799.848 159.403 800.241C149.923 800.623 137.698 803.183 122.271 808.534L120.768 809.061C113.565 811.608 106.646 817.335 100.935 824.657C95.2197 831.985 90.6855 840.946 88.2734 850.02C85.8625 859.089 85.5621 868.309 88.3652 876.129C91.0883 883.725 96.7274 889.958 106.1 893.423L107.019 893.75C119.88 898.14 135.287 892.073 149.047 881.439C162.833 870.786 175.113 855.439 181.771 840.967C185.1 833.731 187.04 826.682 187.035 820.525C187.031 814.358 185.072 809.056 180.579 805.408ZM354.691 795.08C343.652 796.709 336.732 804.968 333.772 815.782C330.816 826.588 331.783 840.014 336.541 852.2C341.3 864.39 349.873 875.39 362.177 881.288C374.493 887.192 390.477 887.948 409.977 879.78L410.082 879.736L410.158 879.65C415.048 874.109 414.142 865.912 410.232 856.981C406.307 848.014 399.27 838.098 391.518 828.896C383.761 819.69 375.265 811.171 368.399 804.998C364.967 801.912 361.936 799.406 359.603 797.691C358.437 796.835 357.436 796.169 356.641 795.726C356.244 795.504 355.886 795.332 355.577 795.221C355.322 795.128 355.05 795.058 354.798 795.069L354.691 795.08ZM287.93 811.812C283.701 805.857 274.66 803.913 259.781 808.585L258.323 809.058C258.12 809.126 257.913 809.273 257.726 809.429C257.526 809.595 257.298 809.814 257.048 810.076C256.546 810.602 255.928 811.331 255.217 812.229C253.793 814.028 251.977 816.535 249.953 819.528C245.905 825.515 241.012 833.47 236.748 841.64C232.488 849.802 228.836 858.213 227.295 865.103C226.525 868.545 226.271 871.65 226.76 874.172C227.253 876.712 228.509 878.688 230.755 879.77L230.84 879.811L230.933 879.817C243.228 880.78 255.063 875.505 264.888 867.447C274.714 859.388 282.579 848.509 286.946 838.161C289.13 832.986 290.448 827.926 290.688 823.403C290.929 818.883 290.094 814.861 287.93 811.812ZM574.837 795.074C570.258 795.097 566.813 796.468 564.383 798.868C561.961 801.261 560.602 804.625 560.083 808.541C559.048 816.359 561.34 826.542 565.497 836.203C569.658 845.872 575.722 855.102 582.318 861.009C588.791 866.804 595.942 869.526 602.302 865.966L602.604 865.792C609.41 861.751 611.646 855.215 611.056 847.799C610.467 840.411 607.078 832.098 602.583 824.324C598.084 816.542 592.45 809.255 587.325 803.911C584.763 801.24 582.319 799.043 580.197 797.513C579.137 796.747 578.147 796.141 577.257 795.726C576.484 795.365 575.759 795.135 575.11 795.085L574.838 795.074H574.837ZM531.573 835.15C521.337 817.054 490.014 798.61 450.918 809.049L450.756 809.093L450.652 809.226C445.529 815.828 443.959 821.967 444.849 827.548C445.736 833.112 449.054 838.035 453.533 842.246C462.483 850.661 476.226 856.383 485.302 858.864V858.865C496.575 861.949 505.736 863.18 512.982 862.997C520.225 862.815 525.591 861.219 529.234 858.617C532.893 856.004 534.779 852.399 535.087 848.301C535.393 844.22 534.135 839.679 531.573 835.15ZM257.906 700.15C255.166 697.619 250.816 696.581 244.663 697.377L244.435 697.406L244.309 697.598L189.29 781.343L189.022 781.75L189.423 782.028C193.319 784.728 197.906 785.276 202.802 784.229C207.687 783.183 212.902 780.545 218.117 776.84C228.549 769.428 239.089 757.667 247.153 745.469C255.208 733.285 260.849 720.577 261.386 711.259C261.654 706.594 260.647 702.682 257.906 700.15ZM368.54 697.373C348.79 696.535 338.393 701.147 334.935 708.921C333.212 712.792 333.261 717.359 334.638 722.246C336.015 727.134 338.731 732.38 342.401 737.654C349.742 748.203 360.951 758.933 373.12 767.214C385.281 775.489 398.461 781.361 409.75 782.116L409.768 782.117H409.785C416.12 782.094 420.447 780.765 423.062 778.346C425.701 775.905 426.499 772.451 425.996 768.435C425.494 764.428 423.694 759.797 421.052 754.881C418.406 749.958 414.898 744.717 410.951 739.485C403.057 729.022 393.379 718.56 385.251 710.696C381.187 706.764 377.503 703.475 374.618 701.157C373.177 699.999 371.927 699.077 370.924 698.438C370.423 698.118 369.974 697.863 369.589 697.685C369.262 697.533 368.944 697.418 368.66 697.383L368.541 697.373H368.54ZM480.853 707.873C474.346 707.698 468.57 708.781 464.868 711.183L464.516 711.42C458.991 715.27 455.722 719.467 454.293 723.795C452.863 728.128 453.297 732.536 455.072 736.766C458.611 745.196 467.493 752.972 477.786 758.319C488.085 763.669 499.913 766.648 509.434 765.375C514.202 764.737 518.42 763.028 521.563 759.984C524.614 757.031 526.612 752.859 527.149 747.305L527.196 746.763C528.541 729.637 516.379 718.286 502.259 712.489C495.189 709.587 487.589 708.055 480.853 707.873ZM258.103 557.972L161.82 669.631L161.328 670.202L162.045 670.434C173.881 674.255 188.929 672.281 204.024 666.449C219.133 660.612 234.358 650.884 246.582 639.098C258.801 627.315 268.058 613.44 271.166 599.295C274.28 585.121 271.21 570.709 258.841 557.95L258.46 557.558L258.103 557.972ZM326.76 572.186L313.005 669.888L312.92 670.493L313.53 670.457L430.445 663.478L431.657 663.405L430.745 662.604L327.585 571.88L326.889 571.268L326.76 572.186ZM473.836 576.582C466.364 570.105 458.421 567.292 451.129 571.62L450.782 571.832C446.821 574.314 444.349 577.59 443.126 581.415C441.906 585.23 441.938 589.557 442.917 594.138C444.874 603.291 450.639 613.571 458.051 623.087C465.468 632.61 474.569 641.412 483.25 647.606C487.59 650.704 491.838 653.157 495.728 654.722C499.608 656.282 503.179 656.976 506.146 656.493L506.215 656.482L506.276 656.453C507.256 655.999 507.958 655.149 508.427 654.034C508.893 652.924 509.142 651.526 509.209 649.909C509.343 646.676 508.756 642.46 507.596 637.674C505.272 628.094 500.623 616.112 494.669 604.891C488.718 593.675 481.438 583.172 473.836 576.582ZM478.562 460.096C472.269 460.025 467.116 461.485 463.008 464.095C458.9 466.704 455.866 470.443 453.781 474.888C449.618 483.763 449.226 495.472 451.614 506.774C454.003 518.081 459.19 529.061 466.276 536.486C473.26 543.804 482.139 547.707 491.985 544.955L492.455 544.819C503.524 541.497 509.441 534.509 511.734 525.893C514.018 517.313 512.7 507.167 509.434 497.482C506.164 487.791 500.924 478.503 495.292 471.617C492.476 468.174 489.552 465.319 486.715 463.313C484.062 461.438 481.446 460.277 479.041 460.115L478.562 460.096ZM257.981 446.636C257.924 458.981 251.509 468.639 241.836 476.524C232.153 484.418 219.25 490.497 206.329 495.669C199.872 498.254 193.422 500.607 187.376 502.848C181.335 505.086 175.693 507.214 170.869 509.341C166.052 511.465 162.015 513.604 159.201 515.876C156.481 518.073 154.819 520.466 154.816 523.162L154.821 523.424C155.129 531.403 157.648 536.872 161.829 540.171C165.999 543.461 171.728 544.515 178.297 543.877C191.424 542.602 208.185 534.549 223.526 523.372C238.876 512.189 252.889 497.82 260.489 483.822C264.29 476.823 266.505 469.884 266.452 463.464C266.4 457.026 264.066 451.134 258.821 446.271L257.986 445.498L257.981 446.636ZM354.326 446.398L319.939 509.207L319.613 509.802L320.278 509.937L423.438 530.873L424.817 531.152L423.925 530.065L355.15 446.321L354.682 445.749L354.326 446.398ZM314.768 393.641C310.021 390.904 305.184 389.402 300.14 390.23L299.65 390.317C285.909 392.983 279.303 398.9 278.297 405.896C277.299 412.835 281.877 420.511 289.728 426.577C305.47 438.742 334.852 444.849 361.927 426.113L362.957 425.399L361.719 425.208C355.717 424.279 350.132 421.426 344.797 417.693C339.459 413.959 334.406 409.37 329.451 404.991C324.51 400.625 319.66 396.461 314.768 393.641ZM270.954 309.142C265.588 306.556 257.425 305.466 245.813 306.463L244.679 306.566H244.678C244.503 306.584 244.328 306.66 244.186 306.734C244.03 306.815 243.854 306.925 243.663 307.056C243.28 307.318 242.802 307.688 242.249 308.146C241.14 309.063 239.696 310.359 238.038 311.907C234.72 315.005 230.522 319.136 226.393 323.333C222.263 327.53 218.198 331.799 215.142 335.173C213.614 336.859 212.334 338.326 211.424 339.452C210.97 340.014 210.602 340.499 210.34 340.886C210.209 341.079 210.1 341.256 210.019 341.411C209.962 341.519 209.905 341.641 209.871 341.766L209.845 341.891V341.892C208.342 353.224 209.266 361.126 211.932 366.246C214.621 371.412 219.054 373.687 224.352 373.809C229.613 373.929 235.724 371.93 241.889 368.602C248.062 365.268 254.334 360.578 259.93 355.257C265.525 349.936 270.458 343.972 273.943 338.084C277.423 332.206 279.491 326.352 279.281 321.267C279.069 316.134 276.536 311.832 270.954 309.142ZM343.996 249.211C337.685 248.663 331.413 248.535 326.029 248.799C320.996 249.046 316.698 249.638 313.871 250.574L313.325 250.766C307.429 252.971 303.134 256.382 300.215 260.677C297.299 264.967 295.775 270.113 295.373 275.761C294.57 287.044 298.234 300.405 304.326 313.219C310.422 326.041 318.973 338.368 328.004 347.593C332.52 352.205 337.165 356.051 341.692 358.795C346.216 361.537 350.651 363.195 354.74 363.393L355.554 363.433L355.221 362.689L321.028 286.357L375.623 258.658L376.334 258.298L375.699 257.814C372.562 255.43 367.768 253.557 362.224 252.144C356.667 250.727 350.306 249.759 343.996 249.211ZM340.653 167.139L306.267 202.032L305.768 202.539L306.413 202.837L382.064 237.73L382.333 237.854L382.57 237.679C393.697 229.467 398.104 222.033 397.904 215.148C397.705 208.285 392.929 202.189 386.256 196.644C379.568 191.086 370.853 185.985 362.572 181.14C354.264 176.279 346.411 171.685 341.345 167.118L340.989 166.798L340.653 167.139ZM346.814 82.1387C345.107 81.4793 343.197 81.7443 341.137 83.0586L340.724 83.335H340.723C334.598 87.6228 331.97 96.6293 332.144 105.287C332.231 109.635 333.022 113.943 334.463 117.598C335.856 121.132 337.873 124.096 340.485 125.87L340.74 126.038C343.098 127.546 345.232 127.855 347.094 127.126C348.928 126.408 350.38 124.727 351.495 122.521C353.725 118.106 354.754 111.301 354.684 104.565C354.613 97.8288 353.441 91.046 351.176 86.6719C350.045 84.4875 348.602 82.8289 346.814 82.1387Z" stroke="#E0ECDF"/>
</g>
<defs>
<filter id="filter0_d_1017_11689" x="0" y="0" width="682" height="1320" filterUnits="userSpaceOnUse" color-interpolation-filters="sRGB">
<feFlood flood-opacity="0" result="BackgroundImageFix"/>
<feColorMatrix in="SourceAlpha" type="matrix" values="0 0 0 0 0 0 0 0 0 0 0 0 0 0 0 0 0 0 127 0" result="hardAlpha"/>
<feOffset dy="4"/>
<feGaussianBlur stdDeviation="2"/>
<feComposite in2="hardAlpha" operator="out"/>
<feColorMatrix type="matrix" values="0 0 0 0 0 0 0 0 0 0 0 0 0 0 0 0 0 0 0.25 0"/>
<feBlend mode="normal" in2="BackgroundImageFix" result="effect1_dropShadow_1017_11689"/>
<feBlend mode="normal" in="SourceGraphic" in2="effect1_dropShadow_1017_11689" result="shape"/>
</filter>
</defs>
</svg>
