<svg width="1440" height="269" viewBox="0 0 1440 269" fill="none" xmlns="http://www.w3.org/2000/svg">
<rect width="1440" height="269" fill="#F2F7F2"/>
<g opacity="0.45">
<path d="M65.7139 154.911L80.4795 176.708C73.0264 181.008 87.9102 195.623 88.917 199.208C89.5161 201.338 86.1369 202.711 86.1045 203.427C85.9752 206.236 93.8994 213.664 79.7764 206.942C77.4702 208.232 83.7491 218.263 86.8077 219.599C91.0349 219.78 85.5097 213.085 83.292 213.271C97.1914 209.408 88.3911 220.891 95.9483 225.927L84.6983 228.739C92.3427 229.494 106.31 230.77 88.917 234.364C110.961 251.828 72.0125 241.691 69.2295 245.614C68.1158 247.185 71.6244 271.328 67.1202 268.817C66.8488 228.386 52.176 252.564 38.9952 244.911C35.6328 240.197 46.1375 236.727 43.917 232.958C43.6428 232.491 38.2386 234.904 36.8858 227.333C36.7831 226.762 39.3608 216.554 39.6983 216.083C42.9594 211.53 47.3216 213.016 48.1358 211.864C49.296 210.222 44.0703 210.101 43.917 204.833C43.8341 201.977 55.416 176.676 62.1983 179.521C49.6967 177.912 64.6381 161.464 65.7139 154.911ZM67.1202 164.755C61.8538 164.928 68.4983 173.183 71.3389 173.192C72.5497 171.024 69.2872 164.683 67.1202 164.755ZM62.9014 171.786C62.7538 171.807 60.7316 173.759 60.792 173.896C62.443 177.623 68.1819 171.039 62.9014 171.786ZM68.5264 177.411C67.0681 178.701 71.9872 180.425 72.042 179.521C72.2038 176.884 70.9044 177.278 68.5264 177.411ZM64.3077 181.63C60.006 184.71 62.8044 189.124 67.1202 190.067L64.3077 181.63ZM58.6827 187.255L53.0577 197.099C56.2639 198.364 64.4455 186.922 58.6827 187.255ZM74.1514 187.255C72.7874 187.909 72.7128 192.04 75.5577 191.474C77.6895 191.049 74.7013 186.991 74.1514 187.255ZM78.3702 192.88C74.3497 192.54 78.8342 200.993 82.5889 199.911C84.7377 198.013 78.7794 192.915 78.3702 192.88ZM71.3389 198.505C64.9011 202.992 82.9742 212.591 76.9639 201.317C76.4774 200.403 71.8817 198.127 71.3389 198.505ZM67.1202 205.536C58.161 206.048 69.013 212.363 72.7452 212.567C74.9924 210.447 67.5702 205.511 67.1202 205.536ZM55.8702 208.349C55.1235 208.382 50.6797 213.616 51.6514 215.38C54.5469 215.342 61.0438 208.115 55.8702 208.349ZM58.6827 215.38C58.3142 215.467 51.605 220.471 55.8702 222.411L62.1983 216.083C61.6949 215.083 59.6474 215.152 58.6827 215.38ZM74.1514 215.38C68.2381 216.097 81.44 226.253 83.292 223.114C83.0488 219.953 76.5814 215.085 74.1514 215.38ZM47.4327 216.786C47.1838 216.792 43.5374 218.642 43.917 220.302C45.2052 225.939 56.4678 216.571 47.4327 216.786ZM65.7139 216.786C63.0224 217.561 62.3769 222.37 67.1202 221.005C69.8117 220.23 70.4572 215.421 65.7139 216.786ZM71.3389 222.411C63.5089 223.505 78.9622 234.769 76.2608 225.927C76.1722 225.637 71.6385 222.369 71.3389 222.411ZM46.0264 226.63C41.0863 228.347 48.9641 233.823 52.3545 227.333C51.0805 226.394 47.202 226.221 46.0264 226.63ZM55.8702 229.442L46.0264 240.692C49.0456 243.059 61.3813 228.706 55.8702 229.442ZM68.5264 229.442C65.8461 229.208 66.9289 234.991 69.9327 233.661C71.8845 232.796 69.3997 229.518 68.5264 229.442ZM79.7764 230.849C75.8333 232.937 83.8405 241.785 86.8077 240.692L79.7764 230.849ZM60.0889 235.067C57.0866 235.155 53.1786 245.119 62.9014 242.099C66.6041 240.948 62.0324 235.011 60.0889 235.067ZM74.1514 237.88C71.6581 239.584 76.7502 242.236 76.9639 242.099C79.0831 240.736 77.6474 236.565 74.1514 237.88Z" fill="#37643C"/>
<path d="M182.098 176.187C183.95 175.921 193.387 194.371 194.051 196.578C194.873 199.314 192.294 200.468 192.645 202.203C192.812 203.032 196.914 205.853 196.863 206.422C196.713 208.109 192.868 207.719 192.645 210.641C192.376 214.169 211.078 223.297 192.645 221.891C194.235 227.133 203.758 227.587 204.598 228.219C208.805 231.385 202.488 234.325 209.52 237.359C209.279 242.294 185.032 236.546 182.801 241.578C181.589 244.312 184.979 269 180.691 269C175.646 264.51 180.513 244.305 178.582 241.578C176.73 238.963 154.877 243.472 153.27 238.766C162.246 234.645 155.875 232.263 156.082 231.734C157.362 228.469 170.713 223.519 170.145 221.891L161.707 220.484C161.692 219.492 171.102 211.662 171.551 210.641C171.658 210.399 168.668 208.124 168.738 207.828C170.216 201.632 172.718 203.043 172.957 202.203C173.594 199.96 168.984 198.747 170.145 195.172C170.977 192.608 180.797 180.625 182.098 176.187ZM182.098 186.031C181.532 186.075 174.778 193.656 176.473 195.875L182.098 188.844C190.629 203.739 188.263 185.557 182.098 186.031ZM177.879 198.687C176.203 199.041 174.614 203.457 176.473 204.312C177.215 204.654 182.836 197.643 177.879 198.687ZM184.91 198.687C184.568 200.971 186.539 204.551 189.129 204.312C189.395 202.828 186.631 198.527 184.91 198.687ZM178.582 208.531C175.473 210.413 173.124 213.476 172.254 216.969C177.437 218.246 181.48 213.063 178.582 208.531C185.267 207.17 184.755 221.69 191.238 214.859C187.077 209.349 185.954 204.069 178.582 208.531ZM177.879 219.781C177.429 219.756 169.751 224.062 172.254 226.812C176.387 229.455 182.933 220.069 177.879 219.781ZM183.504 219.781C178.443 222.67 191.129 230.036 191.238 224.703C191.259 223.699 184.628 219.14 183.504 219.781ZM176.473 229.625L170.145 234.547L172.254 236.656C177.712 238.003 181.679 230.211 176.473 229.625ZM183.504 229.625C178.958 232.833 186.503 238.009 191.238 234.547C190.344 233.065 184.608 228.846 183.504 229.625ZM165.223 231.031C164.903 231.07 160.111 234.235 160.301 234.547C163.984 236.712 166.457 234.523 168.738 231.734C168.173 230.678 166.372 230.891 165.223 231.031ZM194.754 231.031C192.618 235.658 199.476 236.276 202.488 234.547L194.754 231.031Z" fill="#4B7E50"/>
<path d="M295.754 86.1211C298.713 90.6 317.487 119.884 317.551 121.98C317.739 128.266 311.855 126.125 311.926 130.418C311.945 131.637 324.65 144.86 324.582 145.887C324.53 146.68 317.122 154.79 318.957 159.949C319.906 162.618 328.167 162.63 328.801 165.574C329.543 169.027 322.324 170.836 321.77 172.605C320.083 177.986 330.47 189.123 330.207 190.887C329.643 194.672 319.32 195.998 318.957 196.512C318.321 197.41 327.544 212.975 328.801 214.793L311.926 216.199C314.607 224.555 317.644 218.272 318.254 218.309C334.815 219.303 320.975 221.795 320.363 224.637C319.73 227.572 327.65 230.62 325.988 234.48C323.721 239.745 299.177 233.947 297.863 237.293C296.533 241.42 300.733 270.575 295.754 268.934C290.575 263.871 295.723 240.224 293.645 237.293C292.93 236.286 272.585 236.186 269.035 235.184C266.992 231.454 276.975 225.881 276.77 224.637C275.829 218.948 252.761 218.981 276.77 197.918L265.52 193.699C280.862 174.154 270.494 182.518 268.332 174.012C265.704 163.674 278.864 165.813 279.582 161.355C279.798 160.015 272.601 148.474 272.551 147.293C272.317 141.762 278.975 139.784 279.582 137.449C281.323 130.755 274.673 127.366 275.363 123.387C275.491 122.65 284.289 114.862 285.207 112.137C285.899 110.082 282.61 105.973 283.801 102.293C284.119 101.311 295.847 92.2172 295.754 86.1211ZM294.348 100.184C293.438 100.063 290.98 104.142 292.941 104.402C293.851 104.523 296.309 100.444 294.348 100.184ZM297.16 104.402C292.998 105.418 296.924 111.414 298.566 111.434C302.663 111.484 301.655 103.305 297.16 104.402ZM288.723 111.434C286.751 112.023 286.484 118.31 290.129 117.059C293.069 116.049 293.626 109.967 288.723 111.434ZM302.785 111.434C299.648 112.793 300.974 122.582 307.004 121.277C313.935 119.777 307.316 109.47 302.785 111.434ZM284.504 118.465C282.289 118.998 280.587 123.631 285.91 122.684C290.149 121.928 285.251 118.285 284.504 118.465ZM294.348 118.465C292.653 119.078 293.695 122.182 295.754 121.277C297.44 120.536 296.482 117.691 294.348 118.465ZM311.223 121.277C310.97 121.263 307.211 124.479 308.41 125.496C313.055 126.715 314.184 121.439 311.223 121.277ZM297.16 122.684C295.038 124.659 298.721 127.708 299.973 126.902C302.092 125.538 300.656 121.369 297.16 122.684ZM288.723 124.09L286.613 126.199L287.316 126.902L289.426 126.199L288.723 124.09ZM292.941 128.309C290.39 128.431 290.611 133.929 292.941 133.934C294.428 133.936 297.103 128.11 292.941 128.309ZM302.785 128.309C299.76 128.891 301.306 133.315 304.191 132.527C306.568 131.879 307.964 127.313 302.785 128.309ZM288.723 133.934C287.849 134.01 285.365 137.287 287.316 138.152C290.32 139.483 291.403 133.699 288.723 133.934ZM308.41 133.934C305.449 134.095 306.578 139.372 311.223 138.152C312.422 137.136 308.663 133.92 308.41 133.934ZM295.754 135.34C291.84 137.7 300.785 141.697 300.676 137.449C300.601 134.552 296.764 134.731 295.754 135.34ZM283.098 139.559C282.539 139.478 277.791 144.908 278.879 146.59C283.514 147.442 288.263 140.305 283.098 139.559ZM304.191 139.559C300.919 139.407 302.557 146.87 305.598 145.184C307.575 144.087 305.547 139.622 304.191 139.559ZM314.035 140.965C312.874 141.973 316.627 145.309 316.848 145.184C318.929 143.997 317.587 139.599 314.035 140.965ZM291.535 142.371C290.083 143.098 292.785 145.198 292.941 145.184C297.008 144.815 295.325 141.544 291.535 142.371ZM298.566 145.184C294.608 145.573 297.437 153.036 301.379 150.809C303.764 149.46 298.88 145.153 298.566 145.184ZM287.316 146.59C285.98 147.29 285.612 150.638 288.723 150.809C291.621 150.967 290.04 145.161 287.316 146.59ZM309.816 146.59C307.697 147.954 309.133 152.123 312.629 150.809C314.751 148.833 311.068 145.784 309.816 146.59ZM292.941 150.809C288.122 150.134 291.161 160.169 294.348 157.84C296.127 156.54 294.878 151.08 292.941 150.809ZM302.785 153.621C300.909 154.645 303.183 157.611 304.191 157.84C309.155 158.97 307.07 151.283 302.785 153.621ZM285.91 159.246C282.555 160.011 283.965 165.712 287.316 164.871C289.8 164.248 291.295 158.02 285.91 159.246ZM298.566 159.246C295.273 159.979 296.517 165.639 299.973 164.871C303.266 164.138 302.022 158.478 298.566 159.246ZM309.816 159.246C308.122 159.859 309.164 162.963 311.223 162.059C312.909 161.317 311.951 158.473 309.816 159.246ZM315.441 163.465C313.027 164.061 312.619 167.677 315.441 169.09L321.77 165.574C319.693 165.687 315.765 163.385 315.441 163.465ZM292.941 164.871C292.692 164.871 289.426 168.138 289.426 168.387C289.426 173.939 298.493 164.871 292.941 164.871ZM302.785 166.277C301.351 167.038 304.035 169.108 304.191 169.09C306.845 168.789 306.405 164.358 302.785 166.277ZM280.285 167.684C280.085 167.668 278.126 168.953 278.879 170.496C280.434 173.684 285.064 168.055 280.285 167.684ZM297.16 170.496C294.294 171.057 295.042 176.028 297.16 176.121C299.282 176.215 302.244 169.499 297.16 170.496ZM308.41 170.496C304.528 171.541 308.919 176.11 309.816 176.121C312.516 176.153 314.901 168.748 308.41 170.496ZM285.91 171.902C283.359 172.025 283.58 177.523 285.91 177.527C287.397 177.53 290.071 171.704 285.91 171.902ZM274.66 173.309C272.528 173.733 275.517 177.792 276.066 177.527C277.43 176.873 277.505 172.742 274.66 173.309ZM302.785 176.121C298.287 176.276 300.191 184.429 304.191 183.152C307.389 182.131 307.107 175.973 302.785 176.121ZM315.441 176.121C313.847 176.38 312.161 180.805 314.035 181.746C316.721 183.093 318.07 175.695 315.441 176.121ZM290.129 177.527C286.099 178.2 290.821 183.294 291.535 183.152C293.695 182.723 295.852 176.573 290.129 177.527ZM280.285 178.934C279.097 179.79 279.206 182.68 280.285 183.152C282.001 183.903 283.299 176.761 280.285 178.934ZM297.16 183.152C294.757 183.227 293.91 189.426 298.566 187.371C300.582 186.482 297.876 183.13 297.16 183.152ZM309.816 183.152C308.943 183.228 306.458 186.506 308.41 187.371C311.414 188.701 312.497 182.918 309.816 183.152ZM318.254 183.152C315.2 184.786 321.432 189.6 323.176 186.668C324.162 185.01 320.3 182.058 318.254 183.152ZM284.504 184.559C279.985 187.628 289.081 187.595 288.02 185.262C287.599 184.336 284.995 184.225 284.504 184.559ZM276.066 185.965C275.674 185.972 270.884 190.275 273.254 191.59C277.013 193.674 279.205 185.907 276.066 185.965ZM302.785 188.777C301.912 188.853 299.427 192.131 301.379 192.996C304.383 194.326 305.465 188.543 302.785 188.777ZM280.285 190.184C280.137 190.205 278.115 192.157 278.176 192.293C279.826 196.021 285.566 189.437 280.285 190.184ZM290.129 190.184C289.623 190.342 287.368 192.315 288.723 192.996C292.311 194.8 296.022 188.325 290.129 190.184ZM312.629 190.184C308.715 192.543 317.66 196.541 317.551 192.293C317.476 189.396 313.639 189.575 312.629 190.184ZM283.098 195.809C279.217 196.79 283.378 202.014 285.91 201.434C289.396 200.635 288.111 194.54 283.098 195.809ZM295.754 195.809C292.399 196.574 293.809 202.275 297.16 201.434C299.644 200.811 301.138 194.582 295.754 195.809ZM307.004 195.809C303.145 197.005 305.359 202.816 309.816 201.434C313.675 200.237 311.462 194.426 307.004 195.809ZM290.129 201.434C285.744 202.394 290.268 208.634 291.535 208.465C294.698 208.046 294.185 200.545 290.129 201.434ZM277.473 202.84C274.33 204.751 279.925 207.286 280.988 204.949C281.073 204.762 278.646 202.125 277.473 202.84ZM301.379 202.84C297.423 203.9 301.85 209.122 304.191 208.465C306.098 207.93 307.012 201.331 301.379 202.84ZM314.035 202.84C311.279 203.297 312.13 207.608 315.441 207.059C318.198 206.602 317.347 202.29 314.035 202.84ZM276.066 207.059C275.875 206.985 272.594 208.967 272.551 209.168C271.612 213.546 279.932 208.527 276.066 207.059ZM284.504 208.465C284.303 208.449 282.345 209.735 283.098 211.277C284.653 214.465 289.282 208.836 284.504 208.465ZM297.16 209.871L297.863 211.98L298.566 212.684L299.27 210.574L297.16 209.871ZM308.41 209.871C306.958 210.598 309.66 212.698 309.816 212.684C313.883 212.315 312.2 209.044 308.41 209.871ZM277.473 214.09C271.706 213.952 274.913 220.895 278.879 219.715C282.776 218.556 280.05 214.152 277.473 214.09ZM302.785 214.09C299.691 214.53 300.549 220.525 304.191 219.715C308.369 218.785 304.76 213.809 302.785 214.09ZM288.723 215.496C284.309 218.008 295.075 222.148 295.051 217.605C295.042 215.947 290.002 214.768 288.723 215.496ZM284.504 221.121C281.01 221.979 282.19 229.065 285.91 228.152C289.405 227.295 288.225 220.208 284.504 221.121ZM297.16 221.121C294.573 221.335 293.155 227.387 295.754 228.152C299.243 229.179 303.314 220.612 297.16 221.121ZM308.41 221.121C304.644 223.529 312.214 228.398 312.629 228.152C315.619 226.378 310.145 220.012 308.41 221.121ZM304.191 226.746C303.831 226.749 299.025 230.99 301.379 232.371C307.114 235.735 308.836 226.712 304.191 226.746ZM278.879 228.152C276.199 227.917 277.282 233.701 280.285 232.371C282.237 231.506 279.752 228.228 278.879 228.152ZM290.129 229.559C287.111 231.752 292.538 233.85 293.645 231.668C294.66 229.664 291.155 228.812 290.129 229.559ZM316.848 229.559L316.145 231.668L316.848 232.371L318.957 230.262L316.848 229.559Z" fill="#37643C"/>
<path d="M426.123 139.625C428.037 139.436 436.437 163.477 438.077 167.047C438.771 168.558 448.175 175.575 440.186 177.594C437.444 178.287 426.244 166.221 426.827 175.485C427.34 183.656 446.283 176.177 450.733 183.922C426.483 188.187 454.59 188.912 454.952 192.36C455.117 193.945 444.334 197.314 457.764 205.016C444.095 213.19 459.477 213.306 460.577 214.859C461.737 216.5 456.389 219.676 456.358 220.484C456.321 221.422 463.464 228.378 463.389 228.922C462.728 233.716 428.752 229.02 426.827 231.734L424.717 269L422.608 233.141L388.155 233.844C381.298 232.003 394.692 223.262 395.889 220.484C396.675 218.66 392.958 216.683 393.077 216.266C393.87 213.479 399.04 209.996 398.702 207.828C398.396 205.878 394 206.33 394.483 203.609C395.072 200.291 409.17 202.916 411.358 196.578L400.108 192.36C406.346 184.737 416.07 193.701 422.608 186.735C422.8 182.648 403.654 190.37 402.92 185.328C401.67 176.741 426.166 185.037 421.905 171.969C400.541 183.237 423.527 148.079 426.123 139.625ZM427.53 156.5C425.894 161.075 424.706 170.069 431.748 169.156C435.078 168.725 430.321 156.876 427.53 156.5ZM420.498 162.125C419.778 162.432 417.153 168.278 419.092 169.156C420.771 169.917 426.621 159.517 420.498 162.125ZM427.53 183.219C423.785 184.372 427.742 188.588 428.936 188.844C442.084 191.664 435.478 180.772 427.53 183.219ZM420.498 193.063L412.061 202.906C417.734 203.89 424.877 198.485 420.498 193.063ZM427.53 193.063C420.932 198.354 432.786 205.129 439.483 200.797C441.3 198.565 429.193 191.728 427.53 193.063ZM441.592 194.469C439.308 196.898 444.94 201.639 445.811 201.5C450.129 200.809 446.319 193.203 441.592 194.469ZM420.498 205.719C417.654 204.948 405.29 221.56 422.608 212.047C422.91 210.086 422.668 206.307 420.498 205.719ZM427.53 205.719C422.221 215.107 433.082 215.621 439.483 213.453C437.949 208.042 432.504 206.209 427.53 205.719ZM441.592 205.719C436.929 208.833 449.857 217.732 450.733 212.047C450.962 210.564 444.97 203.463 441.592 205.719ZM403.623 207.125C402.882 207.373 399.243 212.611 399.405 214.156C404.571 216.863 416.633 209.838 409.248 207.125C407.574 207.429 404.962 206.677 403.623 207.125ZM403.623 218.375C402.321 218.665 394.981 225.474 396.592 228.219C402.64 228.645 411.645 227.367 412.061 219.781C409.399 221.233 404.041 218.282 403.623 218.375ZM420.498 218.375C419.953 218.309 413.215 225.049 413.467 226.813C421.352 230.625 426.348 219.088 420.498 218.375ZM427.53 218.375C420.936 223.823 432.831 230.362 439.483 226.109C441.035 224.196 430.358 216.038 427.53 218.375ZM442.998 218.375C434.63 219.944 448.552 230.805 454.952 226.109C456.477 224.229 446.376 216.37 442.998 218.375Z" fill="#98BD99"/>
<path d="M545.385 176.188C547.591 175.466 557.673 198.2 558.744 200.797C559.983 203.801 555.838 206.123 555.932 206.422C556.185 207.229 567.151 214.63 567.182 219.078C547.56 220.569 570.035 227.094 571.401 235.953C568.924 240.732 549.37 236.112 547.494 238.766C545.087 242.172 551.781 266.31 543.979 269L543.276 238.766L521.479 239.469C514.443 236.668 527.409 228.571 527.807 227.516C528.03 226.924 526.194 218.521 527.807 214.86C528.129 214.128 536.94 207.432 537.651 205.016C537.735 204.728 534.75 202.486 534.838 202.203C537.722 193.07 541.206 185.113 545.385 176.188ZM546.791 186.031C543.519 185.88 545.157 193.343 548.197 191.656C550.175 190.56 548.147 186.095 546.791 186.031ZM549.604 195.875C547.909 196.488 548.951 199.592 551.01 198.688C552.696 197.947 551.738 195.102 549.604 195.875ZM546.791 202.906C543.748 204.685 549.268 211.631 552.416 209.938C554.509 208.813 549.12 201.205 546.791 202.906ZM541.166 205.719C540.851 205.72 536.135 209.671 538.354 211.344C542.065 211.459 544.485 205.699 541.166 205.719ZM553.822 212.75C552.37 213.477 555.073 215.577 555.229 215.563C559.296 215.194 557.612 211.923 553.822 212.75ZM539.76 215.563L531.322 228.219C535.185 229.486 544.427 217.474 539.76 215.563ZM548.197 215.563L541.869 226.11C547.888 222.725 549.996 227.623 556.635 226.813L548.197 215.563ZM541.166 229.625C540.865 229.598 536.315 232.585 536.244 233.141C538.424 237.739 546.926 230.123 541.166 229.625ZM549.604 229.625C547.98 229.687 546.933 233.141 549.604 233.844C557.244 235.858 553.322 229.483 549.604 229.625ZM559.447 231.031C558.027 231.75 560.591 233.802 560.854 233.844C564.358 234.408 562.333 230.979 559.447 231.031ZM525.697 232.438C522.508 234.492 528.279 237.306 530.619 233.141C529.811 232.178 526.221 232.102 525.697 232.438Z" fill="#37643C"/>
<path d="M657.635 193.063C662.988 192.683 668.571 213.981 669.588 217.672C669.676 217.995 666.709 220.13 666.775 220.485C667.168 222.576 680.934 234.328 680.838 237.36C680.807 238.319 675.566 240.472 676.619 244.391C676.82 245.14 688.439 251.947 684.354 256.344C666.833 259.042 658.56 246.839 657.635 269C656.001 243.803 641.193 261.811 627.4 251.422C631.002 248.165 634.903 237.634 637.244 234.547C637.513 234.193 644.679 232.314 644.275 230.328C644.011 229.025 638.009 229.762 638.65 224.703C638.882 222.872 655.794 193.193 657.635 193.063ZM659.041 207.125C653.51 208.551 658.943 214.726 663.26 214.156C664.745 211.936 661.406 206.516 659.041 207.125ZM652.01 208.531C650.387 208.794 648.739 213.299 650.604 214.156C651.634 214.63 655.978 207.887 652.01 208.531ZM657.635 218.375C653.55 220.555 663.909 227.848 665.369 224.703C663.873 223.72 659.393 217.437 657.635 218.375ZM652.01 226.813C651.52 226.56 642.842 232.014 646.385 235.25C647.446 233.997 656.302 229.033 652.01 226.813ZM657.635 228.219C654.966 231.865 665.058 235.219 665.369 234.547C664.679 231.463 661.074 227.665 657.635 228.219ZM668.885 229.625C667.221 230.175 669.682 236.056 671.697 235.25C673.787 232.906 670.121 231.214 668.885 229.625ZM652.01 236.656C650.858 236.59 645.187 241.107 646.385 243.688C651.447 246.376 655.987 236.886 652.01 236.656ZM642.166 238.063C641.883 237.954 637.134 241.293 637.244 241.578C638.473 244.761 645.565 239.366 642.166 238.063ZM657.635 238.063C653.928 240.117 665.32 247.642 666.775 244.391L657.635 238.063ZM668.885 239.469C666.666 241.142 671.382 245.092 671.697 245.094C675.016 245.114 672.596 239.354 668.885 239.469ZM639.354 246.5C639.103 246.461 634.039 248.95 636.541 250.719C641.269 252.354 644.021 247.229 639.354 246.5ZM649.197 247.906C646.506 248.681 645.86 253.491 650.604 252.125C653.295 251.35 653.941 246.541 649.197 247.906ZM659.041 247.906C656.016 248.489 657.562 252.913 660.447 252.125C662.824 251.477 664.22 246.911 659.041 247.906ZM668.885 249.313C666.379 251.086 671.446 253.561 671.697 253.531C674.825 253.163 673.351 248.147 668.885 249.313Z" fill="#2C5031"/>
<path d="M770.051 175.632C771.706 179.773 784.718 199.586 784.816 201.647C784.949 204.418 780.575 204.279 780.598 205.866C780.61 206.735 788.537 210.68 789.035 212.897C789.969 217.053 781.626 210.941 782.004 217.116C798.338 220.557 790.319 221.893 791.848 226.96C792.16 227.994 795.735 230.125 796.066 231.179C796.201 231.609 792.714 233.267 793.254 235.397C793.933 238.074 801.561 239.511 796.77 244.538L771.457 241.726C769.394 242.905 773.305 273.46 767.238 268.444C764.935 266.54 767.909 244.371 766.535 242.429C764.796 239.971 741.227 244.074 741.223 239.616L756.691 233.991C755.793 227.906 749.027 235.134 747.551 234.694C740.428 226.423 752.909 228.988 756.691 224.147C741.608 224.966 749.494 218.7 758.098 215.71C747.98 211.539 759.884 197.427 767.941 194.616C757.141 195.918 766.913 181.125 770.051 175.632ZM771.457 185.476C770.246 186.311 770.387 189.019 771.457 189.694C773.31 190.863 773.195 184.277 771.457 185.476ZM771.457 192.507C770.093 193.161 770.018 197.292 772.863 196.726C774.995 196.301 772.007 192.242 771.457 192.507ZM770.051 200.944C765.34 204.37 774.416 211.483 777.785 207.272C779.114 205.61 770.629 200.524 770.051 200.944ZM764.426 202.351C763.562 202.346 758.996 207.369 761.613 209.382C763.821 207.932 768.656 202.372 764.426 202.351ZM764.426 212.194C763.793 212.147 759.157 217.535 760.207 219.226C764.031 220.751 769.819 212.598 764.426 212.194ZM771.457 212.194C764.429 217.163 779.969 221.439 779.191 217.116C778.951 215.782 772.367 211.55 771.457 212.194ZM764.426 222.038C764.019 221.989 758.115 227.161 760.207 229.069C764.562 229.462 769.132 222.606 764.426 222.038ZM770.051 223.444C764.475 226.871 776.619 231.599 780.598 226.96C778.941 224.485 772.115 222.176 770.051 223.444ZM782.707 223.444C778.671 225.613 789.449 231.103 789.035 226.96C788.938 225.984 784.638 222.407 782.707 223.444ZM764.426 231.882C764.076 231.854 757.617 235.126 760.207 237.507C764.541 239.813 768.033 232.172 764.426 231.882ZM771.457 231.882C765.708 233.237 773.021 240.897 777.785 236.804C778.298 234.223 772.673 231.595 771.457 231.882ZM784.113 233.288C777.398 235.112 789.66 241.709 791.848 236.804C792.246 235.911 787.322 232.416 784.113 233.288Z" fill="#98BD99"/>
<path d="M887.391 136.812C893.921 145.415 909.594 168.111 893.719 168.453C896.832 176.37 912.973 172.429 903.563 178.297C909.05 177.173 910.985 181.765 913.406 186.734C913.766 187.474 910.317 187.371 910.594 188.141C911.241 189.934 916.262 190.993 916.219 192.359C916.174 193.743 899.517 197.495 916.219 205.016L910.594 212.047C926.847 212.055 915.773 228.524 923.25 234.547C922.62 239.469 894.693 234.375 891.609 238.062C888.42 241.875 894.07 263.471 888.797 269C884.847 268.994 887.769 241.433 885.281 238.766C881.552 234.766 853.928 243.744 855.75 235.953C856.418 233.098 864.203 234.367 864.188 231.734C864.171 228.67 855.131 230.77 854.344 227.516C854.247 227.118 857.724 222.637 858.563 220.484C859.236 218.755 856.381 217.862 857.156 216.266C858.584 213.328 868.779 216.56 871.219 209.234C845.053 205.643 864.805 205.876 871.219 196.578C858.208 195.975 867.373 191.599 867 189.547C866.857 188.755 862.708 185.857 862.781 185.328C863.282 181.715 879.028 184.854 877.547 177.594L865.594 176.891C870.713 174.009 871.41 166.648 874.031 162.828C875.606 160.533 882.223 159.843 882.469 157.203C882.498 156.89 877.949 156.537 879.656 151.578C880.951 147.812 886.278 141.526 887.391 136.812ZM888.797 145.25C887.586 146.085 887.727 148.794 888.797 149.469C890.65 150.637 890.535 144.052 888.797 145.25ZM888.797 153.688L885.281 157.203L893.016 160.719C897.548 157.423 890.888 155.545 888.797 153.688ZM885.984 162.125C881.234 163.876 886.951 173.22 890.203 173.375L886.688 165.641L892.313 162.828C891.062 161.892 887.1 161.714 885.984 162.125ZM878.953 167.75C878.706 167.774 875.471 171.02 875.438 171.266C874.213 180.368 888.916 166.811 878.953 167.75ZM884.578 176.188C878.988 177.256 885.411 183.451 890.906 179.703C888.409 179.322 886.647 175.792 884.578 176.188ZM880.359 181.812C880.336 186.868 869.731 187.477 869.813 189.547C870.061 195.902 884.563 185.653 880.359 181.812ZM890.203 181.812L886.688 188.141L897.234 190.25L890.203 181.812ZM902.859 183.219C897.78 183.162 900.258 192.842 904.266 191.656C908.725 190.337 904.814 183.241 902.859 183.219ZM880.359 193.062L870.516 204.312C875.293 205.833 885.368 198.155 880.359 193.062ZM887.391 194.469L885.984 204.312L897.938 203.609L887.391 194.469ZM900.047 194.469C896.886 196.421 903.35 203.279 905.672 202.906C907.04 202.28 902.951 192.676 900.047 194.469ZM878.953 207.125L873.328 215.562C876.401 217.661 883.928 206.491 878.953 207.125ZM891.609 207.125C883.54 206.787 891.263 215.262 895.828 215.562C900.968 215.544 892.304 207.155 891.609 207.125ZM901.453 208.531C896.986 211.6 907.414 216.662 907.781 212.047C908.051 208.659 902.906 207.533 901.453 208.531ZM890.203 216.969C885.793 217.61 887.897 228.68 895.828 225.406C897.742 223.269 890.705 216.896 890.203 216.969ZM912.703 216.969C909.043 216.987 913.004 225.47 915.516 224C918.214 222.421 913.7 216.965 912.703 216.969ZM866.297 218.375C863.4 219.385 860.89 225.465 864.891 226.812C870.049 228.548 879.476 213.779 866.297 218.375ZM880.359 218.375C879.999 218.493 875.852 224.602 877.547 225.406C882.505 225.789 886.786 216.257 880.359 218.375ZM900.047 218.375C897.978 221.002 901.715 222.799 903.563 223.297C912.758 225.776 907.999 216.283 900.047 218.375ZM871.922 228.219C869.368 228.352 865.208 234.631 869.109 235.25C873.365 235.925 878.039 227.898 871.922 228.219ZM883.172 228.219C882.82 228.199 878.059 232.558 878.953 233.844C887.571 236.753 887.579 228.463 883.172 228.219ZM900.047 228.219C897.175 229.847 904.211 236.299 906.375 233.141C908.261 230.39 902.93 226.585 900.047 228.219ZM911.297 228.219C908.084 229.632 914.669 234.813 916.219 231.734C916.355 231.464 912.629 227.632 911.297 228.219ZM891.609 229.625C888.592 231.819 894.018 233.917 895.125 231.734C896.14 229.73 892.636 228.878 891.609 229.625Z" fill="#2C5031"/>
<path d="M1008.08 131.177C1010.19 130.966 1019.41 144.157 1020.03 145.943C1020.14 146.24 1016.08 148.404 1017.22 151.568C1017.62 152.694 1021.04 154.67 1021.44 155.787C1022.51 158.823 1026.12 177.963 1027.06 179.693C1028.37 182.095 1037.35 182.441 1036.91 185.318C1035.61 193.758 1024.25 180.267 1021.44 183.912C1022.35 187.405 1035.58 192.9 1035.5 193.755C1035.37 195.233 1031.28 196.088 1031.28 196.568C1031.28 197.144 1035.52 200.235 1035.5 200.787C1035.47 201.434 1031.34 204.322 1031.28 205.005C1031.25 205.382 1035.81 208.102 1034.09 212.037C1032.86 214.876 1028.95 213.678 1028.47 214.849C1028.19 215.541 1037.81 224.77 1038.31 226.099C1038.53 226.672 1031.46 230.983 1039.72 235.943C1039.59 241.873 1011.64 238.717 1010.19 242.974C1012.08 247.213 1013.47 269.533 1009.48 268.99C1004.44 264.501 1009.31 244.293 1007.38 241.568C1006.49 240.326 984.099 239.945 980.656 238.755C985.989 223.541 972.487 211.656 991.906 203.599L979.25 202.193C983.677 198.161 981.714 186.141 982.062 185.318C984.263 180.133 998.99 185.183 1003.16 176.88C1000.03 175.134 984.848 183.003 984.875 175.474C984.898 169.247 993.47 176.54 994.719 172.662C985.931 163.057 1000.32 150.131 1000.34 148.755C1000.38 147.165 995.92 147.276 996.125 144.537C996.192 143.642 1007.19 131.267 1008.08 131.177ZM1009.48 138.209C1006.43 139.708 1011.87 145.475 1012.3 145.24C1015.32 143.564 1009.89 138.012 1009.48 138.209ZM1008.08 146.646C1006.94 146.639 996.271 156.819 999.641 157.896C1007.68 147.816 1006.09 152.957 1015.81 154.38C1013.67 153.088 1010.19 146.66 1008.08 146.646ZM1009.48 157.896C1005.1 158.46 1011.01 168.886 1016.52 166.334C1016.84 164.259 1010.35 157.785 1009.48 157.896ZM1002.45 159.302C1001.82 159.451 998.9 163.925 998.938 164.224C999.736 170.587 1010.28 157.449 1002.45 159.302ZM1003.86 167.74C1003.61 167.726 999.847 170.942 1001.05 171.959C1005.69 173.178 1006.82 167.902 1003.86 167.74ZM1010.89 169.146C1005.64 169.23 1016.18 180.641 1019.33 178.99L1010.89 169.146ZM1012.3 180.396C1007.95 185.44 1015.29 191.957 1020.73 191.646L1012.3 180.396ZM1003.86 181.802C1002.39 184.521 993.646 188.513 998.234 191.646C1001.72 189.843 1005.89 186.475 1003.86 181.802ZM991.203 184.615C987.266 184.528 986.662 191.504 989.797 191.646C991.258 191.712 994.58 184.689 991.203 184.615ZM991.203 193.052C990.784 192.781 982.726 197.987 983.469 199.38C987.605 200.407 996.26 196.318 991.203 193.052ZM1002.45 193.052C993.321 199.438 993.095 203.477 1004.56 197.974C1005.56 194.755 1007.86 192.604 1002.45 193.052ZM1010.89 194.459C1010.8 198.194 1015.79 199.995 1018.62 197.974L1010.89 194.459ZM1023.55 194.459C1019.02 197.267 1028.99 202.062 1028.47 197.974C1028.41 197.506 1023.8 194.3 1023.55 194.459ZM1002.45 202.896C1001.35 203.179 997.434 208.06 998.234 209.927C1003.18 209.922 1009.04 201.207 1002.45 202.896ZM1010.89 202.896C1007.09 205.353 1016.8 212.144 1018.62 209.224C1019.52 207.791 1014.72 200.422 1010.89 202.896ZM1023.55 202.896C1018.09 203.879 1025.96 212.585 1027.77 211.334C1030.47 209.462 1026.88 202.297 1023.55 202.896ZM992.609 205.709C992.258 205.73 987.588 209.908 988.391 211.334C992.148 212.602 997.561 205.41 992.609 205.709ZM1005.27 211.334C1004.37 211.207 996.524 220.788 995.422 222.584L996.828 225.396C1010.33 228.22 1009.09 211.871 1005.27 211.334ZM1012.3 212.74C1006.02 222.946 1015.36 227.483 1024.25 223.287L1012.3 212.74ZM991.203 215.552C989.845 215.645 982.484 220.604 985.578 223.99C989.011 223.36 999.995 214.955 991.203 215.552ZM991.203 225.396C980.199 239.155 989.652 240.98 998.938 230.318C998.331 228.948 991.926 232.471 991.203 225.396ZM1023.55 228.209C1019.03 231.163 1028.88 239.056 1032.69 234.537C1035.18 231.579 1026.17 226.496 1023.55 228.209ZM1003.86 229.615C1003.46 229.528 997.564 234.741 999.641 236.646C1005.81 238.917 1008.09 230.536 1003.86 229.615ZM1010.89 229.615C1004.61 234.382 1019.11 240.42 1020.03 234.537C1020.14 233.867 1013.58 227.573 1010.89 229.615Z" fill="#98BD99"/>
<path d="M1126 124.156C1135.88 127.288 1134.35 144.018 1135.14 145.953C1136.01 148.11 1139.86 148.012 1140.76 150.172C1143.16 155.869 1141.62 160.664 1143.58 165.641C1144.49 167.979 1151.92 174.843 1152.01 175.484C1152.86 181.228 1147.78 177.186 1147.79 181.109C1147.8 182.918 1173.14 190.046 1136.54 189.547C1140.79 200.518 1156.23 188.433 1156.23 196.578C1156.23 197.15 1151.98 200.268 1152.01 200.797C1152.1 202.13 1156.22 206.07 1156.23 206.422C1156.3 209.288 1148.43 216.117 1156.23 226.109H1146.39C1179.38 243.076 1128.74 232.788 1126.7 238.766L1128.81 269C1119.19 265.399 1126.42 244.483 1123.89 238.766C1121.57 233.523 1097.65 239.772 1095.76 234.547C1095.12 232.778 1101.53 227.772 1101.39 226.109C1101.33 225.416 1097.2 222.546 1097.17 221.891C1096.87 215.415 1099.91 214.582 1099.98 212.047C1100.03 210.451 1095.43 210.511 1095.76 207.828C1095.95 206.298 1101.24 205.115 1101.39 203.609C1101.46 202.889 1096.88 200.624 1097.17 197.984C1097.56 194.383 1108.39 193.482 1097.17 185.328C1098.77 181.863 1111.16 168.474 1111.23 167.047C1111.26 166.546 1106.94 163.27 1107.01 162.828C1109.6 147.148 1114.48 149.47 1123.89 143.141C1120.19 139.38 1117.82 147.431 1115.45 138.922L1126 124.156ZM1126 131.188C1123.35 132.678 1127.26 138.463 1130.22 138.219L1126 131.188ZM1127.4 141.031C1125.1 144.178 1128.37 146.24 1130.22 148.062C1132.3 147.245 1127.99 140.829 1127.4 141.031ZM1123.19 149.469C1122.73 150.38 1108.56 161.101 1114.75 162.125C1121.53 163.247 1124.57 149.907 1123.19 149.469ZM1127.4 152.281C1122.48 152.696 1128.91 164.665 1135.84 162.125C1137.54 158.927 1128.97 152.149 1127.4 152.281ZM1127.4 163.531C1120.37 164.718 1131.97 177.248 1136.54 171.266C1136.91 170.79 1128.22 163.393 1127.4 163.531ZM1118.97 164.938C1117.91 164.703 1110.99 170.367 1113.34 173.375C1118.31 175.79 1124.9 166.258 1118.97 164.938ZM1140.06 167.75C1137.1 167.912 1138.23 173.188 1142.87 171.969C1144.07 170.952 1140.31 167.736 1140.06 167.75ZM1118.97 176.188C1117.82 176.256 1112.57 183.402 1114.75 184.625C1119.57 187.326 1126.9 175.708 1118.97 176.188ZM1127.4 176.188C1123.2 179.246 1130.41 186.488 1135.14 182.516C1133.7 181.523 1128.91 175.095 1127.4 176.188ZM1138.65 177.594C1136.42 179.364 1137.83 185.528 1142.87 184.625C1147.11 183.866 1141.62 175.243 1138.65 177.594ZM1107.72 179C1107.37 179.066 1102.58 183.295 1103.5 184.625C1108.95 186.578 1114.92 177.62 1107.72 179ZM1121.78 187.438C1121.04 187.325 1114.09 193.347 1116.15 195.875C1119.2 196.49 1128.18 188.404 1121.78 187.438ZM1110.53 188.844C1110.04 188.966 1102.87 195.14 1104.9 197.281C1109.62 196.4 1111.91 193.393 1114.04 189.547C1113.46 188.551 1111.51 188.6 1110.53 188.844ZM1128.81 188.844C1125.11 190.897 1135.44 196.09 1135.84 197.281C1137.13 194.611 1131.73 187.228 1128.81 188.844ZM1121.78 198.688C1121.33 198.655 1113.66 202.965 1116.15 205.719C1123.36 208.327 1127.93 199.123 1121.78 198.688ZM1131.62 198.688C1127.81 201.454 1134.92 207.962 1138.65 207.125L1131.62 198.688ZM1144.28 198.688C1137.29 198.166 1144.61 205.837 1148.5 207.125C1152.69 205.591 1145.6 198.786 1144.28 198.688ZM1109.12 200.094C1105.61 200.365 1100.78 208.325 1104.9 208.531C1106.54 208.613 1117.91 199.416 1109.12 200.094ZM1113.34 209.938L1101.39 217.672C1101.74 222.695 1116.67 213.999 1113.34 209.938ZM1121.78 209.938C1121.27 209.978 1114.29 216.072 1116.15 218.375C1119.26 219.76 1127.37 209.485 1121.78 209.938ZM1128.81 209.938C1123.48 213.493 1141.3 222.442 1142.17 220.484C1138.26 215.343 1136.65 208.959 1128.81 209.938ZM1142.87 209.938C1139.84 212.031 1145.56 218.645 1148.5 216.969C1150.67 215.73 1145.89 207.856 1142.87 209.938ZM1120.37 221.188C1119.68 221.095 1112.03 230.389 1111.94 232.438C1122.5 237.428 1125.96 221.929 1120.37 221.188ZM1110.53 222.594L1102.09 232.438C1105.25 234.496 1114.31 226 1110.53 222.594ZM1127.4 222.594C1124.86 228.364 1127.29 234.884 1134.44 232.438C1138.33 231.106 1130.37 224.79 1127.4 222.594ZM1137.25 224L1142.17 231.734C1150.77 232.748 1141.92 224.548 1137.25 224Z" fill="#2C5031"/>
<path d="M1245.16 66.4999C1248.56 65.7011 1248.67 68.013 1250.09 70.0155C1257.53 80.537 1260.54 104.207 1271.18 112.203C1268.44 117.212 1264.46 114.276 1259.93 115.015L1275.4 131.89C1275.52 138.451 1265.99 132.618 1265.55 136.109L1266.26 142.437C1262.73 141.276 1261.51 133.302 1257.12 138.922C1263.24 149.487 1287.7 158.969 1261.34 158.609C1282.35 164.743 1264.56 159.819 1273.99 175.484L1270.48 176.187L1266.26 170.562C1256.78 180.596 1281.01 179.966 1281.02 182.515L1264.15 186.734C1272.3 192.126 1276.92 201.327 1281.02 210.64H1261.34L1275.4 213.453L1266.96 217.672C1270.38 217.758 1278.33 229.83 1276.8 231.734H1248.68L1246.57 269C1238.07 246.099 1258.93 225.313 1221.26 231.031C1215.6 229.145 1228.26 222.608 1226.18 217.672C1224.71 214.179 1219.34 216.205 1218.45 215.562C1215.84 213.689 1219.29 210.842 1219.15 210.64C1217.83 208.84 1213.55 207.573 1213.52 206.422C1213.49 204.924 1237.97 187.544 1229.7 184.625C1201.4 184.787 1218.84 180.188 1220.55 174.078C1220.75 173.388 1215.37 163.358 1217.74 160.015C1220.91 155.563 1230.81 165.963 1233.21 158.609L1217.74 157.203C1215.17 152.585 1227.37 153.557 1227.59 148.765C1227.61 148.292 1224.72 146.38 1224.77 145.953C1226.11 136.125 1231.34 138.854 1220.55 131.89C1220.56 129.22 1237.79 126.036 1236.02 117.828C1235.87 117.125 1224.67 115.264 1224.77 110.797C1224.87 106.914 1250.82 105.346 1228.99 103.765L1245.16 66.4999ZM1246.57 79.1561L1247.27 81.2655L1247.98 81.9686L1248.68 79.8592L1246.57 79.1561ZM1242.35 84.7811C1241.48 84.857 1238.99 88.135 1240.95 88.9999C1243.95 90.3302 1245.03 84.5463 1242.35 84.7811ZM1250.79 84.7811C1248.66 85.2058 1251.65 89.2642 1252.2 88.9999C1253.56 88.3459 1253.63 84.2144 1250.79 84.7811ZM1246.57 91.8124C1243.81 92.2694 1244.66 96.5809 1247.98 96.0311C1250.73 95.5741 1249.88 91.2625 1246.57 91.8124ZM1240.95 97.4374C1240.02 97.5583 1237.61 100.8 1239.54 101.656C1241.9 102.701 1245.28 96.8749 1240.95 97.4374ZM1250.79 98.8436C1252.14 104.311 1256.49 111.513 1262.74 107.984L1250.79 98.8436ZM1246.57 103.062C1243 102.392 1242.91 111.968 1247.98 108.687C1249.85 107.477 1248.13 103.355 1246.57 103.062ZM1239.54 111.5C1238.61 111.621 1236.2 114.862 1238.13 115.719C1240.49 116.763 1243.87 110.937 1239.54 111.5ZM1250.79 112.906C1247.76 113.488 1249.31 117.912 1252.2 117.125C1254.57 116.477 1255.97 111.91 1250.79 112.906ZM1245.16 117.125C1242.45 117.482 1242.45 123.799 1245.16 124.156C1248.52 124.596 1248.52 116.685 1245.16 117.125ZM1256.41 117.125C1251.92 117.28 1253.82 125.433 1257.82 124.156C1261.02 123.135 1260.74 116.977 1256.41 117.125ZM1239.54 124.156C1236.86 123.921 1237.94 129.705 1240.95 128.375C1242.9 127.51 1240.41 124.232 1239.54 124.156ZM1250.79 124.156C1248.09 124.124 1245.7 131.529 1252.2 129.781C1256.08 128.736 1251.69 124.167 1250.79 124.156ZM1262.04 125.562C1258.93 127.658 1263.63 131.328 1266.26 131.187C1268.39 128.746 1263.09 124.855 1262.04 125.562ZM1245.16 131.187C1243.81 131.251 1241.78 135.715 1243.76 136.812C1246.8 138.498 1248.44 131.035 1245.16 131.187ZM1255.01 132.594C1250.49 135.663 1259.59 135.63 1258.52 133.297C1258.1 132.371 1255.5 132.26 1255.01 132.594ZM1238.13 138.219C1235.34 138.685 1236.75 144.336 1239.54 143.844C1241.63 143.474 1243.9 137.255 1238.13 138.219ZM1247.98 139.625C1245.96 140.514 1248.67 143.866 1249.38 143.844C1251.79 143.769 1252.63 137.57 1247.98 139.625ZM1243.76 143.844C1242.43 144.01 1241.41 149.76 1243.76 149.469C1245.64 149.235 1247.63 143.363 1243.76 143.844ZM1253.6 143.844C1250.81 144.31 1252.22 149.961 1255.01 149.469C1257.1 149.099 1259.37 142.88 1253.6 143.844ZM1232.51 145.25C1231.45 145.625 1229.14 148.605 1231.1 149.469C1233.54 150.543 1238.77 143.018 1232.51 145.25ZM1236.73 150.875C1236.58 150.896 1234.56 152.848 1234.62 152.984C1236.27 156.712 1242.01 150.128 1236.73 150.875ZM1246.57 150.875C1243.55 153.069 1248.98 155.167 1250.09 152.984C1251.1 150.98 1247.6 150.128 1246.57 150.875ZM1259.23 150.875C1256.94 151.27 1257.18 154.853 1259.23 155.094C1264.02 155.658 1265.73 149.753 1259.23 150.875ZM1240.95 156.5C1238.93 157.389 1241.64 160.741 1242.35 160.719C1244.75 160.644 1245.6 154.445 1240.95 156.5ZM1252.2 156.5C1248.31 157.481 1252.48 162.706 1255.01 162.125C1258.49 161.326 1257.21 155.231 1252.2 156.5ZM1235.32 162.125C1233.2 162.427 1230.01 168.36 1233.91 169.156C1237.44 169.875 1240.68 161.361 1235.32 162.125ZM1246.57 162.125C1242.11 163.559 1246.04 170.541 1247.98 170.562C1252.63 170.614 1251.14 160.654 1246.57 162.125ZM1224.07 163.531C1223.2 163.607 1220.71 166.885 1222.66 167.75C1225.67 169.08 1226.75 163.296 1224.07 163.531ZM1257.82 163.531C1254.98 165.393 1260.03 170.662 1260.63 170.562C1265.02 169.837 1261.79 160.931 1257.82 163.531ZM1239.54 170.562C1237.67 171.773 1239.38 175.895 1240.95 176.187C1244.52 176.858 1244.61 167.282 1239.54 170.562ZM1253.6 170.562C1251.92 170.932 1251.02 177.253 1255.01 176.187C1258.38 175.286 1256.98 169.82 1253.6 170.562ZM1233.91 176.187C1230.88 176.529 1228.45 182.538 1236.73 180.406C1238.65 178.38 1235.93 175.96 1233.91 176.187ZM1247.98 176.187C1245.82 176.616 1243.66 182.767 1249.38 181.812C1253.41 181.14 1248.69 176.045 1247.98 176.187ZM1259.23 177.594C1258.92 177.632 1256.43 179.679 1257.82 180.406C1262.62 182.913 1264.11 176.98 1259.23 177.594ZM1240.95 183.219C1240.74 183.203 1238.79 184.488 1239.54 186.031C1241.09 189.219 1245.72 183.59 1240.95 183.219ZM1253.6 183.219C1250.31 183.951 1251.55 189.611 1255.01 188.844C1258.3 188.111 1257.06 182.451 1253.6 183.219ZM1246.57 188.844C1243.08 189.701 1244.26 196.788 1247.98 195.875C1251.47 195.017 1250.29 187.931 1246.57 188.844ZM1260.63 188.844C1251.78 188.831 1264.87 205.276 1270.48 204.312C1270.88 201.608 1261.55 188.845 1260.63 188.844ZM1235.32 190.25C1234.88 190.27 1232.54 192.716 1233.21 193.765C1235.74 197.733 1240.56 190.022 1235.32 190.25ZM1239.54 195.875C1235.5 197.152 1237.59 204.639 1242.35 202.906C1245.63 201.715 1242.76 194.858 1239.54 195.875ZM1228.29 197.281C1226.52 197.897 1225.04 201.842 1226.88 202.906C1229.5 204.422 1235.13 194.895 1228.29 197.281ZM1252.2 197.281C1248.33 197.6 1252.55 203.021 1253.6 202.906C1256.25 202.615 1256.46 196.93 1252.2 197.281ZM1246.57 204.312L1247.98 205.719C1250.75 205.941 1250.75 204.09 1247.98 204.312H1246.57ZM1228.29 208.531C1225.66 209.178 1225.79 213.626 1228.29 214.156C1232.87 215.129 1236.72 206.46 1228.29 208.531ZM1240.95 208.531C1238.57 209.179 1237.17 213.745 1242.35 212.75C1245.38 212.168 1243.83 207.744 1240.95 208.531ZM1250.79 209.937C1248.67 211.913 1252.35 214.962 1253.6 214.156C1255.72 212.792 1254.29 208.623 1250.79 209.937ZM1235.32 215.562C1233.57 216.13 1232.08 220.126 1233.91 221.187C1236.91 222.921 1240.78 213.795 1235.32 215.562ZM1246.57 215.562C1243.81 216.019 1244.66 220.331 1247.98 219.781C1250.73 219.324 1249.88 215.013 1246.57 215.562ZM1259.23 215.562C1259.02 215.555 1256.97 217.448 1255.71 217.672C1257.11 223.757 1261.52 227.012 1267.66 228.219C1271.27 226.296 1260.02 215.588 1259.23 215.562ZM1240.95 221.187C1237.06 222.159 1237.19 230.85 1242.35 228.219C1243.64 227.56 1245.22 220.12 1240.95 221.187ZM1229.7 222.594C1229.45 222.544 1225.71 225.776 1226.88 226.812C1232.62 228.577 1232.92 223.229 1229.7 222.594ZM1252.2 222.594C1248.89 223.309 1249.35 228.558 1255.01 226.812C1255.51 225.388 1254.23 222.152 1252.2 222.594Z" fill="#98BD99"/>
<path d="M1368.66 155.094C1371.92 154.053 1391.83 193.434 1372.88 177.594L1369.37 181.109C1373.13 186.654 1386.44 180.564 1387.65 186.734C1388.13 189.188 1384.36 189.895 1384.84 192.359C1385.36 195.066 1397.65 195.984 1384.84 202.203L1394.68 210.64L1384.84 212.047C1389.16 220.303 1394.41 216.095 1396.79 216.969C1399.51 217.967 1396.2 228.159 1403.12 230.328L1370.77 233.14L1368.66 269L1366.55 234.547L1337.02 231.734C1346.34 227.527 1339.09 222.691 1339.84 220.484C1342.75 211.827 1349.02 207.767 1355.3 200.797H1349.68C1349.13 183.953 1358.9 187.866 1366.55 179.703L1360.23 181.812C1358.14 179.931 1368.59 160.487 1368.66 155.094ZM1370.07 164.937C1367.59 169.444 1368.09 173.295 1374.29 173.375L1370.07 164.937ZM1364.45 187.437C1363.95 187.404 1355.87 192.671 1356.71 193.765C1361.28 199.715 1370.16 187.824 1364.45 187.437ZM1371.48 187.437V193.062L1380.62 192.359L1371.48 187.437ZM1371.48 197.281C1368.53 198.44 1368.45 204.279 1371.48 205.719L1382.02 205.015C1381.46 201.895 1373.18 196.61 1371.48 197.281ZM1361.63 198.687C1354.6 200.483 1357.76 211.673 1364.45 207.125C1365.71 206.261 1367.9 197.087 1361.63 198.687ZM1371.48 209.937V216.969L1382.02 216.265C1382.67 212.473 1374.5 209.904 1371.48 209.937ZM1350.38 211.344L1347.57 216.969C1352.12 218.574 1354.75 210.884 1350.38 211.344ZM1360.23 211.344C1351.74 212.814 1355.08 222.144 1364.45 218.375C1366.59 217.513 1367.43 210.095 1360.23 211.344ZM1363.04 221.187C1362.56 221.033 1353.98 225.859 1355.3 227.515C1359.42 232.644 1371.33 223.897 1363.04 221.187ZM1371.48 221.187C1366.04 225.362 1377.7 232.423 1382.02 226.109C1382.03 225.459 1372.48 220.415 1371.48 221.187ZM1385.54 221.187C1379.47 222.453 1390.83 231.34 1396.09 226.109C1394.37 223.465 1388.23 220.628 1385.54 221.187ZM1347.57 222.594C1339.02 225.447 1349.24 234.066 1353.9 223.297C1352.61 222.354 1348.79 222.187 1347.57 222.594Z" fill="#37643C"/>
</g>
</svg>
