<svg width="32" height="28" viewBox="0 0 32 28" fill="none" xmlns="http://www.w3.org/2000/svg">
<path d="M30.9417 19.2241C30.4346 15.7514 28.1216 13.7762 24.7277 13.8214C23.4988 12.3075 21.9048 8.72819 25.3597 1.91667C18.6811 6.64688 12.1678 26.9234 25.3597 26.0965C28.5713 25.8951 31.4487 22.6967 30.9417 19.2241Z" fill="#5E8C61"/>
<path d="M14.0432 21.0011C14.0557 17.4915 12.0607 15.1943 8.69761 14.7344C7.70642 13.0546 6.92946 7.23525 11.3543 1.0127C4.04949 4.69772 -5.6626 25.8243 7.50581 26.9676C10.7117 27.246 14.0307 24.5107 14.0432 21.0011Z" fill="#5E8C61"/>
<path d="M30.9417 19.2241C30.4346 15.7514 28.1216 13.7762 24.7277 13.8214C23.4988 12.3075 21.9048 8.72819 25.3597 1.91667C18.6811 6.64688 12.1678 26.9234 25.3597 26.0965C28.5713 25.8951 31.4487 22.6967 30.9417 19.2241Z" stroke="#5E8C61" stroke-width="1.91693"/>
<path d="M14.0432 21.0011C14.0557 17.4915 12.0607 15.1943 8.69761 14.7344C7.70642 13.0546 6.92946 7.23525 11.3543 1.0127C4.04949 4.69772 -5.6626 25.8243 7.50581 26.9676C10.7117 27.246 14.0307 24.5107 14.0432 21.0011Z" stroke="#5E8C61" stroke-width="1.91693"/>
</svg>
