<svg width="390" height="303" viewBox="0 0 390 303" fill="none" xmlns="http://www.w3.org/2000/svg">
<g clip-path="url(#clip0_1269_7656)">
<path d="M163.293 267.603C226.69 267.603 278.084 216.836 278.084 154.212C278.084 91.587 226.69 40.8198 163.293 40.8198C99.895 40.8198 48.501 91.587 48.501 154.212C48.501 216.836 99.895 267.603 163.293 267.603Z" fill="#F6EDDE"/>
<path d="M116.427 252.441C116.893 245.316 116.956 238.159 116.61 231.026L121.364 231.972C121.248 238.768 121.693 245.575 122.698 252.301" fill="#C68148"/>
<path d="M568.917 310.408C463.096 266.912 336.833 256.902 226.417 251.552C123.487 246.563 13.8542 257.886 -76.0833 287.359C-91.6 292.443 -79.2708 291.702 -93.1667 298.472C-103.467 303.489 -93.8042 308.758 -104 314.524" fill="url(#paint0_linear_1269_7656)"/>
<path d="M281.04 309.26C251.598 304.115 197.56 291.689 167.735 282.313C154.215 278.066 146.485 274.493 146.902 272.024C147.352 269.344 157.735 265.027 158.985 263.792C167.744 255.14 139.181 252.852 133.985 251.856L125.544 252.412C129.544 253.395 133.477 254.638 137.31 256.132C139.585 257.021 142.285 258.948 141.435 261.215C141.048 262.244 140.019 262.878 139.052 263.417C134.29 266.076 115.235 267.908 117.319 276.14C120.965 290.541 165.798 302.16 189.802 304.588L281.04 309.26Z" fill="white"/>
<path d="M282.18 308.976C275.03 307.725 267.909 306.326 260.805 304.864C252.392 303.132 244.001 301.3 235.63 299.394C226.859 297.398 218.105 295.32 209.376 293.147C201.142 291.097 192.934 288.969 184.759 286.697C176.942 284.528 169.117 282.293 161.48 279.568C157.959 278.313 154.351 277 151.13 275.082C150.305 274.588 149.38 274.028 148.797 273.246C148.63 273.024 148.517 272.786 148.488 272.604C148.476 272.522 148.476 272.481 148.517 272.345C148.58 272.16 148.688 271.991 148.805 271.835C149.559 270.839 150.763 270.118 151.809 269.46C153.201 268.587 154.651 267.809 156.101 267.036C158.067 265.99 160.238 265.138 161.501 263.224C164.072 259.339 159.255 256.816 156.176 255.692C151.155 253.861 145.73 253.091 140.455 252.346C138.692 252.095 136.922 251.778 135.155 251.572C134.43 251.49 133.642 251.63 132.913 251.679C131.509 251.77 130.109 251.865 128.705 251.955C127.976 252.005 127.247 252.05 126.517 252.099C125.842 252.145 125.634 253.136 126.351 253.313C129.851 254.178 133.297 255.231 136.676 256.487C138.459 257.149 143.709 259.244 141.438 261.936C140.401 263.167 138.58 263.751 137.08 264.229C135.372 264.772 133.638 265.225 131.913 265.706C128.301 266.719 124.492 267.748 121.292 269.752C118.684 271.382 116.838 273.868 117.801 277.012C118.626 279.7 120.601 281.923 122.709 283.734C125.588 286.207 128.913 288.146 132.305 289.85C140.934 294.18 150.267 297.16 159.592 299.629C168.867 302.082 178.317 304.017 187.851 305.19C188.826 305.309 189.801 305.42 190.776 305.519C191.576 305.601 191.567 304.366 190.776 304.284C181.501 303.337 172.297 301.539 163.259 299.296C153.705 296.925 144.155 294.04 135.226 289.891C131.642 288.228 128.101 286.347 124.951 283.96C122.688 282.244 120.413 280.136 119.292 277.486C118.788 276.292 118.53 274.975 119.067 273.744C119.647 272.411 120.892 271.452 122.113 270.711C125.359 268.744 129.18 267.756 132.813 266.748C134.476 266.287 136.151 265.846 137.792 265.307C139.351 264.793 141.08 264.142 142.226 262.932C144.147 260.911 142.817 258.503 140.876 257.125C139.663 256.264 138.255 255.766 136.867 255.252C135.18 254.626 133.472 254.054 131.751 253.527C130.076 253.017 128.388 252.556 126.688 252.132C126.634 252.535 126.576 252.939 126.522 253.346C128.676 253.206 130.83 253.062 132.988 252.922C133.497 252.889 134.001 252.857 134.509 252.824C134.626 252.815 134.747 252.803 134.867 252.799C135.08 252.795 134.738 252.77 134.98 252.803C135.742 252.902 136.505 253.042 137.267 253.149C142.359 253.861 147.484 254.532 152.459 255.845C154.709 256.437 157.047 257.133 159.022 258.388C160.226 259.158 161.367 260.302 160.859 261.771C160.176 263.735 158.176 264.541 156.455 265.451C153.801 266.859 150.93 268.209 148.663 270.209C147.984 270.806 147.222 271.608 147.238 272.571C147.251 273.321 147.734 273.979 148.242 274.489C150.163 276.42 153.03 277.548 155.501 278.589C163.159 281.812 171.217 284.129 179.205 286.417C187.076 288.677 194.992 290.78 202.926 292.801C211.605 295.011 220.313 297.123 229.038 299.148C237.542 301.123 246.063 303.025 254.605 304.832C262.101 306.416 269.617 307.939 277.155 309.326C278.722 309.614 280.284 309.894 281.851 310.17C282.634 310.306 282.972 309.116 282.18 308.976Z" fill="#244029"/>
<path d="M119.213 252.387C119.68 245.258 119.738 238.109 119.397 230.972C119.134 231.169 118.868 231.367 118.605 231.569C120.188 231.886 121.776 232.198 123.359 232.515C123.205 232.318 123.055 232.12 122.901 231.919C122.788 238.776 123.251 245.628 124.259 252.411C124.376 253.193 125.58 252.86 125.463 252.082C124.472 245.41 124.043 238.66 124.151 231.919C124.155 231.663 123.955 231.375 123.693 231.322C122.109 231.005 120.522 230.692 118.938 230.375C118.559 230.301 118.126 230.544 118.147 230.972C118.488 238.109 118.426 245.258 117.963 252.387C117.913 253.177 119.163 253.177 119.213 252.387Z" fill="#244029"/>
<path d="M240.857 200.931C255.932 189.999 276.653 192.444 295.116 195.383C311.22 197.947 327.32 200.507 343.424 203.071C355.907 205.059 368.47 207.064 380.403 211.2C380.153 215.485 374.332 216.608 369.991 216.489C321.57 215.172 273.153 213.855 224.732 212.538C229.316 208.051 235.278 204.969 241.62 203.804L240.857 200.931Z" fill="white"/>
<path d="M491.166 282.28C456.183 275.749 421.075 269.859 385.812 264.969C350.95 260.133 315.941 256.268 280.829 253.712C245.554 251.148 210.175 249.905 174.804 250.333C139.875 250.757 104.954 252.799 70.2497 256.779C36.0497 260.701 2.05806 266.496 -31.4044 274.518C-35.5211 275.506 -39.6294 276.526 -43.7294 277.58C-44.5086 277.778 -44.1794 278.971 -43.3961 278.77C-9.87528 270.172 24.2122 263.813 58.5581 259.429C92.8497 255.054 127.383 252.617 161.95 251.798C196.875 250.971 231.829 251.811 266.691 253.992C302.129 256.206 337.471 259.804 372.662 264.43C407.912 269.064 443.016 274.74 477.987 281.103C482.271 281.881 486.554 282.676 490.833 283.474C491.621 283.618 491.958 282.429 491.166 282.28Z" fill="#244029"/>
<path d="M33.0984 97.31C56.7609 97.5569 80.39 100.915 103.161 107.27C94.7484 108.25 86.2442 108.114 77.7734 107.974C57.0275 107.633 36.2817 107.287 15.5359 106.945C14.1609 106.921 12.7234 106.883 11.5234 106.217C10.3275 105.55 9.49004 104.035 10.065 102.805C10.5484 101.767 11.7775 101.323 12.8859 101.002C18.6317 99.3515 24.565 98.339 30.54 97.985L33.0984 97.31Z" fill="white"/>
<path d="M247.526 200.931C262.601 189.999 283.322 192.444 301.785 195.383C317.889 197.947 333.989 200.507 350.093 203.071C362.576 205.059 375.139 207.064 387.072 211.2C386.822 215.485 381.001 216.608 376.66 216.489C328.239 215.172 279.822 213.855 231.401 212.538C235.985 208.051 241.947 204.969 248.289 203.804L247.526 200.931Z" fill="#B8D8D7"/>
<path d="M26.4367 97.7214C50.0992 97.9684 73.7284 101.327 96.4993 107.682C88.0868 108.661 79.5826 108.526 71.1118 108.386C50.3659 108.044 29.6201 107.698 8.87425 107.357C7.49925 107.332 6.06175 107.295 4.86175 106.628C3.66592 105.961 2.82842 104.447 3.40342 103.216C3.88675 102.179 5.11592 101.734 6.22425 101.413C11.9701 99.7629 17.9034 98.7504 23.8784 98.3964L26.4367 97.7214Z" fill="#B8D8D7"/>
<path d="M26.434 98.3383C35.659 98.4371 44.8757 99.0051 54.0424 100.038C63.184 101.071 72.2757 102.574 81.259 104.533C86.3174 105.636 91.3424 106.883 96.3299 108.274C96.384 107.871 96.4424 107.467 96.4965 107.06C88.3424 108.002 80.1215 107.912 71.9299 107.776C63.5715 107.64 55.2174 107.5 46.859 107.36C38.534 107.224 30.2049 107.085 21.8799 106.949C17.684 106.879 13.484 106.809 9.28819 106.739C7.65486 106.71 5.53403 106.817 4.3882 105.434C3.95903 104.911 3.6757 104.162 3.94653 103.508C4.2132 102.866 4.9257 102.504 5.54653 102.273C7.3007 101.623 9.19653 101.228 11.0215 100.82C12.9674 100.384 14.9299 100.018 16.9007 99.7254C18.884 99.429 20.8799 99.215 22.8799 99.071C23.3924 99.0339 23.8882 99.0216 24.3882 98.894C24.8424 98.7746 25.3007 98.6553 25.7549 98.5359C26.034 98.4618 26.3174 98.3877 26.5965 98.3136C27.3715 98.1079 27.0424 96.9184 26.2632 97.1242C25.5049 97.3258 24.7465 97.5234 23.984 97.7251C23.3757 97.8856 22.709 97.8527 22.0799 97.9021C21.0507 97.9844 20.0257 98.0914 19.0049 98.2107C14.9215 98.7005 10.8757 99.4825 6.9132 100.573C5.44236 100.977 3.57569 101.401 2.85486 102.903C2.15486 104.356 2.93403 106.019 4.16736 106.92C5.67153 108.023 7.71319 107.957 9.48819 107.986C11.6382 108.023 13.7882 108.056 15.9424 108.093C24.5799 108.237 33.2174 108.377 41.859 108.521C50.4965 108.665 59.134 108.805 67.7757 108.949C76.2924 109.089 84.8382 109.344 93.334 108.62C94.3882 108.529 95.4424 108.422 96.4924 108.303C97.1549 108.225 97.3882 107.294 96.659 107.089C87.7465 104.607 78.709 102.578 69.584 101.014C60.4715 99.4537 51.2799 98.3507 42.0549 97.721C36.8549 97.367 31.6424 97.1612 26.4257 97.1036C25.6299 97.0954 25.6299 98.3301 26.434 98.3383Z" fill="#B8D8D7"/>
<path d="M187.892 118.976C184.054 122.799 181.567 127.788 180.542 133.056C180.892 132.966 181.238 132.875 181.588 132.784C178.179 129.907 173.679 128.249 169.175 128.8C168.388 128.895 168.379 130.134 169.175 130.035C173.35 129.525 177.534 130.982 180.704 133.661C181.029 133.937 181.654 133.879 181.75 133.389C182.738 128.323 185.084 123.536 188.779 119.857C189.342 119.284 188.459 118.412 187.892 118.976Z" fill="#244029"/>
<path d="M236.791 148.742C231.837 150.047 227.254 152.673 223.658 156.286C223.229 156.719 222.812 157.163 222.412 157.624C222.066 158.023 221.637 158.748 221.021 158.599C220.446 158.464 219.983 157.892 219.554 157.529C219.058 157.11 218.541 156.719 218.008 156.352C216.004 154.982 213.7 154.006 211.321 153.488C208.55 152.883 205.675 152.883 202.908 153.516C202.125 153.698 202.458 154.887 203.241 154.706C208.129 153.582 213.416 154.657 217.508 157.509C217.996 157.85 218.462 158.221 218.912 158.612C219.404 159.044 219.9 159.517 220.537 159.74C221.904 160.213 222.716 159.139 223.516 158.246C225.179 156.385 227.096 154.751 229.204 153.401C231.646 151.841 234.316 150.672 237.125 149.932C237.9 149.73 237.571 148.536 236.791 148.742Z" fill="#244029"/>
<path d="M210.954 135.579C209.079 135.933 207.259 136.513 205.529 137.312C205.113 137.505 204.625 137.847 204.146 137.727C203.642 137.604 203.142 137.266 202.679 137.04C201.746 136.587 200.813 136.135 199.879 135.682C199.371 135.435 198.921 136.188 199.434 136.439C200.463 136.937 201.488 137.435 202.517 137.929C203.429 138.369 204.175 138.843 205.196 138.427C206.146 138.04 207.05 137.579 208.025 137.246C209.059 136.892 210.121 136.62 211.196 136.414C211.746 136.316 211.509 135.472 210.954 135.579Z" fill="#244029"/>
<path d="M171.896 144.441C169.275 146.165 166.905 148.232 164.863 150.602C165.159 150.602 165.45 150.602 165.746 150.602C163.838 148.767 161.13 147.836 158.48 148.178C158.142 148.223 157.859 148.429 157.855 148.795C157.85 149.096 158.146 149.454 158.48 149.413C160.817 149.112 163.167 149.845 164.863 151.475C165.092 151.693 165.525 151.734 165.746 151.475C167.717 149.182 169.992 147.174 172.525 145.507C173.196 145.071 172.571 144 171.896 144.441Z" fill="#244029"/>
<path d="M193.488 164.263C192.196 164.259 190.921 164.769 190.009 165.679C189.792 165.897 189.613 166.139 189.43 166.382C189.2 166.687 189.063 166.72 188.713 166.555C187.967 166.201 187.234 165.814 186.496 165.444C185.988 165.189 185.542 165.946 186.05 166.201C186.809 166.58 187.559 166.975 188.321 167.341C189.034 167.683 189.625 167.576 190.105 166.946C190.505 166.423 190.913 165.975 191.5 165.646C192.109 165.304 192.788 165.135 193.484 165.139C194.059 165.139 194.059 164.267 193.488 164.263Z" fill="#244029"/>
<path d="M132.942 141.259C136.205 164.419 139.471 187.887 136.634 211.101C136.105 215.431 135.33 219.839 133.163 223.642C130.996 227.445 127.192 230.581 122.788 230.906C115.684 231.433 110.142 224.873 107.267 218.435C102.101 206.866 101.267 193.806 102.434 181.212C103.596 168.617 106.663 156.286 109.009 143.856C113.609 119.478 115.455 94.5893 114.501 69.8077C114.442 68.2602 114.43 66.5397 115.484 65.3914C117.017 63.7204 120.013 64.3707 121.48 66.0952C122.946 67.8198 123.301 70.1905 123.596 72.4254C127.33 100.57 131.059 128.714 134.792 156.854" fill="white"/>
<path d="M129.352 141.617C132.614 164.777 135.881 188.245 133.044 211.459C132.514 215.789 131.739 220.197 129.573 224C127.406 227.803 123.602 230.939 119.198 231.264C112.094 231.791 106.552 225.23 103.677 218.793C98.5102 207.223 97.6769 194.164 98.8435 181.569C100.006 168.975 103.073 156.644 105.419 144.214C110.019 119.836 111.864 94.9471 110.91 70.1655C110.852 68.618 110.839 66.8975 111.894 65.7492C113.427 64.0782 116.423 64.7285 117.889 66.453C119.356 68.1776 119.71 70.5483 120.006 72.7832C123.739 100.927 129.352 141.617 129.352 141.617Z" fill="#5D8C60"/>
<path d="M135.602 157.377C133.752 143.416 131.898 129.451 130.048 115.49C128.21 101.636 126.373 87.7821 124.535 73.9281C124.181 71.2693 123.952 68.31 122.102 66.1821C120.719 64.5893 118.127 63.7496 116.16 64.7621C113.652 66.0545 114.019 69.2937 114.102 71.6233C114.223 75.0723 114.285 78.5214 114.298 81.9705C114.344 95.7175 113.527 109.469 111.864 123.117C111.027 129.965 109.973 136.79 108.706 143.577C107.444 150.327 105.964 157.035 104.673 163.777C102.231 176.54 100.485 189.608 102.264 202.573C103.094 208.64 104.669 214.723 107.373 220.255C109.544 224.696 112.914 229.162 117.639 231.137C122.556 233.195 127.839 231.532 131.41 227.799C135.569 223.449 136.744 217.353 137.444 211.62C138.748 200.943 138.527 190.082 137.839 179.368C137.385 172.314 136.702 165.267 135.731 158.262C135.681 157.912 135.635 157.562 135.581 157.212C135.464 156.43 134.26 156.764 134.377 157.542C135.085 162.258 135.581 167.041 136.006 171.803C136.902 181.792 137.385 191.86 136.964 201.886C136.735 207.364 136.398 213.032 134.985 218.353C133.619 223.506 130.489 228.832 124.994 230.438C119.848 231.94 115.119 228.968 111.956 225.153C108.352 220.806 106.344 215.254 104.956 209.871C101.831 197.766 102.469 185.06 104.36 172.82C106.369 159.814 109.585 147.03 111.606 134.024C113.635 120.968 114.889 107.793 115.352 94.5897C115.585 87.9632 115.614 81.3284 115.448 74.6978C115.406 73.1173 115.339 71.5409 115.298 69.9646C115.264 68.7051 115.248 67.137 116.256 66.2027C117.119 65.4083 118.419 65.4454 119.46 65.8323C120.66 66.2809 121.485 67.2152 122.031 68.3347C122.635 69.5777 122.877 70.9771 123.073 72.3353C123.314 74.0105 123.519 75.6897 123.744 77.3649C124.185 80.6905 124.627 84.0202 125.069 87.3458C125.956 94.0547 126.848 100.764 127.735 107.472C129.506 120.837 131.277 134.197 133.052 147.561C133.485 150.833 133.919 154.105 134.352 157.377C134.456 158.151 135.706 158.163 135.602 157.377Z" fill="#244029"/>
<path d="M215.763 278.087C214.567 275.786 213.522 273.419 212.63 270.987C212.513 270.674 212.205 270.464 211.859 270.555C211.551 270.637 211.309 270.999 211.422 271.316C212.347 273.847 213.438 276.317 214.68 278.712C215.055 279.416 216.134 278.79 215.763 278.087Z" fill="#5D8C60"/>
<path d="M220.303 277.288C220.057 276.07 220.057 274.749 220.303 273.526C220.366 273.209 220.212 272.843 219.866 272.765C219.557 272.695 219.166 272.855 219.095 273.197C218.799 274.662 218.799 276.148 219.095 277.613C219.162 277.943 219.557 278.128 219.866 278.045C220.216 277.951 220.37 277.613 220.303 277.288Z" fill="#5D8C60"/>
<path d="M223.495 276.991C223.603 276.361 223.707 275.732 223.815 275.098C223.845 274.929 223.845 274.773 223.753 274.62C223.678 274.493 223.528 274.369 223.378 274.336C223.22 274.299 223.036 274.308 222.895 274.398C222.765 274.481 222.632 274.612 222.607 274.769C222.499 275.398 222.395 276.028 222.286 276.662C222.257 276.831 222.257 276.987 222.349 277.139C222.424 277.267 222.574 277.39 222.724 277.423C222.882 277.46 223.065 277.452 223.207 277.362C223.336 277.279 223.47 277.148 223.495 276.991Z" fill="#5D8C60"/>
<path d="M210.031 278.708C209.498 277.765 208.96 276.819 208.427 275.876C208.268 275.592 207.852 275.477 207.573 275.654C207.285 275.839 207.177 276.197 207.348 276.498C207.881 277.44 208.418 278.387 208.952 279.329C209.11 279.613 209.527 279.729 209.806 279.552C210.093 279.367 210.202 279.008 210.031 278.708Z" fill="#5D8C60"/>
<path d="M260.829 284.877C260.179 283.305 259.529 281.737 258.875 280.165C258.746 279.856 258.458 279.638 258.104 279.733C257.808 279.815 257.537 280.181 257.666 280.494C258.316 282.066 258.966 283.634 259.621 285.207C259.75 285.515 260.037 285.733 260.391 285.639C260.687 285.556 260.954 285.19 260.829 284.877Z" fill="#5D8C60"/>
<path d="M264.357 285.17C264.365 285.215 264.361 285.199 264.353 285.12C264.348 285.083 264.344 285.05 264.34 285.013C264.332 284.943 264.323 284.869 264.319 284.799C264.307 284.643 264.294 284.487 264.29 284.33C264.278 284.03 264.282 283.729 264.294 283.429C264.328 282.811 264.403 282.313 264.548 281.7C264.623 281.387 264.448 281.017 264.111 280.939C263.79 280.865 263.423 281.033 263.34 281.371C263.011 282.733 262.957 284.116 263.148 285.499C263.194 285.82 263.628 286.022 263.919 285.931C264.278 285.812 264.407 285.511 264.357 285.17Z" fill="#5D8C60"/>
<path d="M267.91 285.688C268.118 285.162 268.326 284.635 268.535 284.108C268.589 283.968 268.547 283.758 268.472 283.63C268.397 283.503 268.247 283.379 268.097 283.346C267.939 283.309 267.756 283.318 267.614 283.408C267.468 283.499 267.389 283.618 267.326 283.779C267.118 284.305 266.91 284.832 266.701 285.359C266.647 285.499 266.689 285.709 266.764 285.837C266.839 285.964 266.989 286.088 267.139 286.121C267.297 286.158 267.481 286.149 267.622 286.059C267.768 285.964 267.851 285.845 267.91 285.688Z" fill="#5D8C60"/>
<path d="M316.925 292.274C316.07 290.735 315.454 289.092 315.066 287.38C314.991 287.055 314.612 286.866 314.295 286.948C313.954 287.039 313.787 287.38 313.858 287.709C314.266 289.52 314.937 291.274 315.841 292.9C316.233 293.595 317.312 292.974 316.925 292.274Z" fill="#5D8C60"/>
<path d="M320.805 291.644C320.697 290.805 320.589 289.965 320.48 289.121C320.46 288.952 320.426 288.813 320.297 288.685C320.189 288.578 320.01 288.496 319.855 288.504C319.551 288.516 319.185 288.78 319.23 289.121C319.339 289.961 319.447 290.8 319.555 291.644C319.576 291.813 319.61 291.953 319.739 292.081C319.847 292.188 320.026 292.27 320.18 292.262C320.48 292.249 320.847 291.99 320.805 291.644Z" fill="#5D8C60"/>
<path d="M324.798 292.393C325.223 291.866 325.648 291.343 326.073 290.816C326.181 290.685 326.256 290.557 326.256 290.38C326.256 290.228 326.189 290.047 326.073 289.944C325.952 289.837 325.798 289.755 325.631 289.763C325.477 289.771 325.289 289.82 325.189 289.944C324.764 290.471 324.339 290.993 323.914 291.52C323.806 291.652 323.731 291.78 323.731 291.957C323.731 292.109 323.798 292.29 323.914 292.393C324.035 292.5 324.189 292.582 324.356 292.574C324.514 292.566 324.698 292.516 324.798 292.393Z" fill="#5D8C60"/>
<path d="M55.9496 258.66C53.0455 264.257 50.708 270.143 48.9997 276.206C47.2788 282.297 46.1871 288.561 45.7371 294.871C45.483 298.415 45.4413 301.971 45.6038 305.519C45.6413 306.309 46.8913 306.313 46.8538 305.519C46.5705 299.312 46.9163 293.077 47.908 286.94C48.8955 280.811 50.5038 274.777 52.7038 268.962C53.9538 265.657 55.4038 262.426 57.033 259.285C57.3955 258.577 56.3205 257.952 55.9496 258.66Z" fill="#244029"/>
<path d="M68.1302 245.695C71.576 245.427 75.501 245.32 77.9427 247.736C81.0302 250.786 79.926 255.873 78.6093 259.985C78.4302 260.541 78.1052 261.211 77.5135 261.203C77.1635 261.199 76.876 260.944 76.626 260.701C72.2593 256.466 68.2468 251.173 62.2802 249.827C65.6927 253.387 67.376 258.499 66.7302 263.36C66.4635 265.377 65.1802 267.784 63.1385 267.529C61.301 267.299 60.5385 265.109 60.2427 263.298C59.5052 258.767 59.2052 254.161 59.3552 249.572C58.4843 256.659 52.8093 262.924 45.7718 264.558C45.3802 264.648 44.9677 264.726 44.5802 264.628C43.2968 264.302 43.2218 262.524 43.5552 261.261C44.9552 255.976 48.6593 251.329 53.5302 248.745C49.0343 248.016 45.3302 252.169 40.9552 253.412C39.8677 253.721 38.401 253.679 37.9552 252.655C37.676 252.017 37.9427 251.28 38.2593 250.663C41.2135 244.9 49.1593 242.262 55.0343 245.094C53.3927 244.369 52.051 243.011 51.3593 241.377C51.0927 240.747 50.9427 239.961 51.376 239.43C51.8677 238.825 52.8218 238.891 53.576 239.113C55.8677 239.793 57.8593 241.41 58.9718 243.505C59.1343 241.546 59.9968 239.653 61.376 238.233C61.7385 237.858 62.1593 237.508 62.6677 237.389C63.8927 237.109 65.0218 238.381 65.076 239.62C65.1302 240.859 64.4552 242.007 63.8052 243.069C67.3718 241.093 72.1593 241.55 75.2802 244.164C71.9677 244.913 68.5218 245.094 65.1468 244.695L68.1302 245.695Z" fill="white"/>
<path d="M66.699 245.699C70.1449 245.431 74.0699 245.324 76.5115 247.74C79.599 250.79 78.4949 255.877 77.1782 259.989C76.999 260.545 76.674 261.215 76.0824 261.207C75.7324 261.203 75.4449 260.948 75.1949 260.705C70.8282 256.47 66.8157 251.177 60.849 249.831C64.2615 253.391 65.9449 258.503 65.299 263.36C65.0324 265.377 63.749 267.784 61.7074 267.529C59.8699 267.299 59.1074 265.109 58.8115 263.298C58.074 258.767 57.774 254.161 57.924 249.572C57.0532 256.659 51.3782 262.924 44.3407 264.558C43.949 264.648 43.5365 264.726 43.149 264.628C41.8657 264.302 41.7907 262.524 42.124 261.261C43.524 255.976 47.2282 251.329 52.099 248.744C47.6032 248.016 43.899 252.169 39.524 253.412C38.4365 253.72 36.9699 253.679 36.524 252.654C36.2449 252.017 36.5115 251.28 36.8282 250.662C39.7824 244.9 47.7282 242.262 53.6032 245.094C51.9615 244.369 50.6199 243.011 49.9282 241.377C49.6615 240.747 49.5115 239.961 49.9449 239.43C50.4365 238.825 51.3907 238.891 52.1449 239.113C54.4365 239.792 56.4282 241.41 57.5407 243.505C57.7032 241.546 58.5657 239.653 59.9449 238.233C60.3074 237.858 60.7282 237.508 61.2365 237.389C62.4615 237.109 63.5907 238.381 63.6449 239.62C63.699 240.858 63.024 242.007 62.374 243.069C65.9407 241.093 70.7282 241.55 73.849 244.163C70.5365 244.913 67.0907 245.094 63.7157 244.694L66.699 245.699Z" fill="#F05A7E"/>
<path d="M68.5986 246.082C71.2861 245.876 74.3569 245.654 76.7819 247.045C79.2194 248.444 79.9153 251.14 79.7486 253.758C79.6611 255.141 79.3653 256.507 78.9986 257.841C78.8236 258.487 78.6569 259.162 78.4069 259.788C78.3403 259.956 78.2069 260.343 77.9819 260.356C77.7236 260.372 77.3653 259.87 77.1986 259.705C75.1486 257.689 73.2361 255.532 71.0819 253.618C68.7236 251.523 66.0444 249.724 62.9153 249C62.3069 248.86 61.8736 249.576 62.3069 250.033C64.0111 251.828 65.2653 253.997 65.9903 256.351C66.6819 258.598 66.9986 261.179 66.5028 263.496C66.1861 264.969 64.7194 267.809 62.8153 266.315C62.0319 265.702 61.6903 264.616 61.4736 263.694C61.1611 262.372 61.0194 260.998 60.8694 259.656C60.4819 256.232 60.3486 252.787 60.4528 249.342C60.4778 248.527 59.2986 248.576 59.2028 249.342C58.5403 254.532 55.2028 259.244 50.6736 261.891C49.5444 262.553 48.3444 263.084 47.0861 263.463C46.5361 263.628 45.6236 264.01 45.0694 263.751C44.6569 263.558 44.5361 263.039 44.4986 262.628C44.3819 261.368 44.9361 260.043 45.4028 258.899C45.9194 257.623 46.5944 256.404 47.3736 255.264C49.1444 252.675 51.5444 250.531 54.3236 249.041C54.7611 248.807 54.7194 247.996 54.1736 247.913C51.5819 247.522 49.2319 248.531 47.0153 249.757C45.8653 250.395 44.7403 251.083 43.5569 251.667C42.5111 252.186 41.2819 252.791 40.0819 252.725C37.1444 252.564 40.8611 248.35 41.7444 247.559C43.4319 246.049 45.5569 245.045 47.7778 244.588C50.2528 244.082 52.8986 244.308 55.1861 245.39C55.3944 245.036 55.6069 244.678 55.8153 244.324C54.6569 243.798 53.6528 242.991 52.9569 241.933C52.5028 241.246 51.4819 239.328 53.0528 239.332C54.2278 239.336 55.5028 240.069 56.4236 240.735C57.4569 241.484 58.2903 242.464 58.8944 243.579C59.2111 244.164 60.0069 243.835 60.0611 243.267C60.1611 242.172 60.4944 241.102 61.0278 240.139C61.4778 239.328 62.2153 238.122 63.1486 237.793C64.0403 237.48 64.8028 238.492 64.9069 239.266C65.0611 240.431 64.3111 241.575 63.7319 242.526C63.4028 243.069 64.0486 243.662 64.5861 243.369C67.9403 241.55 72.3569 241.941 75.3028 244.366C75.3944 244.02 75.4861 243.678 75.5778 243.332C72.3069 244.061 68.9444 244.226 65.6111 243.843C64.8778 243.76 64.8153 244.843 65.4444 245.057C66.4361 245.39 67.4278 245.728 68.4194 246.061C69.1819 246.321 69.5111 245.127 68.7528 244.872C67.7611 244.538 66.7694 244.201 65.7778 243.868C65.7236 244.271 65.6653 244.674 65.6111 245.082C69.0528 245.477 72.5319 245.279 75.9111 244.53C76.3444 244.431 76.5444 243.793 76.1861 243.497C72.7944 240.707 67.8319 240.204 63.9528 242.308C64.2361 242.587 64.5236 242.871 64.8069 243.151C65.5903 241.863 66.4444 240.357 66.0778 238.801C65.7986 237.616 64.7111 236.459 63.4069 236.508C61.9944 236.562 60.9361 237.945 60.2444 239.015C59.4153 240.299 58.9444 241.764 58.8069 243.275C59.1944 243.172 59.5819 243.069 59.9736 242.962C59.1903 241.521 58.0444 240.299 56.6611 239.406C55.4778 238.644 53.6611 237.739 52.2111 238.229C50.4028 238.838 50.9278 240.912 51.6319 242.159C52.4319 243.575 53.6944 244.719 55.1861 245.394C55.9069 245.724 56.5444 244.674 55.8153 244.328C51.1611 242.118 45.4778 243.036 41.4819 246.168C40.4944 246.942 39.6278 247.864 38.9194 248.893C38.1736 249.975 37.2069 251.544 37.9361 252.848C38.5778 253.997 40.1069 254.095 41.2653 253.857C42.6319 253.573 43.9486 252.889 45.1611 252.227C47.7861 250.799 50.6528 248.63 53.8319 249.111C53.7819 248.737 53.7319 248.358 53.6819 247.983C50.9194 249.465 48.5403 251.564 46.6903 254.075C45.7778 255.318 45.0069 256.655 44.3986 258.067C43.8319 259.384 43.2236 260.858 43.2236 262.311C43.2236 263.628 43.8736 265.023 45.3819 265.064C46.1278 265.085 46.9194 264.813 47.6236 264.591C48.3361 264.364 49.0361 264.093 49.7153 263.78C52.3986 262.553 54.7736 260.652 56.5944 258.355C58.6694 255.734 60.0194 252.651 60.4403 249.342C60.0236 249.342 59.6069 249.342 59.1903 249.342C59.0861 252.787 59.2194 256.232 59.6069 259.656C59.7778 261.175 59.9236 262.743 60.3069 264.225C60.5819 265.299 61.0486 266.451 61.9236 267.192C62.7694 267.908 63.9486 268.143 64.9861 267.715C66.0694 267.27 66.7944 266.266 67.2403 265.233C68.2819 262.833 68.0861 259.866 67.5361 257.368C66.8653 254.305 65.3444 251.449 63.1778 249.165C62.9736 249.51 62.7736 249.852 62.5694 250.198C65.5986 250.902 68.1569 252.663 70.4194 254.709C71.5861 255.766 72.6903 256.89 73.7861 258.022C74.3444 258.598 74.8986 259.174 75.4611 259.742C75.9778 260.269 76.4944 260.895 77.1111 261.306C77.7611 261.743 78.5528 261.648 79.0736 261.068C79.5611 260.52 79.7319 259.738 79.9361 259.059C80.3653 257.623 80.7153 256.162 80.8986 254.672C81.2486 251.815 80.7944 248.671 78.4444 246.716C75.7319 244.46 71.9111 244.596 68.5861 244.851C67.8028 244.909 67.7944 246.144 68.5986 246.082Z" fill="#244029"/>
<path d="M60.5005 249.214C59.038 249.074 57.5755 248.934 56.113 248.794C55.463 248.732 54.6588 248.547 54.5088 247.921C54.388 247.419 54.7755 246.942 55.163 246.596C57.5671 244.447 61.1088 243.616 64.238 244.464C64.7796 244.612 65.3505 244.834 65.638 245.312C66.1838 246.209 65.4255 247.333 64.6046 247.991C63.4088 248.946 61.9838 249.613 60.4755 249.922L60.5005 249.214Z" fill="#F6EDDE"/>
<path d="M17.4079 272.476C20.1163 279.979 21.5704 287.902 21.6746 295.871C21.7038 298.114 21.6246 300.361 21.4454 302.596C21.3829 303.386 22.6329 303.382 22.6954 302.596C23.3413 294.582 22.6413 286.466 20.6329 278.675C20.0663 276.469 19.3871 274.291 18.6163 272.147C18.3454 271.402 17.1371 271.723 17.4079 272.476Z" fill="#244029"/>
<path d="M20.1438 260.619C21.7938 256.972 25.0813 254.083 28.9397 252.889C29.973 252.568 31.1938 252.395 32.0605 253.037C33.4063 254.038 32.9188 256.149 32.0563 257.581C29.6647 261.561 25.5938 264.224 21.6647 266.747L23.0522 267.282C25.2022 266.805 27.4147 266.612 29.6147 266.714C30.598 266.76 31.8063 267.044 32.0355 267.99C32.223 268.768 31.6063 269.497 30.9897 270.015C27.4605 272.987 22.2897 273.921 17.923 272.378L16.2063 274.856C16.1147 280.165 13.4397 285.376 9.1605 288.594C7.64384 289.734 5.323 290.566 3.9855 289.224C3.16467 288.397 3.12717 287.096 3.248 285.944C3.86467 280.054 7.32717 274.514 12.3855 271.337C7.82717 276.094 2.89384 281.075 -3.55616 282.593C-5.28116 283.001 -7.53533 282.89 -8.26033 281.297C-8.86866 279.955 -7.96867 278.432 -7.01867 277.3C-2.68117 272.119 3.56884 268.542 10.2772 267.402L7.60217 268.007C5.67717 268.896 3.67717 269.801 1.55217 269.797C-0.572829 269.793 -2.84783 268.587 -3.3645 266.554C-3.98533 264.097 -1.82699 261.738 0.518839 260.722C4.96467 258.796 10.6147 260.063 13.7772 263.698C11.2022 260.512 10.7938 255.779 12.7855 252.206C13.4897 250.943 14.5147 249.79 15.8688 249.243C17.223 248.695 18.9313 248.868 19.9397 249.914C20.9605 250.971 21.0563 252.589 20.9438 254.046C20.6855 257.38 19.6438 260.652 17.9188 263.525" fill="white"/>
<path d="M20.6863 260.932C21.5572 259.031 22.8405 257.364 24.4572 256.018C25.978 254.75 27.9322 253.639 29.9113 253.285C30.8572 253.116 31.9447 253.297 32.2113 254.343C32.428 255.19 32.1072 256.158 31.7197 256.911C30.7447 258.796 29.178 260.409 27.578 261.788C25.6488 263.451 23.4947 264.838 21.353 266.217C20.8738 266.525 21.003 267.155 21.503 267.345C21.8947 267.497 22.2822 267.645 22.6738 267.797C22.9113 267.888 23.053 267.908 23.3238 267.859C23.8822 267.756 24.4363 267.637 24.9947 267.554C26.0613 267.398 27.1405 267.32 28.2197 267.308C29.0572 267.299 30.0155 267.233 30.8113 267.554C32.7572 268.345 29.6363 270.308 28.8613 270.752C27.3488 271.625 25.6488 272.189 23.9113 272.399C21.9488 272.633 19.9655 272.428 18.0988 271.781C17.8238 271.687 17.5447 271.847 17.3947 272.065C16.9613 272.695 16.5238 273.321 16.0905 273.95C15.9447 274.16 15.7447 274.379 15.6488 274.617C15.5197 274.938 15.578 275.395 15.5572 275.741C15.528 276.169 15.4822 276.593 15.4155 277.013C14.9238 280.137 13.5613 283.133 11.4988 285.553C10.503 286.718 9.33216 287.879 7.97799 288.632C6.85716 289.253 4.99049 289.817 4.18216 288.438C3.45716 287.199 3.92383 285.318 4.21133 284.01C4.54466 282.503 5.06132 281.034 5.74882 279.647C7.31965 276.49 9.72382 273.765 12.7238 271.864C12.4697 271.539 12.2197 271.218 11.9655 270.892C7.62383 275.424 2.88216 280.342 -3.45534 281.931C-4.59701 282.219 -6.14701 282.417 -7.15951 281.664C-8.51368 280.655 -7.45535 278.848 -6.65951 277.856C-4.69285 275.403 -2.18867 273.321 0.507159 271.695C3.56133 269.855 6.94049 268.596 10.4655 267.987C10.353 267.591 10.2447 267.192 10.1322 266.797C9.52382 266.933 8.91549 267.073 8.30299 267.209C8.03632 267.27 7.76133 267.312 7.49883 267.39C6.96133 267.55 6.44883 267.859 5.93633 268.081C3.57383 269.094 0.511326 269.896 -1.66784 268.036C-2.56784 267.27 -3.02201 266.134 -2.74284 264.97C-2.45951 263.793 -1.60117 262.801 -0.638674 262.093C1.31966 260.656 3.94882 260.228 6.33632 260.504C9.03216 260.817 11.5738 262.097 13.3613 264.118C13.8988 264.727 14.728 263.854 14.2447 263.245C11.7155 260.059 11.4655 255.269 13.7322 251.881C14.803 250.284 16.9113 248.831 18.878 249.856C20.8905 250.906 20.4488 253.853 20.1488 255.672C19.7155 258.327 18.7822 260.874 17.403 263.192C16.9947 263.879 18.0738 264.5 18.4822 263.813C19.9113 261.409 20.903 258.751 21.353 255.997C21.7238 253.721 22.0905 250.63 19.9447 249.062C17.8822 247.556 15.0947 248.453 13.4988 250.173C11.8863 251.91 11.0613 254.281 10.9405 256.606C10.803 259.31 11.6697 261.986 13.3572 264.109C13.653 263.817 13.9447 263.529 14.2405 263.237C10.678 259.207 3.89049 257.775 -0.809508 260.71C-3.11784 262.15 -5.02201 264.998 -3.55534 267.67C-2.13867 270.254 1.21966 270.748 3.85299 270.098C4.78633 269.868 5.68632 269.514 6.56549 269.135C7.07382 268.917 7.55715 268.629 8.09882 268.509C8.88632 268.332 9.67383 268.155 10.4613 267.974C11.253 267.793 10.9113 266.649 10.128 266.785C3.32799 267.962 -3.13035 271.596 -7.49285 276.906C-8.54285 278.186 -9.56784 279.927 -8.78034 281.589C-8.14701 282.919 -6.63034 283.384 -5.24284 283.392C-3.62201 283.405 -1.99701 282.853 -0.517843 282.244C1.06966 281.59 2.56549 280.754 3.97799 279.783C7.28215 277.507 10.0947 274.63 12.8488 271.753C13.3197 271.259 12.7072 270.39 12.0905 270.781C9.18632 272.625 6.77382 275.185 5.11132 278.173C4.28215 279.663 3.62799 281.26 3.19049 282.902C2.77382 284.483 2.38216 286.294 2.69049 287.924C3.00299 289.558 4.40299 290.644 6.09049 290.496C7.79882 290.348 9.24049 289.381 10.4988 288.298C13.1572 286.01 15.103 282.927 16.0988 279.593C16.378 278.667 16.5697 277.716 16.6947 276.757C16.7572 276.28 16.803 275.798 16.8238 275.317C16.828 275.243 16.853 275.078 16.8363 274.996C16.8322 274.988 16.7238 275.206 16.7697 275.124C16.7988 275.074 16.8363 275.025 16.8697 274.979C17.4155 274.218 17.9363 273.44 18.4697 272.67C18.2363 272.765 17.9988 272.86 17.7655 272.954C21.553 274.263 25.8738 273.831 29.353 271.88C30.778 271.082 33.4905 269.394 32.4988 267.427C32.1155 266.665 31.2488 266.303 30.4447 266.167C29.3572 265.982 28.2113 266.032 27.1155 266.089C26.428 266.126 25.7405 266.196 25.0572 266.287C24.728 266.332 24.3947 266.381 24.0697 266.435C23.9072 266.464 23.7405 266.493 23.578 266.525C23.5072 266.538 22.9863 266.649 23.153 266.645C23.278 266.641 23.0488 266.6 22.9738 266.571C22.828 266.513 22.678 266.456 22.5322 266.402C22.2988 266.311 22.0697 266.225 21.8363 266.134C21.8863 266.509 21.9363 266.888 21.9863 267.262C24.1238 265.888 26.2655 264.496 28.2113 262.858C30.0405 261.319 31.9113 259.442 32.928 257.261C33.378 256.289 33.6738 255.186 33.4488 254.116C33.2322 253.083 32.4155 252.272 31.3697 252.046C30.1488 251.782 28.8655 252.19 27.7405 252.639C26.6655 253.067 25.6447 253.602 24.6947 254.264C22.4988 255.795 20.7155 257.866 19.6072 260.286C19.278 261.027 20.353 261.652 20.6863 260.932Z" fill="#244029"/>
<path d="M15.7041 271.431C14.9124 272.197 13.8957 273.032 12.8291 272.74C11.9249 272.493 11.4124 271.489 11.4332 270.563C11.4541 269.636 11.8832 268.776 12.2999 267.949C12.9749 266.615 13.6999 265.22 14.9541 264.389C16.2082 263.557 18.1541 263.545 19.0249 264.763C20.2416 266.463 18.5791 268.686 17.0332 270.097L15.7041 271.431Z" fill="#C68148"/>
<path d="M90.033 301.723C92.2663 295.821 92.9497 289.405 92.0747 283.169C91.8247 281.371 91.4372 279.597 90.9247 277.856C90.6997 277.094 89.4955 277.419 89.7205 278.185C91.958 285.783 91.633 293.986 88.8289 301.398C88.5455 302.139 89.7538 302.46 90.033 301.723Z" fill="#244029"/>
<path d="M92.6189 276.115C96.0523 275.243 98.7231 272.007 98.8939 268.513C98.9106 268.217 98.9023 267.896 98.7273 267.653C98.2356 266.961 97.1481 267.521 96.5273 268.11C94.7814 269.768 93.0356 271.431 91.2898 273.09C91.9523 270.555 92.1939 267.912 92.0023 265.303C91.9648 264.792 91.8689 264.216 91.4398 263.936C90.5231 263.344 89.5773 264.661 89.2814 265.706C88.6523 267.941 88.0231 270.176 87.3939 272.411C86.4606 271.258 85.5231 270.106 84.5898 268.958C83.9773 268.2 82.8148 267.406 82.1606 268.13C81.5731 268.781 82.2564 269.764 82.9064 270.353C84.0398 271.382 85.1773 272.411 86.3106 273.436C85.1398 273.576 83.9648 273.296 82.7939 273.189C81.6189 273.082 80.3356 273.189 79.4439 273.954C78.5564 274.72 78.3731 276.317 79.3398 276.979C80.5856 277.827 82.6439 276.65 83.6648 277.753C82.0773 279.56 80.9148 281.725 80.2898 284.034C80.1773 284.45 80.0814 284.894 80.2314 285.298C80.6939 286.569 82.6523 286.067 83.7148 285.215C85.4564 283.82 86.9148 282.079 87.9689 280.124C87.3273 282.112 87.4814 284.343 88.3898 286.228C88.5856 286.631 88.8564 287.051 89.2939 287.162C90.0356 287.347 90.6273 286.553 90.9106 285.849C92.1231 282.865 92.1106 279.416 90.8814 276.44L92.6189 276.115Z" fill="white"/>
<path d="M92.7831 276.712C95.5331 275.988 97.7873 273.938 98.8664 271.353C99.1289 270.723 99.3206 270.073 99.4206 269.402C99.5206 268.74 99.6498 267.937 99.2623 267.34C98.3206 265.896 96.5456 267.233 95.7081 268.028C94.0873 269.571 92.4664 271.11 90.8456 272.654C91.1956 272.856 91.5414 273.053 91.8914 273.255C92.3789 271.361 92.6539 269.415 92.6873 267.46C92.7039 266.558 92.7206 265.603 92.5539 264.714C92.4164 263.986 91.9623 263.315 91.1748 263.196C89.5289 262.94 88.8164 265.056 88.4831 266.237C87.9206 268.242 87.3539 270.246 86.7914 272.255C87.1414 272.164 87.4873 272.073 87.8373 271.983C86.8498 270.769 85.9206 269.452 84.8414 268.312C84.1164 267.546 82.7748 266.748 81.8123 267.608C80.7748 268.534 81.5623 269.917 82.3539 270.695C83.4789 271.798 84.6998 272.823 85.8664 273.88C86.0123 273.531 86.1623 273.177 86.3081 272.827C84.5789 272.995 82.8873 272.374 81.1623 272.613C79.7914 272.798 78.4706 273.568 78.1456 274.979C77.8581 276.226 78.4414 277.506 79.7498 277.836C80.3748 277.992 81.0206 277.93 81.6539 277.893C82.1873 277.864 82.8123 277.795 83.2248 278.198C83.2248 277.906 83.2248 277.618 83.2248 277.325C82.2289 278.474 81.3748 279.737 80.7248 281.108C80.3998 281.791 80.1164 282.491 79.8873 283.211C79.6581 283.927 79.3873 284.73 79.6289 285.475C79.9873 286.582 81.1914 286.829 82.2164 286.611C83.4998 286.343 84.4998 285.442 85.4039 284.557C86.6373 283.351 87.6789 281.956 88.5039 280.449C88.1248 280.289 87.7414 280.132 87.3623 279.972C86.9289 281.363 86.8456 282.824 87.0956 284.256C87.2206 284.968 87.4414 285.656 87.7373 286.314C87.9956 286.891 88.3539 287.491 88.9831 287.722C90.4039 288.241 91.2748 286.693 91.6706 285.611C92.1748 284.219 92.4289 282.725 92.4331 281.244C92.4414 279.552 92.1164 277.86 91.4831 276.288C91.3373 276.543 91.1914 276.794 91.0456 277.05C91.6289 276.93 92.2039 276.819 92.7831 276.712C93.5706 276.564 93.2373 275.374 92.4498 275.523C91.8706 275.634 91.2914 275.741 90.7123 275.852C90.4039 275.909 90.1581 276.317 90.2748 276.613C91.4164 279.437 91.4873 282.594 90.3998 285.446C90.2664 285.792 89.8581 286.808 89.3331 286.524C89.0873 286.393 88.9539 286.006 88.8456 285.771C88.6873 285.421 88.5664 285.059 88.4664 284.693C88.0706 283.244 88.1164 281.733 88.5623 280.301C88.7706 279.634 87.7581 279.206 87.4206 279.824C86.6581 281.219 85.7123 282.499 84.5789 283.618C83.7664 284.421 82.7081 285.504 81.4456 285.458C80.7914 285.434 80.7123 284.968 80.8373 284.388C80.9998 283.647 81.2748 282.906 81.5748 282.211C82.1998 280.758 83.0581 279.4 84.0998 278.202C84.3206 277.951 84.3539 277.581 84.0998 277.329C83.2956 276.535 82.2123 276.638 81.1664 276.696C80.2498 276.745 79.1581 276.622 79.3164 275.44C79.4789 274.247 80.7498 273.835 81.8081 273.794C83.3164 273.736 84.7873 274.218 86.2998 274.07C86.7998 274.02 87.1748 273.407 86.7414 273.016C85.8539 272.213 84.9664 271.407 84.0748 270.604C83.8373 270.39 82.0081 268.937 82.6623 268.513C82.9206 268.349 83.3706 268.694 83.5623 268.843C83.9664 269.155 84.2664 269.571 84.5831 269.962C85.3706 270.929 86.1539 271.901 86.9414 272.868C87.2456 273.242 87.8706 273.008 87.9873 272.596C88.4331 271.02 88.8748 269.439 89.3206 267.863C89.5289 267.122 89.6873 266.344 89.9623 265.624C90.0914 265.286 90.4831 264.422 90.9414 264.426C91.4331 264.43 91.3831 265.513 91.3998 265.809C91.4414 266.595 91.4456 267.381 91.4081 268.163C91.3331 269.781 91.0831 271.374 90.6789 272.942C90.5248 273.543 91.2706 273.971 91.7248 273.543C93.2206 272.119 94.7164 270.695 96.2123 269.275C96.5248 268.974 96.8248 268.645 97.1706 268.382C97.3623 268.233 97.7539 267.937 98.0247 267.966C98.5206 268.019 98.1789 269.328 98.1039 269.662C97.4706 272.456 95.2498 274.798 92.4456 275.539C91.6748 275.724 92.0039 276.918 92.7831 276.712Z" fill="#244029"/>
<path d="M88.7483 277.757C88.8567 278.63 87.7733 279.325 86.9275 279.045C86.0858 278.766 85.615 277.802 85.6942 276.926C85.7692 276.049 86.2775 275.267 86.8733 274.613C87.6317 273.785 88.7317 273.065 89.8233 273.341C90.915 273.617 91.4025 275.382 90.3733 275.835L88.7483 277.757Z" fill="#C68148"/>
<path d="M48.8147 296.62C49.6481 291.084 53.6772 286.511 58.1606 283.091C62.6439 279.667 67.7356 277.045 72.0356 273.402C72.3522 273.135 72.7481 272.843 73.1439 272.974C73.7231 273.168 73.6522 273.999 73.4481 274.567C71.0772 281.293 66.8272 287.182 62.6314 292.969C59.4314 297.381 55.8897 302.053 50.6772 303.757C49.6147 304.103 48.3064 304.263 47.5064 303.493C46.4731 302.497 47.0397 300.777 47.7397 299.53C51.3147 293.154 56.7856 287.829 63.2939 284.392" fill="#C1D9C1"/>
<path d="M49.4117 294.723C50.42 288.253 55.5533 283.503 60.7325 279.926C63.695 277.881 66.7992 276.045 69.7117 273.93C70.4325 273.407 71.1366 272.868 71.8283 272.308C72.0908 272.098 72.4658 271.641 72.7992 271.546C72.9617 271.501 72.8658 271.472 72.9533 271.555C73.02 271.616 72.9575 271.896 72.945 271.975C72.8075 272.769 72.3908 273.576 72.0866 274.316C71.745 275.144 71.37 275.959 70.97 276.761C69.3908 279.963 67.4617 282.984 65.4283 285.919C63.5117 288.685 61.57 291.475 59.4492 294.097C57.5158 296.489 55.3158 298.773 52.5575 300.23C51.8991 300.576 51.22 300.872 50.5116 301.102C49.8366 301.321 48.9867 301.535 48.3033 301.234C46.8908 300.613 47.8033 298.629 48.32 297.707C51.4367 292.142 56.0492 287.401 61.52 284.055C62.2033 283.635 62.9033 283.24 63.6116 282.865C64.32 282.491 63.6908 281.425 62.9825 281.799C56.7992 285.079 51.5408 290.01 47.9117 295.949C47.1117 297.254 46.145 298.777 46.345 300.374C46.5741 302.181 48.3117 302.794 49.9367 302.522C51.545 302.255 53.1366 301.419 54.4825 300.534C55.8866 299.617 57.1533 298.501 58.3075 297.295C60.745 294.752 62.7575 291.821 64.8033 288.969C67.0867 285.787 69.3075 282.548 71.17 279.103C72.0825 277.412 72.9075 275.671 73.6075 273.88C73.8992 273.139 74.295 272.328 74.2117 271.509C74.1367 270.769 73.5617 270.18 72.77 270.279C71.9033 270.39 71.17 271.271 70.52 271.785C69.7617 272.386 68.9783 272.954 68.1825 273.51C66.5533 274.65 64.8783 275.716 63.2117 276.798C57.3325 280.61 51.0658 285.067 48.7908 291.986C48.5325 292.772 48.3408 293.579 48.2158 294.398C48.0867 295.176 49.2908 295.509 49.4117 294.723Z" fill="#244029"/>
<path d="M40.3483 300.625C38.0691 298.966 36.6649 296.345 35.9608 293.636C35.2608 290.928 35.1941 288.105 35.1441 285.31C35.0441 279.877 35.0108 274.243 37.2441 269.279C37.5733 268.546 37.9816 267.801 38.6733 267.386C39.3649 266.97 40.4108 267.032 40.8358 267.715C41.0191 268.007 41.0608 268.365 41.0983 268.707C41.5358 273.082 41.2399 277.535 42.0691 281.853C43.2316 287.907 46.5774 293.855 45.2691 299.88C45.2024 300.181 45.1191 300.493 44.8941 300.708C44.1066 301.465 42.9524 300.267 42.5608 299.25C40.4608 293.785 39.1233 288.031 38.5983 282.207" fill="#5D8C60"/>
<path d="M40.8628 298.18C36.0795 294.632 36.042 287.997 35.9545 282.663C35.9086 279.782 35.8961 276.885 36.2753 274.024C36.467 272.575 36.767 271.139 37.2045 269.748C37.4086 269.106 37.6378 268.468 37.9086 267.846C38.1794 267.225 38.4878 266.509 39.0544 266.093C39.3878 265.85 39.8878 265.718 40.2753 265.924C40.817 266.208 40.7211 267.291 40.7586 267.793C40.8795 269.39 40.9253 270.991 40.9795 272.592C41.0878 275.666 41.2795 278.728 42.0211 281.725C42.7211 284.552 43.7461 287.285 44.4461 290.113C44.7961 291.521 45.0628 292.949 45.1253 294.402C45.1545 295.056 45.142 295.71 45.0878 296.365C45.0545 296.731 45.0045 297.093 44.9378 297.452C44.8961 297.678 44.8586 298.316 44.5836 298.415C44.1961 298.55 43.692 297.777 43.542 297.526C43.1545 296.875 42.9461 296.077 42.7003 295.369C42.1253 293.731 41.6211 292.064 41.1836 290.385C40.3253 287.075 39.7336 283.705 39.4253 280.301C39.3545 279.515 38.1045 279.506 38.1753 280.301C38.4836 283.684 39.0503 287.042 39.8836 290.339C40.2961 291.961 40.7711 293.566 41.3045 295.151C41.7545 296.476 42.1169 298.135 43.2336 299.09C43.6753 299.468 44.2586 299.769 44.8586 299.621C45.5045 299.46 45.8753 298.896 46.0378 298.291C46.4336 296.785 46.4628 295.147 46.3253 293.603C46.0336 290.393 44.967 287.331 44.0336 284.264C43.5586 282.692 43.1086 281.107 42.8169 279.49C42.5003 277.741 42.3753 275.967 42.2961 274.197C42.2169 272.431 42.1878 270.661 42.0836 268.896C42.0378 268.06 42.0003 267.208 41.8711 266.381C41.7711 265.727 41.4628 265.146 40.8503 264.837C39.6045 264.204 38.2711 264.903 37.5295 265.932C36.6461 267.155 36.1628 268.776 35.767 270.213C34.9086 273.333 34.7003 276.596 34.6836 279.819C34.6628 283.132 34.6378 286.52 35.1336 289.804C35.5753 292.731 36.6253 295.649 38.6628 297.871C39.1378 298.386 39.667 298.843 40.2295 299.258C40.8753 299.723 41.4961 298.653 40.8628 298.18Z" fill="#244029"/>
<path d="M92.8215 295.25C96.9007 288.578 102.571 283.026 108.184 277.547C108.426 288.426 102.755 299.258 93.6298 305.354C92.7298 305.955 91.5673 306.531 90.6048 306.033C89.7673 305.601 89.484 304.49 89.7257 303.584C89.9632 302.679 90.5965 301.934 91.2173 301.23C94.3923 297.62 97.7548 294.171 101.288 290.903" fill="#5D8C60"/>
<path d="M93.3822 293.879C97.4655 287.232 103.086 281.733 108.645 276.304C108.291 276.16 107.932 276.012 107.578 275.868C107.707 282.511 105.641 289.084 101.899 294.591C100.024 297.348 97.7197 299.822 95.0822 301.884C94.428 302.394 93.753 302.897 93.0405 303.333C92.3905 303.728 91.2947 304.304 90.6447 303.604C89.4363 302.304 91.2405 300.481 92.0613 299.55C95.1238 296.101 98.3572 292.8 101.745 289.66C102.332 289.117 101.449 288.244 100.861 288.787C97.5697 291.841 94.4238 295.044 91.4363 298.386C90.253 299.711 88.728 301.213 89.0905 303.148C89.2363 303.921 89.7155 304.633 90.4572 304.959C91.3988 305.37 92.4197 305.078 93.2822 304.621C94.8988 303.765 96.3822 302.489 97.728 301.271C99.0655 300.061 100.299 298.735 101.42 297.328C103.682 294.476 105.478 291.298 106.749 287.894C108.182 284.058 108.903 279.959 108.824 275.872C108.816 275.341 108.145 275.057 107.757 275.436C102.12 280.938 96.4363 286.528 92.2988 293.261C91.8822 293.936 92.9655 294.558 93.3822 293.879Z" fill="#244029"/>
<path d="M330.518 283.351C332.918 284.968 333.963 288.446 332.501 290.924C331.038 293.402 327.068 294.097 325.063 292.019C323.322 290.212 323.513 287.364 323.943 284.907C322.772 288.397 320.118 291.377 316.768 292.974C315.618 293.521 314.313 293.916 313.076 293.607C311.838 293.299 310.776 292.072 311.047 290.842C311.193 290.183 311.672 289.656 312.151 289.175C314.509 286.816 317.313 284.89 320.376 283.532C317.793 285.52 314.763 286.944 311.568 287.668C310.68 287.87 309.497 287.874 309.155 287.039C308.884 286.38 309.376 285.668 309.884 285.166C313.093 281.992 317.888 281.112 322.372 280.383C319.476 281.317 316.284 281.35 313.368 280.474C315.668 276.724 321.526 275.753 324.934 278.56C323.797 278.383 322.968 277.259 322.901 276.123C322.838 274.987 323.409 273.888 324.205 273.065C324.73 272.522 325.409 272.053 326.172 272.028C327.255 271.987 328.197 272.872 328.568 273.876C328.938 274.88 328.868 275.987 328.793 277.058C328.884 275.72 329.238 274.399 329.83 273.189C330.447 271.929 331.693 270.653 333.059 271.016C334.23 271.324 334.784 272.757 334.538 273.93C334.288 275.103 333.468 276.066 332.676 276.971C333.984 274.456 336.476 272.571 339.272 271.979C340.338 271.752 341.68 271.818 342.23 272.752C342.638 273.44 342.43 274.329 342.068 275.041C340.493 278.124 336.684 279.284 333.247 279.893C334.963 280.087 336.622 280.745 337.993 281.783C338.934 282.495 339.809 283.647 339.418 284.754C338.984 285.981 337.347 286.261 336.043 286.104C333.509 285.8 331.097 284.598 329.338 282.77" fill="#F05A7E"/>
<path d="M330.199 283.882C332.458 285.446 333.52 289.15 331.445 291.286C329.545 293.241 325.962 293.097 324.762 290.484C323.999 288.817 324.245 286.812 324.541 285.071C324.674 284.298 323.599 283.981 323.337 284.742C322.208 288.039 319.745 290.821 316.591 292.373C315.141 293.085 312.57 293.743 311.745 291.788C311.366 290.891 312.058 290.15 312.658 289.553C313.354 288.862 314.091 288.203 314.862 287.59C316.641 286.174 318.616 285.001 320.695 284.071C320.487 283.717 320.274 283.359 320.066 283.005C318.604 284.121 317.012 285.067 315.32 285.804C314.445 286.187 313.537 286.504 312.616 286.767C311.895 286.973 311.07 287.265 310.312 287.146C309.304 286.989 309.866 286.076 310.333 285.606C310.912 285.022 311.57 284.52 312.266 284.083C313.674 283.199 315.237 282.602 316.837 282.149C318.708 281.622 320.629 281.293 322.545 280.984C322.433 280.589 322.324 280.19 322.212 279.795C319.387 280.688 316.383 280.721 313.541 279.885C313.666 280.186 313.791 280.49 313.916 280.791C316.045 277.395 321.349 276.461 324.504 279C324.708 278.655 324.908 278.313 325.112 277.967C324.158 277.786 323.537 276.91 323.533 275.963C323.529 274.86 324.229 273.777 325.087 273.115C325.974 272.427 326.999 272.559 327.662 273.469C328.404 274.489 328.266 275.872 328.183 277.054C328.129 277.848 329.37 277.84 329.433 277.054C329.533 275.786 329.858 274.498 330.454 273.362C330.866 272.576 331.679 271.481 332.704 271.571C333.641 271.649 334.045 272.72 333.983 273.526C333.895 274.695 332.987 275.687 332.249 276.531C332.579 276.782 332.904 277.029 333.233 277.28C333.933 275.959 334.941 274.81 336.191 273.967C337.37 273.172 338.883 272.469 340.341 272.485C340.954 272.493 341.666 272.674 341.824 273.345C341.991 274.057 341.529 274.839 341.145 275.407C340.354 276.572 339.133 277.375 337.862 277.951C336.362 278.634 334.72 279.005 333.104 279.297C332.349 279.433 332.633 280.433 333.27 280.511C334.899 280.708 336.579 281.359 337.829 282.425C338.354 282.873 338.983 283.557 338.908 284.302C338.845 284.898 338.329 285.24 337.787 285.392C336.454 285.771 334.908 285.347 333.654 284.878C332.195 284.33 330.887 283.446 329.804 282.338C329.245 281.766 328.362 282.639 328.92 283.211C330.92 285.256 333.995 286.882 336.945 286.759C338.166 286.709 339.516 286.257 339.995 285.038C340.57 283.581 339.512 282.149 338.395 281.297C336.904 280.161 335.133 279.503 333.27 279.276C333.324 279.68 333.383 280.083 333.437 280.49C336.724 279.898 340.466 278.832 342.345 275.856C342.841 275.07 343.233 274.115 343.062 273.176C342.912 272.345 342.316 271.728 341.524 271.448C339.904 270.876 337.933 271.596 336.499 272.349C334.658 273.316 333.129 274.839 332.158 276.663C331.845 277.255 332.654 277.967 333.141 277.412C334.133 276.276 335.224 274.979 335.245 273.399C335.262 272.123 334.524 270.707 333.179 270.406C331.691 270.077 330.424 271.123 329.658 272.279C328.737 273.674 328.316 275.42 328.187 277.058C328.604 277.058 329.02 277.058 329.437 277.058C329.549 275.407 329.57 273.588 328.316 272.324C327.183 271.184 325.583 271.184 324.333 272.143C323.141 273.061 322.204 274.592 322.295 276.128C322.379 277.527 323.345 278.885 324.787 279.161C325.337 279.264 325.924 278.556 325.395 278.128C321.616 275.082 315.429 276.049 312.845 280.169C312.629 280.515 312.841 280.964 313.22 281.075C316.262 281.968 319.533 281.939 322.558 280.984C323.337 280.737 323.008 279.667 322.224 279.795C318.404 280.416 314.349 281.116 311.12 283.367C309.891 284.223 307.295 286.281 309.012 287.87C309.629 288.442 310.57 288.455 311.358 288.339C312.362 288.191 313.37 287.862 314.324 287.52C316.624 286.705 318.779 285.545 320.712 284.067C321.345 283.585 320.829 282.668 320.083 283.001C317.954 283.956 315.966 285.166 314.137 286.602C313.208 287.335 312.299 288.121 311.491 288.981C310.762 289.759 310.237 290.685 310.462 291.776C310.654 292.706 311.383 293.513 312.224 293.933C313.237 294.439 314.424 294.406 315.495 294.118C317.537 293.571 319.441 292.27 320.933 290.817C322.583 289.208 323.824 287.232 324.566 285.067C324.166 284.956 323.762 284.849 323.362 284.738C323.037 286.652 322.783 288.759 323.504 290.619C324.137 292.266 325.483 293.505 327.27 293.785C328.945 294.048 330.683 293.575 331.983 292.5C333.329 291.389 333.945 289.599 333.799 287.899C333.629 285.857 332.554 283.993 330.854 282.816C330.17 282.359 329.545 283.429 330.199 283.882Z" fill="#244029"/>
<path d="M329.949 283.157C328.012 284.342 325.841 285.149 323.595 285.519C322.774 285.655 321.737 285.626 321.358 284.898C320.999 284.202 321.512 283.383 322.053 282.811C324.249 280.469 327.278 278.913 330.478 278.477C330.983 278.407 331.512 278.37 331.991 278.543C332.47 278.716 332.883 279.16 332.862 279.663C332.849 279.98 332.67 280.268 332.487 280.531C331.391 282.083 329.828 283.313 328.049 284.021" fill="#F6EDDE"/>
<path d="M364.389 258.816C368.289 265.714 372.194 272.625 375.394 279.873C378.581 287.092 381.052 294.71 381.952 302.563C382.456 306.951 382.473 311.408 381.844 315.783C381.798 316.117 381.927 316.442 382.281 316.545C382.573 316.627 383.002 316.442 383.052 316.113C384.194 308.173 383.327 300.102 381.227 292.385C379.123 284.647 375.789 277.288 372.077 270.184C369.964 266.142 367.719 262.166 365.473 258.19C365.077 257.499 363.998 258.12 364.389 258.816Z" fill="#244029"/>
<path d="M355.937 254.812C352.871 253.964 349.525 254.157 346.579 255.347C344.862 256.038 343.192 257.174 342.521 258.882C341.85 260.59 342.612 262.903 344.4 263.393C345.146 263.599 345.942 263.471 346.696 263.303C349.562 262.652 352.283 261.364 354.587 259.557C350.717 261.319 347.912 265.179 347.458 269.361C347.004 273.547 348.917 277.906 352.321 280.437C353.646 278.807 353.529 276.506 353.55 274.419C353.596 269.555 355.021 264.278 359.037 261.463C358.012 264.974 358.221 268.822 359.625 272.205C360.233 273.67 361.596 275.271 363.117 274.765C364.779 274.21 364.679 271.892 364.383 270.184C363.837 267.032 363.75 263.796 364.133 260.619C364.225 259.845 364.362 259.039 364.85 258.425C365.354 257.791 366.154 257.466 366.933 257.236C369.787 256.388 372.9 256.421 375.733 257.335C377.167 257.796 378.837 258.45 380.062 257.582C381.717 256.409 380.742 253.692 379.096 252.511C375.521 249.942 370.571 250.988 366.308 252.144C369.187 250.441 372.067 248.737 374.95 247.028C375.487 246.712 376.092 246.284 376.096 245.666C376.104 244.757 374.896 244.407 373.975 244.423C368.958 244.518 364.096 247.432 361.696 251.782C361.5 250.469 361.929 249.148 362.075 247.831C362.221 246.51 361.975 244.975 360.85 244.246C359.904 243.633 358.654 243.793 357.567 244.102C355.167 244.777 352.767 246.267 352.046 248.63C351.508 250.387 352.075 252.428 353.442 253.671C354.808 254.914 356.912 255.305 358.646 254.63" fill="white"/>
<path d="M356.105 254.215C353.688 253.564 351.134 253.503 348.688 254.046C346.609 254.507 344.372 255.4 342.951 257.034C341.668 258.512 341.234 260.537 342.188 262.306C342.601 263.068 343.28 263.677 344.113 263.949C345.284 264.331 346.588 263.99 347.734 263.673C350.397 262.944 352.859 261.668 355.03 259.985C355.626 259.524 354.868 258.738 354.272 259.014C351.138 260.467 348.709 263.187 347.522 266.385C346.305 269.674 346.626 273.341 348.205 276.453C349.105 278.227 350.413 279.754 352.009 280.955C352.301 281.173 352.68 280.972 352.863 280.733C354.622 278.482 354.047 275.378 354.251 272.736C354.451 270.118 355.084 267.455 356.447 265.179C357.193 263.932 358.163 262.825 359.355 261.977C359.051 261.747 358.743 261.512 358.438 261.282C357.718 263.8 357.588 266.447 358.051 269.023C358.43 271.131 359.151 273.818 361.118 275.033C361.951 275.547 363.022 275.609 363.863 275.074C364.638 274.58 364.997 273.72 365.118 272.847C365.251 271.896 365.143 270.946 364.984 270.003C364.751 268.608 364.601 267.208 364.547 265.793C364.493 264.393 364.53 262.99 364.651 261.598C364.755 260.438 364.776 259.005 365.888 258.318C366.947 257.66 368.409 257.429 369.63 257.306C370.993 257.166 372.38 257.203 373.726 257.454C374.959 257.68 376.105 258.17 377.326 258.446C378.401 258.689 379.563 258.713 380.48 258.022C382.118 256.795 381.609 254.482 380.534 253.062C379.059 251.111 376.38 250.375 374.022 250.292C371.355 250.198 368.697 250.84 366.143 251.531C366.305 251.906 366.463 252.284 366.626 252.659C368.859 251.338 371.093 250.016 373.326 248.691C373.855 248.378 374.384 248.066 374.913 247.753C375.368 247.485 375.855 247.218 376.213 246.827C376.83 246.156 376.901 245.164 376.226 244.505C375.613 243.909 374.643 243.769 373.822 243.789C372.838 243.818 371.855 243.954 370.897 244.176C368.993 244.625 367.159 245.456 365.572 246.588C363.759 247.876 362.238 249.523 361.159 251.453C361.547 251.556 361.934 251.659 362.326 251.766C362.034 249.465 363.359 247.193 362.284 244.958C361.23 242.768 358.613 243.032 356.672 243.715C354.738 244.398 352.805 245.6 351.847 247.465C350.872 249.366 351.076 251.696 352.384 253.396C353.851 255.305 356.551 256.038 358.818 255.198C359.563 254.923 359.243 253.729 358.484 254.009C356.863 254.61 354.955 254.289 353.722 253.05C352.518 251.84 352.13 249.909 352.805 248.345C353.472 246.794 354.972 245.736 356.501 245.098C357.884 244.522 360.251 243.76 361.143 245.456C361.584 246.292 361.538 247.308 361.401 248.214C361.222 249.395 360.926 250.564 361.076 251.766C361.147 252.325 361.909 252.667 362.243 252.079C363.868 249.173 366.588 246.917 369.751 245.806C370.555 245.526 371.38 245.312 372.222 245.176C372.959 245.057 373.793 244.933 374.538 245.061C375.213 245.176 375.834 245.563 375.126 246.156C374.372 246.786 373.372 247.23 372.526 247.732C370.351 249.02 368.176 250.309 366.001 251.593C365.397 251.951 365.793 252.91 366.484 252.721C370.301 251.692 375.126 250.469 378.655 252.935C379.709 253.671 381.118 255.845 379.826 256.972C379.051 257.647 377.897 257.343 377.018 257.083C375.909 256.754 374.838 256.38 373.693 256.198C371.301 255.82 368.768 255.952 366.463 256.725C365.484 257.055 364.538 257.577 364.051 258.52C363.538 259.512 363.488 260.714 363.397 261.8C363.184 264.385 363.284 266.982 363.663 269.542C363.797 270.448 363.976 271.337 363.934 272.254C363.905 272.901 363.768 273.724 363.143 274.07C362.184 274.6 361.238 273.666 360.743 272.934C360.076 271.942 359.726 270.74 359.451 269.591C358.826 266.961 358.909 264.208 359.651 261.611C359.788 261.129 359.188 260.59 358.734 260.915C356.493 262.508 354.988 264.792 354.084 267.348C353.159 269.974 352.955 272.707 352.93 275.465C352.913 277.091 352.838 278.774 351.793 280.112C352.076 280.038 352.363 279.963 352.647 279.889C350.113 277.98 348.43 274.959 348.093 271.831C347.759 268.748 348.751 265.632 350.755 263.249C351.893 261.899 353.297 260.821 354.909 260.072C354.655 259.746 354.405 259.425 354.151 259.1C352.513 260.372 350.659 261.38 348.697 262.068C347.726 262.405 346.68 262.747 345.647 262.846C344.78 262.928 343.984 262.71 343.468 261.989C342.547 260.714 342.855 259.034 343.834 257.894C345.038 256.495 346.905 255.742 348.663 255.305C351.001 254.725 353.451 254.766 355.772 255.392C356.551 255.618 356.88 254.425 356.105 254.215Z" fill="#244029"/>
<path d="M366.231 256.713C364.085 258.602 361.456 259.96 358.66 260.627C358.027 260.779 357.277 260.866 356.797 260.434C356.177 259.874 356.431 258.857 356.806 258.117C358.16 255.449 360.556 253.313 363.381 252.251C364.347 251.889 365.531 251.679 366.347 252.309C367.11 252.898 367.235 254.038 366.897 254.935C366.56 255.832 365.864 256.544 365.189 257.227" fill="#C68148"/>
<path d="M380.348 287.635C379.861 281.536 383.64 275.901 387.907 271.468C392.173 267.036 397.177 263.126 400.194 257.783C400.836 260.294 400.482 262.936 400.036 265.484C399.069 271.032 397.661 276.576 394.977 281.54C392.294 286.508 388.223 290.891 383.007 293.159C382.769 293.262 382.515 293.365 382.257 293.332C381.877 293.282 381.598 292.957 381.423 292.624C380.336 290.574 381.794 288.154 383.194 286.294C386.215 282.281 389.236 278.268 392.257 274.255" fill="#C1D9C1"/>
<path d="M381.009 287.215C380.655 282.424 382.955 277.975 385.893 274.312C388.884 270.579 392.622 267.525 395.897 264.051C397.738 262.1 399.443 260.005 400.772 257.676C400.393 257.626 400.009 257.577 399.63 257.528C400.163 259.701 399.955 261.952 399.601 264.134C399.255 266.245 398.838 268.348 398.326 270.427C397.326 274.481 395.922 278.473 393.755 282.075C391.876 285.203 389.413 288.055 386.388 290.158C385.659 290.664 384.901 291.13 384.113 291.541C383.709 291.755 383.297 291.961 382.876 292.142C382.393 292.352 382.197 292.303 381.959 291.817C381.113 290.076 382.426 288.047 383.418 286.66C384.909 284.569 386.505 282.548 388.051 280.494C389.643 278.379 391.238 276.263 392.83 274.143C393.309 273.505 392.226 272.888 391.751 273.522C388.697 277.58 385.613 281.614 382.588 285.692C381.413 287.281 380.18 289.257 380.513 291.311C380.647 292.142 381.093 293.208 381.988 293.471C382.893 293.739 383.98 293.006 384.747 292.603C392.355 288.594 396.747 280.688 399.001 272.748C399.705 270.274 400.234 267.756 400.676 265.224C401.138 262.565 401.488 259.853 400.834 257.194C400.709 256.68 399.951 256.589 399.693 257.046C394.843 265.562 385.226 270.365 381.226 279.482C380.155 281.922 379.568 284.544 379.763 287.211C379.818 288.001 381.068 288.01 381.009 287.215Z" fill="#244029"/>
<path d="M383.861 303.749C382.848 300.312 380.511 297.514 377.857 295.159C374.802 292.455 371.398 290.117 368.127 287.681C366.023 286.108 363.919 284.54 361.815 282.968C361.532 282.754 361.136 282.943 360.961 283.19C360.227 284.223 360.619 285.495 361.111 286.541C361.657 287.705 362.277 288.841 362.877 289.981C364.119 292.336 365.44 294.661 366.99 296.834C369.965 301.004 373.852 304.568 378.811 306.239C381.482 307.14 384.344 307.379 387.107 306.782C387.894 306.614 387.561 305.42 386.773 305.593C382.186 306.585 377.494 304.926 373.815 302.23C369.865 299.341 367.115 295.135 364.798 290.928C364.14 289.73 363.511 288.52 362.89 287.302C362.411 286.368 361.307 284.841 362.04 283.812C361.757 283.886 361.469 283.96 361.186 284.034C364.786 286.722 368.386 289.405 371.986 292.093C374.815 294.204 377.707 296.332 379.948 299.073C381.161 300.559 382.119 302.238 382.661 304.074C382.877 304.84 384.086 304.515 383.861 303.749Z" fill="#244029"/>
<path d="M333.641 289.282C337.954 294.003 341.129 299.678 342.891 305.795C343.112 306.556 344.316 306.235 344.096 305.465C342.271 299.143 338.983 293.286 334.525 288.405C333.983 287.816 333.104 288.693 333.641 289.282Z" fill="#244029"/>
</g>
<defs>
<linearGradient id="paint0_linear_1269_7656" x1="232.458" y1="250.414" x2="232.458" y2="314.524" gradientUnits="userSpaceOnUse">
<stop stop-color="#B8D8D7"/>
<stop offset="0.1834" stop-color="#B1D3D3"/>
<stop offset="0.4502" stop-color="#9EC6C6"/>
<stop offset="0.7662" stop-color="#7EB1B2"/>
<stop offset="1" stop-color="#629EA0"/>
</linearGradient>
<clipPath id="clip0_1269_7656">
<rect width="600" height="270" fill="white" transform="translate(-74 33)"/>
</clipPath>
</defs>
</svg>
