<svg width="24" height="24" viewBox="0 0 24 24" fill="none" xmlns="http://www.w3.org/2000/svg">
<path fill-rule="evenodd" clip-rule="evenodd" d="M11.25 20C11.25 19.5858 11.5858 19.25 12 19.25H20C20.4143 19.25 20.75 19.5858 20.75 20C20.75 20.4142 20.4143 20.75 20 20.75H12C11.5858 20.75 11.25 20.4142 11.25 20Z" fill="#323232"/>
<path fill-rule="evenodd" clip-rule="evenodd" d="M17.9739 4.33781L18.0126 4.37027C18.3531 4.65596 18.6373 4.89445 18.8573 5.10618C19.0863 5.32658 19.2858 5.55484 19.4309 5.83364C19.7677 6.48058 19.8336 7.2348 19.6143 7.93039C19.5198 8.23016 19.363 8.48959 19.1758 8.74641C18.9959 8.99311 18.7574 9.27734 18.4717 9.61781L11.3992 18.0465C11.3761 18.074 11.3533 18.1012 11.3308 18.1281C10.9339 18.6019 10.62 18.9766 10.1962 19.2208C9.77248 19.4649 9.29086 19.5486 8.68188 19.6543C8.64735 19.6603 8.6124 19.6664 8.57704 19.6725L5.42711 20.2222C5.20917 20.2603 4.98556 20.2001 4.81609 20.0579C4.64661 19.9157 4.54857 19.706 4.54818 19.4847L4.54255 16.2872C4.54248 16.2513 4.54239 16.2158 4.5423 16.1808C4.54068 15.5627 4.5394 15.0739 4.70627 14.6141C4.87314 14.1544 5.18767 13.7802 5.58538 13.3071C5.60793 13.2802 5.63075 13.2531 5.65383 13.2256L12.7263 4.79691C13.012 4.45643 13.2505 4.17219 13.4622 3.9522C13.6826 3.7232 13.9109 3.52373 14.1897 3.3786C14.8366 3.04182 15.5909 2.97583 16.2865 3.19515C16.5862 3.28967 16.8457 3.44647 17.1025 3.63372C17.3492 3.8136 17.6334 4.05211 17.9739 4.33781ZM17.029 5.50311C16.6643 5.19701 16.4192 4.99189 16.2188 4.84576C16.0238 4.7036 15.915 4.65084 15.8354 4.62573C15.5192 4.52604 15.1764 4.55603 14.8823 4.70911C14.8083 4.74767 14.7103 4.81852 14.543 4.99237C14.371 5.17108 14.1653 5.41564 13.8592 5.78043L6.80289 14.1898C6.30429 14.784 6.1812 14.947 6.11626 15.1259C6.05133 15.3048 6.04118 15.5089 6.04254 16.2846L6.04661 18.5915L8.31917 18.1949C9.08331 18.0615 9.2825 18.0161 9.44739 17.9211C9.61229 17.8261 9.75149 17.6765 10.2501 17.0823L17.3064 8.67298C17.6125 8.30819 17.8176 8.0631 17.9637 7.86268C18.1059 7.66772 18.1586 7.55898 18.1838 7.47933C18.2834 7.16316 18.2535 6.82033 18.1004 6.52626C18.0618 6.45219 17.991 6.35426 17.8171 6.18695C17.6384 6.01494 17.3938 5.8092 17.029 5.50311Z" fill="#323232"/>
<path fill-rule="evenodd" clip-rule="evenodd" d="M11.4245 6.348C11.6908 6.0307 12.1639 5.98931 12.4812 6.25556L17.0774 10.1123C17.3947 10.3786 17.4361 10.8516 17.1699 11.1689C16.9036 11.4862 16.4306 11.5276 16.1132 11.2614L11.517 7.40463C11.1997 7.13837 11.1583 6.66531 11.4245 6.348Z" fill="#323232"/>
</svg>
