<svg width="744" height="611" viewBox="0 0 744 611" fill="none" xmlns="http://www.w3.org/2000/svg">
<g clip-path="url(#clip0_1792_9768)">
<g clip-path="url(#clip1_1792_9768)">
<path d="M275.185 579.67C397.331 579.67 496.35 480.651 496.35 358.505C496.35 236.359 397.331 137.34 275.185 137.34C153.039 137.34 54.0195 236.359 54.0195 358.505C54.0195 480.651 153.039 579.67 275.185 579.67Z" fill="#F6EDDE"/>
<path d="M184.887 550.097C185.786 536.201 185.906 522.24 185.24 508.328L194.4 510.175C194.175 523.428 195.034 536.706 196.969 549.824" fill="#C68148"/>
<path d="M1056.69 663.161C852.804 578.323 609.538 558.8 396.802 548.364C198.492 538.634 -12.7351 560.718 -186.015 618.205C-215.91 628.12 -192.156 626.675 -218.929 639.88C-238.773 649.666 -220.157 659.942 -239.801 671.189" fill="url(#paint0_linear_1792_9768)"/>
<path d="M502.046 660.92C445.321 650.886 341.209 626.65 283.746 608.363C257.696 600.078 242.805 593.11 243.607 588.293C244.474 583.067 264.48 574.646 266.888 572.238C283.762 555.363 228.732 550.9 218.721 548.957L202.457 550.041C210.164 551.959 217.742 554.384 225.127 557.298C229.511 559.032 234.713 562.789 233.075 567.212C232.328 569.219 230.345 570.455 228.483 571.507C219.307 576.693 182.596 580.265 186.61 596.321C193.634 624.41 280.013 647.073 326.261 651.809L502.046 660.92Z" fill="white"/>
<path d="M504.238 660.366C490.462 657.926 476.743 655.197 463.055 652.347C446.847 648.967 430.679 645.395 414.551 641.678C397.653 637.784 380.786 633.73 363.968 629.492C348.105 625.494 332.291 621.343 316.54 616.912C301.48 612.681 286.404 608.322 271.689 603.008C264.906 600.56 257.953 597.999 251.748 594.258C250.158 593.294 248.376 592.203 247.252 590.677C246.931 590.244 246.715 589.778 246.658 589.425C246.634 589.264 246.634 589.184 246.715 588.919C246.835 588.558 247.044 588.229 247.268 587.924C248.721 585.981 251.042 584.576 253.057 583.292C255.738 581.59 258.531 580.073 261.325 578.563C265.114 576.524 269.297 574.863 271.729 571.13C276.682 563.551 267.402 558.63 261.47 556.439C251.796 552.866 241.344 551.365 231.181 549.912C227.785 549.423 224.373 548.804 220.969 548.403C219.573 548.242 218.055 548.515 216.651 548.612C213.945 548.788 211.248 548.973 208.542 549.15C207.138 549.246 205.733 549.334 204.328 549.431C203.027 549.519 202.626 551.454 204.007 551.799C210.75 553.485 217.389 555.54 223.9 557.988C227.336 559.281 237.45 563.367 233.075 568.617C231.076 571.017 227.568 572.157 224.678 573.088C221.387 574.148 218.047 575.031 214.724 575.97C207.764 577.945 200.426 579.952 194.261 583.862C189.236 587.041 185.679 591.89 187.534 598.023C189.123 603.265 192.928 607.6 196.991 611.132C202.538 615.957 208.944 619.738 215.478 623.061C232.104 631.507 250.086 637.319 268.052 642.135C285.922 646.92 304.129 650.693 322.497 652.981C324.375 653.214 326.254 653.43 328.132 653.623C329.674 653.784 329.658 651.375 328.132 651.215C310.262 649.368 292.529 645.86 275.117 641.485C256.709 636.861 238.309 631.234 221.106 623.142C214.202 619.898 207.378 616.23 201.309 611.574C196.95 608.226 192.567 604.116 190.408 598.946C189.436 596.618 188.939 594.049 189.974 591.649C191.09 589.048 193.49 587.177 195.843 585.732C202.096 581.895 209.458 579.968 216.458 578.001C219.661 577.102 222.888 576.243 226.051 575.192C229.053 574.188 232.385 572.92 234.593 570.56C238.293 566.618 235.733 561.922 231.992 559.232C229.656 557.555 226.942 556.583 224.269 555.58C221.018 554.36 217.726 553.244 214.411 552.216C211.184 551.221 207.932 550.322 204.657 549.495C204.553 550.282 204.44 551.068 204.336 551.863C208.486 551.59 212.637 551.309 216.795 551.036C217.774 550.972 218.746 550.908 219.725 550.844C219.95 550.827 220.183 550.803 220.416 550.795C220.825 550.787 220.167 550.739 220.632 550.803C222.101 550.996 223.57 551.269 225.04 551.478C234.85 552.866 244.724 554.175 254.309 556.736C258.644 557.892 263.147 559.249 266.953 561.697C269.273 563.198 271.472 565.43 270.493 568.296C269.176 572.125 265.323 573.699 262.007 575.473C256.894 578.218 251.363 580.851 246.996 584.753C245.687 585.917 244.218 587.482 244.25 589.361C244.274 590.822 245.205 592.106 246.185 593.102C249.886 596.867 255.409 599.066 260.169 601.097C274.924 607.383 290.45 611.903 305.839 616.366C321.004 620.773 336.256 624.876 351.541 628.817C368.263 633.128 385.041 637.246 401.851 641.196C418.236 645.049 434.653 648.758 451.11 652.283C465.552 655.373 480.034 658.343 494.556 661.049C497.575 661.611 500.585 662.157 503.603 662.695C505.113 662.959 505.763 660.639 504.238 660.366Z" fill="#244029"/>
<path d="M190.259 549.993C191.158 536.088 191.27 522.144 190.612 508.224C190.106 508.609 189.593 508.995 189.087 509.388C192.137 510.006 195.196 510.616 198.246 511.234C197.949 510.849 197.66 510.464 197.363 510.07C197.147 523.445 198.038 536.811 199.98 550.041C200.205 551.566 202.525 550.916 202.3 549.398C200.39 536.385 199.563 523.22 199.772 510.07C199.78 509.573 199.394 509.011 198.889 508.906C195.838 508.288 192.78 507.678 189.729 507.06C188.998 506.915 188.164 507.389 188.204 508.224C188.862 522.144 188.742 536.088 187.85 549.993C187.754 551.534 190.162 551.534 190.259 549.993Z" fill="#244029"/>
<path d="M424.626 449.629C453.671 428.307 493.593 433.076 529.164 438.808C560.191 443.809 591.211 448.802 622.238 453.803C646.289 457.681 670.493 461.59 693.484 469.658C693.003 478.015 681.788 480.207 673.423 479.974C580.132 477.405 486.849 474.836 393.559 472.267C402.389 463.517 413.877 457.504 426.095 455.232L424.626 449.629Z" fill="white"/>
<path d="M906.888 608.3C839.487 595.56 771.845 584.072 703.906 574.535C636.737 565.102 569.288 557.564 501.638 552.579C433.675 547.578 365.511 545.153 297.363 545.988C230.066 546.815 162.785 550.797 95.9218 558.56C30.0298 566.21 -35.4608 577.513 -99.9319 593.159C-107.863 595.086 -115.779 597.077 -123.678 599.132C-125.179 599.517 -124.545 601.845 -123.036 601.452C-58.4523 584.682 7.22293 572.279 73.3959 563.729C139.465 555.196 205.999 550.443 272.597 548.846C339.886 547.232 407.231 548.87 474.399 553.125C542.676 557.444 610.767 564.46 678.57 573.483C746.485 582.522 814.119 593.593 881.496 606.004C889.749 607.521 898.001 609.07 906.246 610.628C907.763 610.909 908.413 608.589 906.888 608.3Z" fill="#244029"/>
<path d="M24.3466 247.522C69.9363 248.004 115.462 254.555 159.334 266.95C143.126 268.86 126.741 268.595 110.42 268.322C70.4501 267.656 30.4798 266.982 -9.49052 266.315C-12.1397 266.267 -14.9093 266.195 -17.2213 264.895C-19.5253 263.594 -21.1388 260.64 -20.031 258.24C-19.0998 256.217 -16.7316 255.35 -14.5962 254.723C-3.52588 251.504 7.90567 249.529 19.4175 248.839L24.3466 247.522Z" fill="white"/>
<path d="M437.472 449.629C466.516 428.307 506.438 433.076 542.01 438.808C573.037 443.809 604.056 448.802 635.084 453.803C659.135 457.681 683.339 461.59 706.33 469.658C705.848 478.015 694.634 480.207 686.269 479.974C592.978 477.405 499.695 474.836 406.404 472.267C415.235 463.517 426.723 457.504 438.941 455.232L437.472 449.629Z" fill="#B8D8D7"/>
<path d="M11.5028 248.325C57.0926 248.807 102.618 255.358 146.49 267.752C130.282 269.663 113.897 269.398 97.5767 269.125C57.6063 268.459 17.636 267.785 -22.3343 267.118C-24.9834 267.07 -27.753 266.998 -30.065 265.697C-32.369 264.397 -33.9826 261.443 -32.8748 259.042C-31.9435 257.019 -29.5753 256.152 -27.4399 255.526C-16.3696 252.307 -4.93808 250.332 6.57375 249.642L11.5028 248.325Z" fill="#B8D8D7"/>
<path d="M11.4985 249.528C29.272 249.721 47.0294 250.828 64.6905 252.843C82.3035 254.858 99.8201 257.789 117.128 261.61C126.874 263.761 136.555 266.194 146.164 268.907C146.269 268.12 146.381 267.334 146.486 266.539C130.775 268.377 114.936 268.201 99.1538 267.936C83.0501 267.671 66.9543 267.398 50.8506 267.125C34.8111 266.86 18.7636 266.587 2.7241 266.322C-5.35987 266.186 -13.4519 266.049 -21.5358 265.913C-24.6827 265.856 -28.7689 266.065 -30.9765 263.368C-31.8034 262.348 -32.3493 260.887 -31.8275 259.611C-31.3137 258.358 -29.9409 257.652 -28.7448 257.202C-25.3651 255.934 -21.7125 255.163 -18.1963 254.369C-14.4473 253.518 -10.6662 252.803 -6.86909 252.233C-3.04787 251.655 0.797424 251.238 4.65076 250.957C5.63818 250.885 6.59349 250.861 7.55682 250.612C8.43185 250.379 9.31491 250.146 10.1899 249.913C10.7278 249.769 11.2737 249.624 11.8115 249.48C13.3047 249.078 12.6705 246.758 11.1693 247.16C9.70827 247.553 8.24721 247.938 6.77813 248.332C5.60607 248.645 4.32162 248.581 3.10943 248.677C1.12657 248.838 -0.848259 249.046 -2.81506 249.279C-10.6823 250.234 -18.4773 251.76 -26.1117 253.887C-28.9455 254.674 -32.5419 255.501 -33.9307 258.431C-35.2794 261.265 -33.7782 264.508 -31.402 266.266C-28.504 268.417 -24.5703 268.289 -21.1505 268.345C-17.0082 268.417 -12.8658 268.482 -8.71548 268.554C7.9261 268.835 24.5677 269.108 41.2173 269.389C57.8589 269.67 74.5005 269.943 91.1501 270.224C107.559 270.496 124.024 270.994 140.392 269.581C142.423 269.405 144.455 269.196 146.478 268.963C147.754 268.811 148.203 266.996 146.799 266.595C129.627 261.754 112.215 257.797 94.6341 254.746C77.0774 251.703 59.3681 249.552 41.5946 248.324C31.5759 247.633 21.5332 247.232 11.4824 247.12C9.9491 247.104 9.94909 249.512 11.4985 249.528Z" fill="#B8D8D7"/>
<path d="M322.578 289.779C315.184 297.237 310.392 306.967 308.417 317.242C309.091 317.066 309.757 316.889 310.432 316.713C303.865 311.101 295.195 307.866 286.517 308.942C285 309.126 284.984 311.543 286.517 311.35C294.561 310.355 302.621 313.196 308.73 318.422C309.356 318.96 310.56 318.848 310.745 317.893C312.647 308.01 317.167 298.674 324.288 291.497C325.371 290.381 323.67 288.68 322.578 289.779Z" fill="#244029"/>
<path d="M416.793 347.836C407.248 350.381 398.417 355.503 391.489 362.551C390.662 363.394 389.86 364.261 389.089 365.16C388.423 365.939 387.596 367.352 386.408 367.063C385.3 366.798 384.409 365.682 383.582 364.976C382.627 364.157 381.631 363.394 380.604 362.68C376.742 360.006 372.303 358.104 367.719 357.092C362.381 355.912 356.841 355.912 351.511 357.149C350.002 357.502 350.644 359.822 352.153 359.469C361.57 357.277 371.757 359.372 379.64 364.936C380.58 365.602 381.479 366.324 382.346 367.087C383.293 367.93 384.248 368.853 385.477 369.287C388.11 370.21 389.675 368.115 391.216 366.372C394.419 362.744 398.112 359.557 402.174 356.924C406.879 353.881 412.024 351.601 417.435 350.156C418.928 349.763 418.294 347.435 416.793 347.836Z" fill="#244029"/>
<path d="M367.021 322.164C363.409 322.854 359.9 323.986 356.569 325.543C355.766 325.921 354.827 326.587 353.904 326.354C352.932 326.113 351.969 325.455 351.078 325.014C349.28 324.131 347.481 323.248 345.683 322.364C344.704 321.883 343.837 323.352 344.824 323.842C346.807 324.813 348.782 325.784 350.765 326.748C352.523 327.607 353.96 328.53 355.927 327.719C357.757 326.964 359.499 326.065 361.378 325.415C363.368 324.725 365.415 324.195 367.487 323.793C368.546 323.601 368.089 321.955 367.021 322.164Z" fill="#244029"/>
<path d="M291.761 339.448C286.711 342.812 282.143 346.842 278.21 351.466C278.78 351.466 279.342 351.466 279.912 351.466C276.235 347.886 271.017 346.071 265.911 346.738C265.261 346.826 264.715 347.227 264.707 347.942C264.699 348.528 265.269 349.226 265.911 349.146C270.415 348.56 274.943 349.989 278.21 353.168C278.651 353.593 279.486 353.674 279.912 353.168C283.709 348.696 288.092 344.779 292.973 341.528C294.265 340.677 293.061 338.589 291.761 339.448Z" fill="#244029"/>
<path d="M333.361 378.109C330.873 378.101 328.416 379.097 326.658 380.871C326.241 381.296 325.895 381.77 325.542 382.244C325.101 382.838 324.836 382.902 324.161 382.581C322.724 381.89 321.312 381.136 319.891 380.413C318.911 379.916 318.052 381.393 319.032 381.89C320.493 382.629 321.938 383.4 323.407 384.114C324.78 384.78 325.919 384.572 326.843 383.344C327.613 382.324 328.4 381.449 329.532 380.807C330.704 380.14 332.013 379.811 333.353 379.819C334.461 379.819 334.461 378.117 333.361 378.109Z" fill="#244029"/>
<path d="M216.708 333.242C222.994 378.414 229.287 424.188 223.82 469.465C222.801 477.91 221.308 486.508 217.133 493.926C212.959 501.343 205.63 507.461 197.144 508.095C183.457 509.122 172.78 496.326 167.241 483.771C157.286 461.205 155.681 435.732 157.928 411.167C160.168 386.602 166.077 362.551 170.596 338.307C179.459 290.759 183.015 242.215 181.177 193.88C181.065 190.861 181.04 187.505 183.071 185.266C186.026 182.006 191.798 183.275 194.623 186.638C197.449 190.002 198.132 194.626 198.702 198.985C205.894 253.879 213.079 308.773 220.272 363.659" fill="white"/>
<path d="M209.79 333.941C216.076 379.113 222.369 424.888 216.903 470.164C215.883 478.61 214.39 487.207 210.215 494.625C206.041 502.043 198.712 508.16 190.226 508.794C176.539 509.822 165.862 497.025 160.323 484.47C150.368 461.904 148.763 436.432 151.011 411.867C153.25 387.302 159.159 363.25 163.678 339.007C172.541 291.458 176.097 242.914 174.259 194.579C174.147 191.56 174.122 188.205 176.154 185.965C179.108 182.706 184.88 183.974 187.705 187.338C190.531 190.701 191.214 195.325 191.784 199.684C198.976 254.578 209.79 333.941 209.79 333.941Z" fill="#5D8C60"/>
<path d="M221.83 364.679C218.265 337.448 214.693 310.21 211.129 282.98C207.588 255.958 204.048 228.937 200.508 201.915C199.825 196.73 199.384 190.958 195.82 186.807C193.154 183.7 188.161 182.063 184.372 184.038C179.539 186.558 180.246 192.876 180.406 197.42C180.639 204.147 180.759 210.874 180.784 217.602C180.872 244.415 179.298 271.235 176.095 297.855C174.482 311.214 172.451 324.524 170.01 337.762C167.578 350.927 164.728 364.012 162.239 377.162C157.535 402.056 154.171 427.544 157.599 452.832C159.197 464.665 162.231 476.53 167.441 487.319C171.624 495.981 178.118 504.691 187.222 508.544C196.695 512.558 206.874 509.315 213.754 502.034C221.765 493.549 224.029 481.659 225.378 470.477C227.891 449.653 227.465 428.467 226.141 407.571C225.265 393.811 223.949 380.068 222.078 366.405C221.982 365.722 221.894 365.04 221.789 364.358C221.565 362.832 219.245 363.482 219.469 365C220.834 374.2 221.789 383.528 222.608 392.816C224.334 412.299 225.265 431.935 224.455 451.491C224.013 462.176 223.363 473.23 220.641 483.61C218.008 493.661 211.98 504.049 201.391 507.18C191.477 510.11 182.365 504.314 176.272 496.872C169.328 488.395 165.459 477.565 162.785 467.065C156.764 443.455 157.993 418.673 161.637 394.799C165.507 369.431 171.704 344.497 175.598 319.129C179.507 293.665 181.924 267.968 182.815 242.215C183.264 229.29 183.32 216.349 182.999 203.417C182.919 200.334 182.791 197.259 182.71 194.185C182.646 191.728 182.614 188.67 184.557 186.847C186.218 185.298 188.723 185.37 190.73 186.125C193.042 187 194.631 188.822 195.683 191.006C196.847 193.43 197.313 196.16 197.69 198.809C198.156 202.076 198.549 205.351 198.983 208.619C199.833 215.105 200.684 221.6 201.535 228.086C203.245 241.171 204.963 254.257 206.673 267.342C210.085 293.408 213.497 319.466 216.917 345.532C217.752 351.914 218.586 358.297 219.421 364.679C219.622 366.188 222.03 366.212 221.83 364.679Z" fill="#244029"/>
<path d="M376.267 600.118C373.963 595.63 371.948 591.014 370.23 586.27C370.005 585.66 369.411 585.25 368.745 585.427C368.151 585.588 367.685 586.294 367.902 586.912C369.684 591.849 371.787 596.666 374.179 601.338C374.902 602.711 376.981 601.491 376.267 600.118Z" fill="#5D8C60"/>
<path d="M385.025 598.56C384.551 596.184 384.551 593.607 385.025 591.223C385.146 590.604 384.848 589.89 384.182 589.737C383.588 589.601 382.833 589.914 382.697 590.58C382.127 593.438 382.127 596.336 382.697 599.194C382.825 599.836 383.588 600.198 384.182 600.037C384.857 599.852 385.154 599.194 385.025 598.56Z" fill="#5D8C60"/>
<path d="M391.166 597.983C391.375 596.755 391.575 595.526 391.784 594.29C391.84 593.961 391.84 593.656 391.664 593.359C391.519 593.11 391.23 592.869 390.941 592.805C390.636 592.733 390.283 592.749 390.01 592.925C389.761 593.086 389.504 593.343 389.456 593.648C389.247 594.876 389.047 596.104 388.838 597.341C388.782 597.67 388.782 597.975 388.958 598.272C389.103 598.521 389.392 598.762 389.681 598.826C389.986 598.898 390.339 598.882 390.612 598.705C390.861 598.545 391.118 598.288 391.166 597.983Z" fill="#5D8C60"/>
<path d="M365.231 601.33C364.204 599.491 363.168 597.645 362.141 595.807C361.836 595.253 361.033 595.028 360.495 595.373C359.941 595.734 359.732 596.433 360.061 597.019C361.089 598.857 362.125 600.704 363.152 602.542C363.457 603.096 364.26 603.321 364.798 602.976C365.352 602.614 365.56 601.916 365.231 601.33Z" fill="#5D8C60"/>
<path d="M463.108 613.361C461.856 610.295 460.603 607.236 459.343 604.17C459.094 603.568 458.54 603.142 457.858 603.327C457.288 603.487 456.766 604.202 457.015 604.812C458.267 607.879 459.52 610.937 460.78 614.004C461.029 614.606 461.583 615.031 462.265 614.847C462.835 614.686 463.349 613.972 463.108 613.361Z" fill="#5D8C60"/>
<path d="M469.892 613.934C469.908 614.022 469.9 613.99 469.884 613.837C469.876 613.765 469.868 613.701 469.86 613.629C469.844 613.492 469.828 613.348 469.82 613.211C469.796 612.906 469.772 612.601 469.764 612.296C469.74 611.71 469.748 611.124 469.772 610.538C469.836 609.334 469.981 608.362 470.262 607.166C470.406 606.556 470.069 605.834 469.419 605.681C468.801 605.537 468.094 605.866 467.934 606.524C467.299 609.181 467.195 611.878 467.564 614.576C467.653 615.202 468.487 615.595 469.049 615.419C469.74 615.186 469.989 614.6 469.892 613.934Z" fill="#5D8C60"/>
<path d="M476.762 614.945C477.164 613.917 477.565 612.89 477.966 611.862C478.071 611.589 477.99 611.18 477.846 610.931C477.701 610.682 477.412 610.441 477.123 610.377C476.818 610.305 476.465 610.321 476.192 610.498C475.911 610.674 475.759 610.907 475.638 611.22C475.237 612.248 474.836 613.275 474.434 614.303C474.33 614.576 474.41 614.985 474.555 615.234C474.699 615.483 474.988 615.724 475.277 615.788C475.582 615.86 475.935 615.844 476.208 615.668C476.489 615.483 476.65 615.25 476.762 614.945Z" fill="#5D8C60"/>
<path d="M68.3708 562.226C62.7755 573.144 58.2719 584.624 54.9805 596.449C51.665 608.33 49.5617 620.548 48.6947 632.854C48.205 639.766 48.1248 646.702 48.4378 653.622C48.5101 655.164 50.9184 655.172 50.8462 653.622C50.3003 641.516 50.9666 629.354 52.8772 617.385C54.7798 605.432 57.8785 593.663 62.1172 582.32C64.5255 575.873 67.3192 569.571 70.4581 563.446C71.1565 562.066 69.0853 560.845 68.3708 562.226Z" fill="#244029"/>
<path d="M91.8416 536.94C98.4806 536.419 106.043 536.21 110.747 540.922C116.696 546.871 114.568 556.793 112.032 564.813C111.686 565.897 111.06 567.205 109.92 567.189C109.246 567.181 108.692 566.683 108.21 566.21C99.7972 557.949 92.0664 547.625 80.5706 545C87.1454 551.944 90.3886 561.915 89.1443 571.396C88.6306 575.329 86.158 580.025 82.2244 579.528C78.6841 579.078 77.215 574.807 76.6451 571.275C75.2242 562.437 74.6462 553.454 74.9352 544.503C73.2573 558.326 62.3235 570.545 48.7646 573.732C48.01 573.908 47.2152 574.061 46.4687 573.868C43.9961 573.234 43.8516 569.766 44.4938 567.301C47.1912 556.994 54.3278 547.93 63.7123 542.889C55.0503 541.468 47.9136 549.568 39.4845 551.993C37.3892 552.595 34.5635 552.514 33.7045 550.515C33.1666 549.271 33.6804 547.834 34.2905 546.63C39.9822 535.391 55.2912 530.245 66.6104 535.768C63.4474 534.355 60.8625 531.706 59.5298 528.519C59.0161 527.291 58.7271 525.758 59.562 524.722C60.5092 523.542 62.3476 523.67 63.8006 524.104C68.2159 525.429 72.0532 528.584 74.1966 532.67C74.5097 528.848 76.1714 525.156 78.8286 522.386C79.527 521.656 80.3379 520.973 81.3172 520.74C83.6774 520.194 85.8529 522.675 85.9573 525.091C86.0617 527.508 84.7611 529.748 83.5088 531.819C90.3806 527.965 99.6045 528.856 105.617 533.954C99.2352 535.415 92.5963 535.768 86.0938 534.99L91.8416 536.94Z" fill="white"/>
<path d="M89.0819 536.948C95.7209 536.427 103.283 536.218 107.987 540.93C113.936 546.879 111.809 556.801 109.272 564.821C108.927 565.905 108.3 567.213 107.16 567.197C106.486 567.189 105.932 566.691 105.451 566.218C97.0374 557.957 89.3067 547.633 77.8109 545.008C84.3857 551.952 87.6289 561.923 86.3846 571.396C85.8708 575.329 83.3982 580.025 79.4646 579.528C75.9244 579.078 74.4553 574.807 73.8853 571.275C72.4644 562.437 71.8864 553.454 72.1754 544.503C70.4976 558.326 59.5637 570.545 46.0048 573.732C45.2502 573.908 44.4555 574.061 43.7089 573.868C41.2363 573.234 41.0918 569.766 41.7341 567.301C44.4314 556.994 51.5681 547.93 60.9526 542.889C52.2906 541.468 45.1539 549.568 36.7247 551.993C34.6295 552.595 31.8037 552.514 30.9447 550.515C30.4069 549.271 30.9206 547.834 31.5307 546.63C37.2224 535.391 52.5314 530.245 63.8506 535.768C60.6876 534.355 58.1027 531.706 56.7701 528.519C56.2563 527.291 55.9673 525.758 56.8022 524.722C57.7495 523.542 59.5878 523.67 61.0409 524.104C65.4561 525.429 69.2934 528.584 71.4368 532.67C71.7499 528.848 73.4117 525.156 76.0689 522.386C76.7673 521.656 77.5781 520.973 78.5575 520.74C80.9176 520.194 83.0932 522.675 83.1975 525.091C83.3019 527.508 82.0014 529.748 80.7491 531.819C87.6208 527.965 96.8447 528.856 102.858 533.954C96.4755 535.415 89.8365 535.768 83.334 534.99L89.0819 536.948Z" fill="#F05A7E"/>
<path d="M92.7353 537.694C97.9132 537.293 103.83 536.859 108.502 539.573C113.198 542.302 114.539 547.56 114.218 552.666C114.049 555.363 113.479 558.029 112.773 560.63C112.435 561.89 112.114 563.206 111.633 564.427C111.504 564.756 111.247 565.51 110.814 565.534C110.316 565.567 109.626 564.587 109.305 564.266C105.355 560.332 101.67 556.126 97.5198 552.393C92.9761 548.307 87.8143 544.799 81.7854 543.386C80.6133 543.113 79.7785 544.51 80.6133 545.401C83.8967 548.901 86.3131 553.132 87.7099 557.723C89.0425 562.107 89.6526 567.14 88.6973 571.66C88.0872 574.534 85.2614 580.073 81.5927 577.159C80.0835 575.963 79.4252 573.843 79.0078 572.045C78.4057 569.468 78.1328 566.787 77.8438 564.17C77.0972 557.491 76.8403 550.771 77.041 544.052C77.0891 542.463 74.8173 542.559 74.6326 544.052C73.3562 554.175 66.926 563.367 58.1998 568.529C56.0243 569.821 53.7123 570.857 51.2879 571.595C50.2282 571.917 48.4701 572.663 47.4024 572.157C46.6077 571.78 46.3749 570.769 46.3026 569.966C46.0779 567.509 47.1455 564.924 48.0446 562.693C49.0401 560.204 50.3406 557.828 51.8418 555.604C55.2536 550.555 59.8776 546.372 65.2321 543.466C66.075 543.009 65.9947 541.427 64.9431 541.266C59.9498 540.504 55.4222 542.471 51.1514 544.863C48.9357 546.107 46.7682 547.448 44.4883 548.588C42.4734 549.599 40.1052 550.779 37.7932 550.651C32.1336 550.338 39.2944 542.117 40.9963 540.576C44.2475 537.63 48.3417 535.671 52.6205 534.78C57.389 533.793 62.4866 534.234 66.8939 536.345C67.2953 535.655 67.7047 534.957 68.1061 534.266C65.8743 533.239 63.9396 531.665 62.599 529.602C61.724 528.262 59.7572 524.521 62.7837 524.529C65.0475 524.537 67.504 525.966 69.2781 527.266C71.269 528.727 72.8746 530.638 74.0386 532.813C74.6487 533.953 76.182 533.311 76.2864 532.203C76.479 530.068 77.1213 527.981 78.1488 526.102C79.0158 524.521 80.4367 522.168 82.2349 521.526C83.9529 520.916 85.422 522.891 85.6227 524.4C85.9197 526.672 84.4747 528.904 83.3588 530.758C82.7246 531.818 83.969 532.974 85.0045 532.404C91.4669 528.856 99.9763 529.618 105.652 534.347C105.829 533.672 106.005 533.006 106.182 532.332C99.88 533.752 93.4016 534.074 86.9794 533.327C85.5665 533.166 85.4461 535.278 86.6583 535.695C88.5689 536.345 90.4795 537.004 92.3901 537.654C93.8592 538.16 94.4934 535.832 93.0323 535.334C91.1217 534.684 89.2111 534.025 87.3005 533.375C87.1961 534.162 87.0837 534.949 86.9794 535.743C93.6103 536.514 100.314 536.129 106.824 534.668C107.659 534.475 108.044 533.231 107.354 532.653C100.819 527.21 91.2582 526.23 83.7843 530.333C84.3302 530.879 84.8841 531.432 85.43 531.978C86.9392 529.466 88.5849 526.527 87.8785 523.493C87.3406 521.181 85.2454 518.925 82.7327 519.022C80.0112 519.126 77.9722 521.823 76.6396 523.91C75.0421 526.415 74.1349 529.273 73.87 532.219C74.6166 532.019 75.3632 531.818 76.1178 531.609C74.6086 528.799 72.4009 526.415 69.7357 524.673C67.4558 523.188 63.9557 521.422 61.162 522.377C57.678 523.565 58.6895 527.611 60.0462 530.044C61.5875 532.805 64.0199 535.037 66.8939 536.353C68.2827 536.996 69.5109 534.949 68.1061 534.274C59.139 529.963 48.1891 531.754 40.4905 537.863C38.5879 539.372 36.9182 541.17 35.5534 543.177C34.1165 545.288 32.254 548.347 33.6589 550.892C34.8952 553.132 37.8413 553.324 40.0731 552.859C42.7062 552.305 45.243 550.972 47.579 549.68C52.6365 546.894 58.1597 542.663 64.2848 543.603C64.1885 542.872 64.0922 542.134 63.9958 541.403C58.6734 544.293 54.0896 548.387 50.5252 553.284C48.7671 555.708 47.282 558.318 46.11 561.071C45.0182 563.64 43.8461 566.514 43.8461 569.348C43.8461 571.917 45.0985 574.638 48.0045 574.718C49.4415 574.758 50.9668 574.229 52.3235 573.795C53.6962 573.354 55.0449 572.824 56.3534 572.214C61.5233 569.821 66.0991 566.112 69.6073 561.633C73.6051 556.519 76.2061 550.506 77.0169 544.052C76.2141 544.052 75.4113 544.052 74.6086 544.052C74.4079 550.771 74.6648 557.491 75.4113 564.17C75.7405 567.132 76.0214 570.191 76.76 573.081C77.2898 575.176 78.1889 577.424 79.8748 578.869C81.5044 580.265 83.7763 580.723 85.7752 579.888C87.8624 579.021 89.2593 577.062 90.1182 575.047C92.1252 570.367 91.7479 564.579 90.6882 559.706C89.3957 553.734 86.4656 548.162 82.2911 543.707C81.8978 544.381 81.5125 545.048 81.1191 545.722C86.9553 547.095 91.8843 550.531 96.2434 554.52C98.4912 556.583 100.619 558.775 102.73 560.983C103.806 562.107 104.873 563.231 105.957 564.338C106.952 565.366 107.948 566.586 109.136 567.389C110.388 568.24 111.914 568.055 112.917 566.923C113.856 565.856 114.186 564.33 114.579 563.006C115.406 560.204 116.08 557.354 116.433 554.448C117.108 548.877 116.233 542.744 111.705 538.93C106.479 534.531 99.1174 534.796 92.7112 535.294C91.202 535.406 91.1859 537.815 92.7353 537.694Z" fill="#244029"/>
<path d="M77.1361 543.802C74.3183 543.529 71.5006 543.256 68.6828 542.983C67.4305 542.862 65.8811 542.501 65.5921 541.281C65.3593 540.301 66.1059 539.37 66.8525 538.696C71.4845 534.505 78.3081 532.884 84.337 534.537C85.3806 534.826 86.4804 535.26 87.0343 536.191C88.086 537.941 86.6249 540.133 85.0434 541.417C82.7395 543.28 79.994 544.58 77.0879 545.182L77.1361 543.802Z" fill="#F6EDDE"/>
<path d="M-5.89695 589.175C-0.678898 603.81 2.1228 619.263 2.3235 634.805C2.37969 639.18 2.22716 643.563 1.88197 647.922C1.76155 649.464 4.16988 649.456 4.2903 647.922C5.53461 632.292 4.18594 616.461 0.316551 601.265C-0.775227 596.962 -2.08375 592.715 -3.56889 588.533C-4.0907 587.08 -6.41876 587.706 -5.89695 589.175Z" fill="#244029"/>
<path d="M-0.613544 566.05C2.56545 558.937 8.89937 553.301 16.3331 550.973C18.324 550.347 20.6761 550.01 22.3459 551.262C24.9389 553.213 23.9996 557.331 22.3379 560.125C17.7299 567.888 9.8868 573.082 2.3166 578.003L4.98984 579.046C9.13217 578.115 13.3949 577.738 17.6336 577.939C19.5281 578.027 21.8562 578.581 22.2977 580.427C22.659 581.945 21.4709 583.365 20.2828 584.377C13.4832 590.173 3.52076 591.995 -4.89236 588.985L-8.19979 593.818C-8.37641 604.173 -13.5302 614.337 -21.7748 620.614C-24.6969 622.838 -29.1684 624.46 -31.7453 621.843C-33.3267 620.229 -33.399 617.692 -33.1662 615.444C-31.9781 603.957 -25.307 593.151 -15.5613 586.954C-24.3437 596.234 -33.8485 605.948 -46.2755 608.91C-49.599 609.705 -53.9421 609.488 -55.3389 606.381C-56.511 603.764 -54.777 600.794 -52.9466 598.586C-44.5897 588.479 -32.548 581.503 -19.6233 579.279L-24.7772 580.459C-28.486 582.193 -32.3393 583.96 -36.4335 583.951C-40.5277 583.943 -44.9108 581.591 -45.9063 577.626C-47.1024 572.833 -42.944 568.233 -38.4244 566.25C-29.8587 562.493 -18.9731 564.966 -12.88 572.054C-17.8412 565.841 -18.6279 556.609 -14.7906 549.641C-13.4339 547.176 -11.4591 544.928 -8.85004 543.861C-6.24102 542.793 -2.94962 543.13 -1.0069 545.169C0.959908 547.232 1.14454 550.387 0.927784 553.229C0.430065 559.732 -1.57688 566.114 -4.90038 571.717" fill="white"/>
<path d="M0.430569 566.66C2.10837 562.951 4.58093 559.7 7.69571 557.075C10.6258 554.603 14.3909 552.435 18.2041 551.745C20.0264 551.416 22.1216 551.769 22.6354 553.808C23.0528 555.462 22.4347 557.348 21.6881 558.817C19.8096 562.494 16.7912 565.641 13.7085 568.33C9.99165 571.573 5.84129 574.279 1.71502 576.968C0.791821 577.57 1.04068 578.798 2.00402 579.168C2.75863 579.465 3.50521 579.754 4.25982 580.051C4.7174 580.227 4.99035 580.267 5.51215 580.171C6.58788 579.97 7.65556 579.738 8.73129 579.577C10.7864 579.272 12.8656 579.119 14.9448 579.095C16.5584 579.079 18.4048 578.951 19.9381 579.577C23.687 581.118 17.6742 584.948 16.1811 585.815C13.267 587.517 9.99165 588.616 6.64407 589.026C2.86299 589.483 -0.958244 589.082 -4.55469 587.822C-5.08452 587.637 -5.62237 587.95 -5.91137 588.375C-6.74626 589.604 -7.58918 590.824 -8.42407 592.052C-8.70504 592.462 -9.09037 592.887 -9.27501 593.353C-9.52387 593.979 -9.41148 594.87 -9.45162 595.544C-9.50782 596.379 -9.59612 597.206 -9.72456 598.025C-10.6718 604.118 -13.2969 609.962 -17.2707 614.682C-19.1893 616.954 -21.4451 619.218 -24.0541 620.687C-26.2136 621.899 -29.8101 622.999 -31.3675 620.31C-32.7643 617.894 -31.8652 614.225 -31.3113 611.672C-30.669 608.734 -29.6736 605.868 -28.349 603.163C-25.3225 597.005 -20.6905 591.691 -14.9105 587.982C-15.4002 587.348 -15.8819 586.722 -16.3716 586.088C-24.7365 594.926 -33.8721 604.519 -46.0824 607.618C-48.282 608.18 -51.2683 608.565 -53.2191 607.096C-55.8281 605.129 -53.789 601.605 -52.2557 599.671C-48.4666 594.886 -43.6419 590.824 -38.4479 587.653C-32.5636 584.065 -26.0531 581.608 -19.2616 580.42C-19.4783 579.649 -19.687 578.871 -19.9038 578.1C-21.0758 578.365 -22.2479 578.638 -23.428 578.903C-23.9418 579.023 -24.4716 579.103 -24.9773 579.256C-26.0129 579.569 -27.0003 580.171 -27.9878 580.605C-32.5395 582.579 -38.4399 584.145 -42.6384 580.516C-44.3724 579.023 -45.2475 576.807 -44.7096 574.536C-44.1637 572.24 -42.51 570.305 -40.6556 568.924C-36.8825 566.122 -31.817 565.288 -27.2171 565.825C-22.0231 566.436 -17.1262 568.932 -13.6823 572.874C-12.6467 574.062 -11.0492 572.36 -11.9804 571.172C-16.8532 564.958 -17.3349 555.614 -12.9678 549.007C-10.9047 545.892 -6.84259 543.059 -3.05349 545.058C0.823933 547.105 -0.0270119 552.853 -0.605011 556.401C-1.4399 561.579 -3.23813 566.548 -5.89532 571.068C-6.68204 572.408 -4.60284 573.62 -3.81612 572.28C-1.0626 567.592 0.848015 562.406 1.71502 557.035C2.42949 552.596 3.13593 546.567 -0.998375 543.508C-4.97213 540.57 -10.3427 542.32 -13.4173 545.676C-16.5241 549.063 -18.1136 553.687 -18.3464 558.223C-18.6113 563.497 -16.9415 568.715 -13.6903 572.858C-13.1203 572.288 -12.5584 571.726 -11.9884 571.156C-18.8521 563.297 -31.9294 560.503 -40.9847 566.227C-45.4321 569.037 -49.1008 574.592 -46.275 579.802C-43.5456 584.843 -37.0752 585.807 -32.0016 584.538C-30.2034 584.089 -28.4694 583.398 -26.7756 582.66C-25.7962 582.234 -24.865 581.672 -23.8214 581.439C-22.3041 581.094 -20.7868 580.749 -19.2696 580.396C-17.7443 580.043 -18.4026 577.811 -19.9118 578.076C-33.0131 580.372 -45.4562 587.46 -53.8613 597.816C-55.8843 600.313 -57.8591 603.709 -56.3419 606.952C-55.1216 609.545 -52.1995 610.452 -49.5263 610.468C-46.4035 610.492 -43.2726 609.416 -40.4228 608.228C-37.3642 606.952 -34.4822 605.322 -31.7608 603.428C-25.3948 598.988 -19.976 593.377 -14.6697 587.765C-13.7625 586.802 -14.9426 585.108 -16.1307 585.871C-21.7261 589.467 -26.3742 594.461 -29.5773 600.289C-31.1748 603.195 -32.4352 606.31 -33.2781 609.513C-34.0808 612.595 -34.8355 616.127 -34.2414 619.306C-33.6393 622.494 -30.942 624.613 -27.6907 624.324C-24.3993 624.035 -21.6217 622.148 -19.1973 620.037C-14.0756 615.574 -10.3266 609.561 -8.40801 603.058C-7.87015 601.252 -7.50087 599.398 -7.26004 597.527C-7.13963 596.596 -7.05132 595.657 -7.01118 594.717C-7.00315 594.573 -6.95499 594.252 -6.9871 594.091C-6.99513 594.075 -7.20384 594.501 -7.11554 594.34C-7.05934 594.244 -6.9871 594.147 -6.92288 594.059C-5.87124 592.574 -4.86777 591.057 -3.84022 589.556C-4.28977 589.74 -4.74734 589.925 -5.1969 590.109C2.10035 592.662 10.4251 591.819 17.1283 588.014C19.8738 586.457 25.0999 583.165 23.1893 579.328C22.4508 577.843 20.781 577.137 19.2316 576.872C17.1364 576.51 14.9287 576.607 12.8174 576.719C11.4928 576.791 10.1683 576.928 8.85171 577.104C8.21751 577.193 7.57529 577.289 6.94912 577.393C6.63604 577.45 6.31493 577.506 6.00185 577.57C5.86538 577.594 4.8619 577.811 5.18301 577.803C5.42384 577.795 4.98232 577.715 4.83782 577.658C4.55685 577.546 4.26784 577.434 3.98687 577.329C3.53731 577.153 3.09578 576.984 2.64623 576.807C2.74256 577.538 2.8389 578.277 2.93523 579.007C7.05348 576.326 11.1798 573.612 14.9287 570.417C18.4529 567.415 22.0574 563.754 24.0162 559.5C24.8832 557.605 25.4532 555.454 25.0197 553.366C24.6022 551.351 23.0288 549.77 21.0138 549.328C18.6617 548.815 16.1891 549.609 14.0216 550.484C11.9504 551.319 9.98362 552.363 8.15328 553.655C3.92265 556.642 0.486763 560.68 -1.64862 565.4C-2.28282 566.845 -0.211655 568.065 0.430569 566.66Z" fill="#244029"/>
<path d="M134.037 646.222C138.34 634.71 139.657 622.195 137.971 610.033C137.489 606.525 136.742 603.065 135.755 599.669C135.322 598.184 133.002 598.818 133.435 600.311C137.746 615.13 137.12 631.13 131.717 645.588C131.171 647.033 133.499 647.659 134.037 646.222Z" fill="#244029"/>
<path d="M139.019 596.271C145.634 594.569 150.78 588.26 151.109 581.444C151.141 580.866 151.125 580.24 150.788 579.766C149.841 578.417 147.746 579.509 146.549 580.657C143.186 583.892 139.822 587.136 136.458 590.371C137.735 585.426 138.201 580.272 137.831 575.182C137.759 574.187 137.574 573.063 136.747 572.517C134.981 571.361 133.159 573.93 132.589 575.969C131.377 580.328 130.165 584.687 128.953 589.046C127.154 586.798 125.348 584.551 123.55 582.311C122.37 580.834 120.13 579.284 118.87 580.697C117.738 581.966 119.054 583.884 120.307 585.032C122.49 587.039 124.682 589.046 126.865 591.045C124.609 591.318 122.346 590.772 120.09 590.563C117.826 590.355 115.353 590.563 113.635 592.057C111.926 593.55 111.572 596.665 113.435 597.957C115.835 599.611 119.801 597.315 121.768 599.466C118.709 602.99 116.469 607.213 115.265 611.717C115.048 612.527 114.864 613.394 115.153 614.181C116.044 616.662 119.817 615.682 121.864 614.021C125.22 611.299 128.029 607.903 130.06 604.09C128.824 607.968 129.121 612.319 130.871 615.995C131.248 616.782 131.77 617.601 132.613 617.818C134.042 618.179 135.182 616.63 135.728 615.257C138.064 609.437 138.04 602.709 135.672 596.905L139.019 596.271Z" fill="white"/>
<path d="M139.336 597.435C144.634 596.022 148.977 592.024 151.057 586.983C151.562 585.754 151.932 584.486 152.124 583.177C152.317 581.885 152.566 580.32 151.819 579.155C150.005 576.338 146.585 578.947 144.972 580.496C141.849 583.507 138.726 586.509 135.603 589.519C136.278 589.913 136.944 590.298 137.618 590.691C138.557 586.999 139.087 583.202 139.151 579.388C139.184 577.63 139.216 575.768 138.895 574.034C138.63 572.613 137.755 571.304 136.237 571.072C133.066 570.574 131.694 574.7 131.051 577.004C129.968 580.914 128.876 584.823 127.792 588.741C128.467 588.564 129.133 588.387 129.807 588.211C127.905 585.843 126.114 583.274 124.035 581.05C122.638 579.557 120.053 578 118.199 579.677C116.2 581.484 117.717 584.181 119.243 585.698C121.41 587.85 123.762 589.849 126.01 591.912C126.291 591.229 126.58 590.539 126.861 589.857C123.529 590.186 120.27 588.973 116.947 589.439C114.306 589.8 111.761 591.302 111.135 594.055C110.581 596.487 111.705 598.984 114.225 599.626C115.429 599.931 116.674 599.811 117.894 599.739C118.921 599.683 120.126 599.546 120.92 600.333C120.92 599.763 120.92 599.201 120.92 598.631C119.002 600.871 117.356 603.335 116.104 606.008C115.478 607.341 114.932 608.706 114.49 610.111C114.049 611.507 113.527 613.073 113.992 614.526C114.683 616.685 117.003 617.167 118.978 616.742C121.45 616.22 123.377 614.462 125.119 612.736C127.495 610.384 129.502 607.662 131.092 604.724C130.361 604.411 129.623 604.106 128.892 603.793C128.057 606.506 127.897 609.356 128.378 612.15C128.619 613.538 129.045 614.879 129.614 616.164C130.112 617.287 130.803 618.46 132.015 618.909C134.752 619.921 136.43 616.902 137.193 614.791C138.164 612.077 138.654 609.163 138.662 606.273C138.678 602.974 138.052 599.674 136.831 596.608C136.55 597.106 136.27 597.595 135.989 598.093C137.112 597.86 138.22 597.643 139.336 597.435C140.853 597.146 140.211 594.826 138.694 595.115C137.578 595.331 136.462 595.54 135.346 595.757C134.752 595.869 134.279 596.664 134.503 597.242C136.703 602.749 136.839 608.906 134.744 614.47C134.487 615.144 133.701 617.127 132.689 616.573C132.215 616.316 131.959 615.561 131.75 615.104C131.445 614.422 131.212 613.715 131.019 613.001C130.257 610.175 130.345 607.229 131.204 604.435C131.605 603.134 129.655 602.3 129.004 603.504C127.535 606.225 125.713 608.722 123.529 610.905C121.964 612.471 119.925 614.582 117.493 614.494C116.232 614.446 116.08 613.539 116.32 612.407C116.634 610.962 117.163 609.517 117.741 608.16C118.946 605.326 120.599 602.677 122.606 600.341C123.032 599.851 123.096 599.129 122.606 598.639C121.057 597.09 118.97 597.29 116.955 597.403C115.189 597.499 113.085 597.258 113.39 594.954C113.703 592.626 116.152 591.823 118.191 591.743C121.097 591.631 123.931 592.57 126.845 592.281C127.808 592.185 128.531 590.988 127.696 590.226C125.986 588.66 124.276 587.087 122.558 585.522C122.1 585.104 118.576 582.27 119.837 581.443C120.334 581.122 121.201 581.797 121.571 582.086C122.349 582.696 122.927 583.507 123.537 584.269C125.055 586.156 126.564 588.05 128.081 589.937C128.667 590.667 129.871 590.21 130.096 589.407C130.955 586.332 131.806 583.25 132.665 580.175C133.066 578.73 133.371 577.213 133.901 575.808C134.15 575.15 134.905 573.464 135.788 573.472C136.735 573.48 136.639 575.591 136.671 576.169C136.751 577.702 136.759 579.236 136.687 580.761C136.542 583.916 136.061 587.023 135.282 590.081C134.985 591.253 136.422 592.088 137.297 591.253C140.179 588.476 143.061 585.698 145.943 582.929C146.545 582.343 147.123 581.7 147.789 581.187C148.159 580.898 148.913 580.32 149.435 580.376C150.39 580.48 149.732 583.033 149.588 583.683C148.367 589.134 144.089 593.702 138.686 595.147C137.201 595.508 137.835 597.836 139.336 597.435Z" fill="#244029"/>
<path d="M131.567 599.475C131.776 601.177 129.688 602.533 128.059 601.987C126.437 601.442 125.53 599.563 125.683 597.853C125.827 596.143 126.807 594.618 127.954 593.342C129.416 591.728 131.535 590.323 133.638 590.861C135.741 591.399 136.681 594.843 134.698 595.726L131.567 599.475Z" fill="#C68148"/>
<path d="M54.6229 636.266C56.2284 625.469 63.9913 616.55 72.6292 609.879C81.2671 603.2 91.077 598.086 99.3617 590.982C99.9718 590.46 100.734 589.89 101.497 590.147C102.613 590.524 102.476 592.146 102.083 593.253C97.5153 606.371 89.327 617.859 81.243 629.146C75.0777 637.751 68.2541 646.863 58.2113 650.186C56.1642 650.861 53.6435 651.174 52.1022 649.673C50.1113 647.73 51.2031 644.374 52.5517 641.942C59.4396 629.507 69.98 619.119 82.5194 612.416" fill="#C1D9C1"/>
<path d="M55.7742 632.565C57.7169 619.946 67.6071 610.682 77.5857 603.705C83.2934 599.716 89.2741 596.135 94.8855 592.009C96.2743 590.989 97.631 589.938 98.9636 588.846C99.4694 588.437 100.192 587.546 100.834 587.361C101.147 587.273 100.963 587.216 101.131 587.377C101.26 587.497 101.139 588.043 101.115 588.196C100.85 589.745 100.047 591.319 99.4614 592.764C98.8031 594.377 98.0806 595.967 97.3099 597.532C94.2674 603.778 90.5505 609.67 86.633 615.394C82.9402 620.789 79.1993 626.231 75.1131 631.345C71.3882 636.009 67.1496 640.465 61.8352 643.307C60.5668 643.981 59.2582 644.559 57.8935 645.008C56.593 645.434 54.9554 645.851 53.6388 645.265C50.9174 644.053 52.6755 640.184 53.6709 638.385C59.6757 627.532 68.5625 618.284 79.1029 611.757C80.4195 610.938 81.7681 610.168 83.1329 609.437C84.4976 608.707 83.2854 606.628 81.9207 607.358C70.0075 613.756 59.8764 623.374 52.8842 634.958C51.3429 637.502 49.4804 640.473 49.8657 643.587C50.3073 647.112 53.6549 648.308 56.7857 647.778C59.8844 647.256 62.951 645.627 65.544 643.901C68.2494 642.11 70.6898 639.935 72.9135 637.583C77.6098 632.622 81.4872 626.906 85.4288 621.342C89.828 615.137 94.1068 608.819 97.6953 602.1C99.4533 598.801 101.043 595.405 102.392 591.913C102.953 590.468 103.716 588.886 103.556 587.289C103.411 585.844 102.303 584.696 100.778 584.888C99.1081 585.105 97.6953 586.823 96.4429 587.827C94.9819 588.999 93.4726 590.106 91.9393 591.19C88.8005 593.414 85.5733 595.493 82.3622 597.604C71.035 605.038 58.9612 613.732 54.5781 627.227C54.0803 628.76 53.7111 630.334 53.4702 631.931C53.2214 633.448 55.5414 634.099 55.7742 632.565Z" fill="#244029"/>
<path d="M38.3143 644.078C33.9231 640.843 31.2177 635.729 29.861 630.447C28.5124 625.165 28.3839 619.657 28.2876 614.207C28.0949 603.61 28.0307 592.62 32.3336 582.938C32.9678 581.509 33.7545 580.056 35.0871 579.246C36.4197 578.435 38.4347 578.555 39.2535 579.888C39.6068 580.458 39.687 581.156 39.7593 581.823C40.6022 590.356 40.0322 599.042 41.6298 607.463C43.8695 619.272 50.3158 630.872 47.7951 642.625C47.6667 643.211 47.5061 643.821 47.0726 644.239C45.5554 645.716 43.3317 643.38 42.577 641.397C38.531 630.736 35.9541 619.513 34.9426 608.154" fill="#5D8C60"/>
<path d="M39.2991 639.309C30.0833 632.389 30.011 619.448 29.8424 609.044C29.7541 603.425 29.73 597.773 30.4606 592.194C30.8298 589.368 31.4078 586.567 32.2508 583.853C32.6441 582.601 33.0856 581.357 33.6074 580.144C34.1292 578.932 34.7233 577.535 35.8151 576.724C36.4573 576.251 37.4206 575.994 38.1672 576.395C39.2108 576.949 39.0262 579.061 39.0985 580.04C39.3313 583.155 39.4196 586.278 39.5239 589.4C39.7326 595.397 40.1019 601.37 41.5309 607.214C42.8795 612.729 44.8543 618.06 46.203 623.575C46.8773 626.32 47.3911 629.106 47.5115 631.94C47.5677 633.216 47.5437 634.492 47.4393 635.769C47.3751 636.483 47.2788 637.19 47.1503 637.888C47.07 638.33 46.9978 639.574 46.4679 639.767C45.7214 640.032 44.75 638.522 44.461 638.033C43.7144 636.764 43.313 635.207 42.8394 633.826C41.7315 630.631 40.7602 627.38 39.9173 624.104C38.2636 617.65 37.1236 611.075 36.5296 604.436C36.3931 602.903 33.9847 602.887 34.1212 604.436C34.7153 611.035 35.8071 617.586 37.4126 624.016C38.2074 627.179 39.1225 630.31 40.1501 633.401C41.0171 635.986 41.7155 639.221 43.8669 641.083C44.7179 641.822 45.8418 642.408 46.9978 642.119C48.2421 641.806 48.9565 640.706 49.2696 639.526C50.0323 636.588 50.0885 633.393 49.8236 630.382C49.2616 624.12 47.2065 618.148 45.4083 612.167C44.4931 609.1 43.6261 606.01 43.0642 602.855C42.454 599.443 42.2132 595.983 42.0607 592.531C41.9082 589.087 41.852 585.635 41.6513 582.191C41.563 580.562 41.4907 578.9 41.2419 577.286C41.0492 576.01 40.4551 574.878 39.2751 574.276C36.8748 573.04 34.3059 574.404 32.8769 576.411C31.175 578.796 30.2438 581.959 29.4812 584.76C27.8274 590.845 27.426 597.211 27.3939 603.497C27.3538 609.959 27.3056 616.566 28.261 622.973C29.1119 628.68 31.1349 634.372 35.0605 638.707C35.9756 639.71 36.9952 640.601 38.0789 641.412C39.3232 642.319 40.5194 640.232 39.2991 639.309Z" fill="#244029"/>
<path d="M139.408 633.594C147.267 620.581 158.193 609.751 169.006 599.066C169.472 620.284 158.546 641.413 140.965 653.302C139.231 654.474 136.992 655.598 135.137 654.627C133.524 653.784 132.978 651.616 133.443 649.85C133.901 648.084 135.121 646.631 136.317 645.258C142.434 638.218 148.913 631.491 155.72 625.117" fill="#5D8C60"/>
<path d="M140.491 630.92C148.358 617.956 159.187 607.23 169.896 596.642C169.214 596.361 168.524 596.072 167.841 595.791C168.09 608.748 164.108 621.568 156.899 632.309C153.287 637.688 148.847 642.512 143.766 646.534C142.506 647.53 141.205 648.509 139.832 649.36C138.58 650.131 136.469 651.255 135.216 649.89C132.888 647.353 136.364 643.797 137.946 641.983C143.846 635.255 150.076 628.817 156.602 622.692C157.734 621.632 156.032 619.93 154.9 620.99C148.558 626.947 142.497 633.192 136.742 639.711C134.462 642.296 131.524 645.226 132.222 648.999C132.503 650.508 133.426 651.897 134.855 652.531C136.669 653.334 138.636 652.764 140.298 651.873C143.413 650.203 146.271 647.714 148.864 645.338C151.44 642.978 153.817 640.393 155.976 637.648C160.335 632.084 163.795 625.887 166.244 619.248C169.005 611.766 170.394 603.77 170.241 595.799C170.225 594.763 168.933 594.209 168.186 594.948C157.325 605.681 146.375 616.583 138.403 629.716C137.601 631.033 139.688 632.245 140.491 630.92Z" fill="#244029"/>
<path d="M597.367 610.385C601.991 613.54 604.006 620.324 601.188 625.156C598.371 629.989 590.72 631.346 586.859 627.292C583.503 623.768 583.873 618.212 584.699 613.42C582.444 620.227 577.33 626.039 570.876 629.154C568.66 630.222 566.147 630.993 563.763 630.391C561.379 629.788 559.332 627.396 559.853 624.996C560.134 623.711 561.058 622.684 561.981 621.745C566.525 617.145 571.927 613.388 577.828 610.739C572.85 614.616 567.014 617.394 560.857 618.806C559.147 619.2 556.867 619.208 556.209 617.578C555.687 616.294 556.634 614.905 557.614 613.926C563.795 607.736 573.035 606.018 581.673 604.597C576.094 606.42 569.944 606.484 564.325 604.774C568.756 597.461 580.043 595.566 586.61 601.041C584.418 600.696 582.821 598.504 582.693 596.289C582.572 594.073 583.672 591.929 585.205 590.324C586.217 589.264 587.525 588.349 588.994 588.301C591.082 588.221 592.896 589.947 593.61 591.905C594.325 593.864 594.188 596.024 594.044 598.111C594.22 595.502 594.903 592.925 596.043 590.565C597.231 588.108 599.631 585.62 602.264 586.326C604.52 586.928 605.588 589.722 605.114 592.01C604.632 594.298 603.051 596.176 601.526 597.942C604.046 593.037 608.847 589.361 614.234 588.205C616.289 587.763 618.874 587.891 619.933 589.714C620.72 591.054 620.319 592.788 619.62 594.177C616.586 600.19 609.248 602.454 602.625 603.642C605.933 604.019 609.128 605.304 611.769 607.327C613.583 608.716 615.269 610.963 614.515 613.123C613.68 615.515 610.525 616.061 608.012 615.756C603.131 615.162 598.483 612.818 595.095 609.253" fill="#F05A7E"/>
<path d="M596.76 611.421C601.111 614.471 603.158 621.696 599.161 625.862C595.5 629.676 588.596 629.395 586.284 624.297C584.815 621.046 585.289 617.136 585.859 613.741C586.115 612.231 584.044 611.613 583.539 613.098C581.363 619.529 576.619 624.955 570.542 627.982C567.748 629.371 562.795 630.655 561.205 626.842C560.475 625.092 561.807 623.647 562.963 622.483C564.304 621.134 565.725 619.85 567.21 618.654C570.638 615.892 574.443 613.604 578.449 611.79C578.048 611.099 577.638 610.401 577.237 609.711C574.419 611.886 571.352 613.732 568.093 615.169C566.407 615.916 564.657 616.534 562.883 617.048C561.494 617.449 559.905 618.019 558.444 617.787C556.501 617.481 557.585 615.699 558.484 614.784C559.6 613.644 560.868 612.665 562.209 611.814C564.922 610.088 567.933 608.924 571.015 608.041C574.62 607.013 578.32 606.371 582.013 605.769C581.797 604.998 581.588 604.22 581.371 603.449C575.928 605.191 570.14 605.255 564.665 603.626C564.906 604.212 565.147 604.806 565.388 605.392C569.49 598.769 579.709 596.946 585.786 601.9C586.18 601.225 586.565 600.559 586.958 599.885C585.12 599.531 583.924 597.821 583.916 595.975C583.908 593.824 585.256 591.712 586.91 590.42C588.62 589.079 590.595 589.336 591.871 591.11C593.3 593.101 593.035 595.798 592.875 598.102C592.77 599.652 595.163 599.636 595.283 598.102C595.476 595.63 596.102 593.117 597.25 590.902C598.045 589.368 599.61 587.233 601.585 587.409C603.391 587.562 604.17 589.649 604.049 591.223C603.881 593.503 602.131 595.437 600.71 597.083C601.344 597.573 601.97 598.054 602.604 598.544C603.953 595.967 605.896 593.727 608.304 592.082C610.576 590.532 613.49 589.159 616.3 589.192C617.48 589.208 618.853 589.561 619.158 590.869C619.479 592.258 618.588 593.784 617.849 594.891C616.324 597.163 613.972 598.729 611.523 599.853C608.633 601.185 605.47 601.908 602.356 602.478C600.903 602.742 601.448 604.693 602.677 604.846C605.816 605.231 609.051 606.5 611.459 608.579C612.471 609.454 613.683 610.786 613.538 612.239C613.418 613.403 612.422 614.07 611.379 614.367C608.81 615.105 605.832 614.278 603.415 613.363C600.606 612.296 598.085 610.57 595.998 608.41C594.922 607.294 593.22 608.996 594.296 610.112C598.149 614.102 604.074 617.273 609.757 617.032C612.109 616.936 614.71 616.053 615.634 613.676C616.741 610.834 614.702 608.041 612.551 606.379C609.677 604.163 606.265 602.879 602.677 602.437C602.781 603.224 602.893 604.011 602.998 604.806C609.332 603.65 616.541 601.57 620.161 595.766C621.117 594.233 621.871 592.371 621.542 590.54C621.253 588.919 620.105 587.715 618.58 587.169C615.457 586.053 611.66 587.458 608.898 588.927C605.35 590.813 602.404 593.784 600.533 597.34C599.931 598.496 601.489 599.885 602.428 598.801C604.339 596.585 606.442 594.056 606.482 590.974C606.514 588.485 605.093 585.724 602.5 585.138C599.634 584.495 597.194 586.534 595.717 588.79C593.943 591.512 593.132 594.915 592.883 598.11C593.686 598.11 594.488 598.11 595.291 598.11C595.508 594.891 595.548 591.343 593.132 588.878C590.948 586.655 587.865 586.655 585.457 588.525C583.161 590.316 581.355 593.302 581.532 596.296C581.692 599.026 583.555 601.675 586.332 602.213C587.392 602.413 588.524 601.033 587.504 600.198C580.223 594.257 568.302 596.144 563.325 604.179C562.907 604.854 563.317 605.729 564.047 605.946C569.907 607.688 576.209 607.631 582.037 605.769C583.539 605.287 582.904 603.2 581.395 603.449C574.034 604.661 566.223 606.026 560.001 610.417C557.633 612.087 552.632 616.101 555.939 619.199C557.127 620.315 558.941 620.339 560.459 620.115C562.393 619.826 564.336 619.183 566.174 618.517C570.606 616.928 574.756 614.664 578.481 611.782C579.701 610.843 578.706 609.052 577.269 609.703C573.167 611.565 569.337 613.925 565.813 616.727C564.023 618.156 562.273 619.689 560.716 621.367C559.311 622.884 558.299 624.69 558.733 626.818C559.102 628.632 560.507 630.205 562.128 631.024C564.079 632.012 566.367 631.948 568.43 631.386C572.364 630.318 576.033 627.781 578.907 624.947C582.086 621.808 584.478 617.955 585.907 613.733C585.136 613.516 584.357 613.307 583.587 613.09C582.961 616.823 582.471 620.933 583.86 624.562C585.08 627.773 587.673 630.189 591.117 630.735C594.344 631.249 597.691 630.326 600.196 628.231C602.789 626.063 603.977 622.571 603.696 619.256C603.367 615.274 601.296 611.637 598.021 609.341C596.704 608.45 595.5 610.537 596.76 611.421Z" fill="#244029"/>
<path d="M596.275 610.008C592.542 612.32 588.36 613.894 584.033 614.616C582.451 614.881 580.453 614.825 579.722 613.404C579.032 612.047 580.019 610.45 581.063 609.334C585.293 604.766 591.13 601.732 597.295 600.881C598.266 600.744 599.286 600.672 600.209 601.009C601.132 601.346 601.927 602.213 601.887 603.193C601.863 603.811 601.517 604.373 601.164 604.886C599.053 607.913 596.042 610.313 592.615 611.694" fill="#F6EDDE"/>
<path d="M662.627 562.533C670.141 575.987 677.663 589.466 683.829 603.603C689.97 617.684 694.73 632.543 696.464 647.86C697.436 656.418 697.468 665.112 696.256 673.645C696.167 674.295 696.416 674.93 697.098 675.13C697.66 675.291 698.487 674.93 698.584 674.287C700.783 658.802 699.113 643.059 695.067 628.007C691.013 612.915 684.591 598.561 677.438 584.706C673.368 576.822 669.041 569.067 664.714 561.313C663.952 559.964 661.873 561.176 662.627 562.533Z" fill="#244029"/>
<path d="M646.343 554.722C640.435 553.068 633.988 553.446 628.313 555.766C625.005 557.114 621.786 559.33 620.494 562.661C619.201 565.993 620.67 570.505 624.114 571.46C625.551 571.861 627.084 571.612 628.537 571.283C634.061 570.015 639.303 567.502 643.742 563.978C636.284 567.414 630.882 574.944 630.007 583.1C629.131 591.264 632.816 599.766 639.375 604.703C641.928 601.524 641.703 597.036 641.743 592.966C641.831 583.477 644.577 573.186 652.316 567.695C650.341 574.543 650.742 582.049 653.448 588.647C654.62 591.505 657.245 594.628 660.175 593.641C663.378 592.557 663.185 588.037 662.615 584.706C661.564 578.556 661.395 572.247 662.134 566.049C662.31 564.54 662.575 562.967 663.514 561.77C664.486 560.534 666.027 559.9 667.528 559.45C673.027 557.797 679.024 557.861 684.483 559.643C687.245 560.542 690.464 561.819 692.824 560.125C696.011 557.837 694.132 552.538 690.961 550.234C684.074 545.225 674.537 547.264 666.324 549.52C671.871 546.196 677.419 542.873 682.974 539.541C684.009 538.923 685.173 538.088 685.181 536.884C685.197 535.11 682.869 534.428 681.095 534.46C671.43 534.644 662.061 540.328 657.437 548.814C657.06 546.253 657.887 543.676 658.168 541.107C658.449 538.53 657.975 535.536 655.808 534.115C653.985 532.919 651.577 533.232 649.482 533.834C644.858 535.15 640.234 538.056 638.845 542.664C637.81 546.092 638.901 550.074 641.534 552.498C644.167 554.923 648.222 555.685 651.561 554.369" fill="white"/>
<path d="M646.667 553.557C642.011 552.288 637.09 552.168 632.378 553.228C628.372 554.127 624.061 555.869 621.324 559.056C618.851 561.938 618.016 565.887 619.855 569.339C620.649 570.824 621.958 572.013 623.563 572.542C625.819 573.289 628.332 572.623 630.539 572.005C635.669 570.584 640.414 568.095 644.596 564.812C645.744 563.913 644.283 562.379 643.135 562.917C637.098 565.751 632.418 571.057 630.13 577.295C627.786 583.709 628.404 590.862 631.447 596.931C633.181 600.391 635.701 603.369 638.776 605.713C639.338 606.139 640.068 605.745 640.422 605.28C643.809 600.889 642.702 594.836 643.095 589.682C643.48 584.576 644.7 579.382 647.326 574.943C648.763 572.51 650.633 570.351 652.929 568.697C652.343 568.248 651.749 567.79 651.163 567.34C649.774 572.253 649.525 577.415 650.416 582.441C651.147 586.551 652.536 591.793 656.325 594.161C657.93 595.165 659.993 595.285 661.615 594.242C663.108 593.278 663.799 591.6 664.031 589.898C664.288 588.044 664.08 586.19 663.775 584.351C663.325 581.63 663.036 578.9 662.932 576.139C662.827 573.409 662.899 570.672 663.132 567.959C663.333 565.695 663.373 562.901 665.517 561.56C667.556 560.276 670.373 559.826 672.725 559.586C675.351 559.313 678.024 559.385 680.617 559.875C682.993 560.316 685.201 561.271 687.553 561.809C689.624 562.283 691.864 562.331 693.63 560.982C696.785 558.59 695.805 554.079 693.734 551.309C690.892 547.504 685.73 546.067 681.187 545.906C676.049 545.722 670.927 546.974 666.006 548.323C666.319 549.053 666.624 549.792 666.937 550.522C671.24 547.945 675.543 545.368 679.846 542.783C680.866 542.173 681.885 541.563 682.905 540.953C683.78 540.431 684.719 539.91 685.409 539.147C686.597 537.838 686.734 535.904 685.433 534.619C684.253 533.455 682.383 533.182 680.801 533.222C678.907 533.279 677.012 533.543 675.166 533.977C671.497 534.852 667.965 536.474 664.906 538.681C661.414 541.194 658.484 544.405 656.405 548.17C657.152 548.371 657.898 548.572 658.653 548.78C658.091 544.293 660.644 539.861 658.572 535.502C656.541 531.231 651.5 531.745 647.759 533.078C644.034 534.41 640.309 536.755 638.463 540.391C636.584 544.1 636.978 548.644 639.499 551.959C642.324 555.684 647.526 557.113 651.893 555.475C653.33 554.938 652.712 552.609 651.251 553.155C648.128 554.327 644.452 553.701 642.075 551.285C639.755 548.925 639.009 545.16 640.309 542.109C641.594 539.083 644.484 537.02 647.43 535.775C650.095 534.651 654.655 533.166 656.373 536.474C657.224 538.103 657.135 540.086 656.871 541.852C656.525 544.156 655.955 546.436 656.244 548.78C656.381 549.872 657.85 550.538 658.492 549.39C661.623 543.723 666.865 539.323 672.958 537.156C674.508 536.61 676.097 536.193 677.719 535.928C679.14 535.695 680.745 535.454 682.182 535.703C683.483 535.928 684.679 536.682 683.314 537.838C681.861 539.067 679.934 539.934 678.305 540.913C674.114 543.426 669.924 545.938 665.733 548.443C664.569 549.141 665.332 551.012 666.665 550.643C674.018 548.636 683.314 546.251 690.114 551.06C692.145 552.497 694.858 556.736 692.369 558.935C690.876 560.252 688.653 559.658 686.959 559.152C684.823 558.51 682.76 557.779 680.553 557.426C675.945 556.688 671.064 556.944 666.624 558.454C664.738 559.096 662.915 560.115 661.976 561.954C660.989 563.888 660.893 566.233 660.716 568.352C660.306 573.393 660.499 578.459 661.23 583.452C661.487 585.218 661.832 586.952 661.752 588.742C661.695 590.003 661.43 591.608 660.226 592.283C658.38 593.318 656.558 591.496 655.602 590.067C654.318 588.132 653.643 585.788 653.114 583.549C651.909 578.419 652.07 573.048 653.499 567.983C653.764 567.043 652.608 565.992 651.733 566.626C647.414 569.733 644.516 574.188 642.774 579.173C640.992 584.295 640.598 589.626 640.55 595.004C640.518 598.175 640.374 601.458 638.359 604.068C638.904 603.923 639.458 603.778 640.004 603.634C635.123 599.909 631.88 594.017 631.23 587.916C630.588 581.903 632.498 575.826 636.36 571.178C638.551 568.545 641.257 566.441 644.363 564.98C643.874 564.346 643.392 563.72 642.902 563.086C639.747 565.566 636.175 567.533 632.394 568.874C630.523 569.532 628.508 570.198 626.518 570.391C624.848 570.552 623.314 570.126 622.319 568.721C620.545 566.233 621.139 562.957 623.025 560.734C625.346 558.004 628.942 556.535 632.33 555.684C636.833 554.552 641.554 554.632 646.025 555.853C647.526 556.294 648.16 553.966 646.667 553.557Z" fill="#244029"/>
<path d="M666.176 558.43C662.042 562.115 656.976 564.764 651.589 566.065C650.369 566.362 648.924 566.53 648.001 565.687C646.805 564.596 647.294 562.613 648.017 561.168C650.626 555.966 655.242 551.799 660.685 549.728C662.547 549.022 664.827 548.612 666.401 549.841C667.87 550.989 668.11 553.212 667.46 554.962C666.81 556.712 665.469 558.101 664.169 559.434" fill="#C68148"/>
<path d="M693.379 618.742C692.44 606.845 699.721 595.855 707.941 587.209C716.162 578.563 725.803 570.937 731.615 560.517C732.851 565.414 732.169 570.567 731.31 575.537C729.448 586.358 726.734 597.171 721.564 606.853C716.395 616.542 708.551 625.092 698.501 629.515C698.043 629.716 697.553 629.917 697.056 629.853C696.325 629.756 695.787 629.122 695.45 628.472C693.355 624.474 696.164 619.754 698.862 616.125C704.682 608.298 710.502 600.471 716.322 592.644" fill="#C1D9C1"/>
<path d="M694.652 617.924C693.97 608.58 698.401 599.902 704.06 592.757C709.824 585.476 717.025 579.519 723.335 572.744C726.883 568.939 730.167 564.853 732.728 560.309C731.997 560.212 731.259 560.116 730.528 560.02C731.556 564.258 731.154 568.65 730.472 572.904C729.806 577.023 729.003 581.125 728.015 585.179C726.089 593.086 723.383 600.873 719.209 607.897C715.588 613.999 710.844 619.562 705.016 623.664C703.611 624.651 702.15 625.559 700.633 626.361C699.854 626.779 699.059 627.18 698.248 627.533C697.317 627.943 696.94 627.847 696.482 626.899C694.853 623.503 697.381 619.546 699.292 616.84C702.166 612.762 705.241 608.821 708.219 604.815C711.285 600.689 714.36 596.562 717.427 592.428C718.35 591.184 716.263 589.979 715.348 591.216C709.463 599.131 703.523 606.998 697.694 614.954C695.431 618.053 693.054 621.906 693.697 625.912C693.953 627.533 694.812 629.613 696.538 630.126C698.28 630.648 700.376 629.219 701.853 628.433C716.512 620.613 724.973 605.192 729.316 589.707C730.672 584.882 731.692 579.969 732.543 575.032C733.434 569.846 734.108 564.556 732.848 559.37C732.607 558.366 731.146 558.189 730.648 559.081C721.304 575.69 702.776 585.058 695.069 602.84C693.006 607.6 691.874 612.714 692.252 617.916C692.356 619.457 694.764 619.474 694.652 617.924Z" fill="#244029"/>
<path d="M700.146 650.173C698.195 643.47 693.692 638.011 688.578 633.419C682.694 628.145 676.135 623.585 669.833 618.832C665.779 615.766 661.725 612.707 657.671 609.641C657.125 609.223 656.363 609.592 656.026 610.074C654.613 612.089 655.367 614.57 656.315 616.609C657.366 618.88 658.562 621.096 659.718 623.32C662.111 627.912 664.655 632.447 667.642 636.686C673.374 644.818 680.864 651.77 690.417 655.03C695.562 656.788 701.078 657.253 706.4 656.089C707.917 655.76 707.275 653.432 705.758 653.769C696.919 655.704 687.88 652.469 680.791 647.211C673.181 641.575 667.883 633.371 663.419 625.166C662.151 622.83 660.939 620.47 659.742 618.094C658.819 616.271 656.692 613.293 658.105 611.286C657.559 611.431 657.005 611.575 656.459 611.72C663.395 616.962 670.331 622.196 677.267 627.438C682.718 631.556 688.289 635.707 692.608 641.053C694.944 643.951 696.791 647.227 697.834 650.807C698.252 652.3 700.58 651.666 700.146 650.173Z" fill="#244029"/>
</g>
</g>
<defs>
<linearGradient id="paint0_linear_1792_9768" x1="408.442" y1="546.145" x2="408.442" y2="671.189" gradientUnits="userSpaceOnUse">
<stop stop-color="#B8D8D7"/>
<stop offset="0.1834" stop-color="#B1D3D3"/>
<stop offset="0.4502" stop-color="#9EC6C6"/>
<stop offset="0.7662" stop-color="#7EB1B2"/>
<stop offset="1" stop-color="#629EA0"/>
</linearGradient>
<clipPath id="clip0_1792_9768">
<rect width="744" height="611" fill="white"/>
</clipPath>
<clipPath id="clip1_1792_9768">
<rect width="1156" height="526.622" fill="white" transform="translate(-182 122.088)"/>
</clipPath>
</defs>
</svg>
