<svg width="174" height="816" viewBox="0 0 174 816" fill="none" xmlns="http://www.w3.org/2000/svg">
<g opacity="0.5">
<mask id="path-1-inside-1_1743_28052" fill="white">
<path d="M25.2501 0.700077C39.3376 -2.75249 39.7926 7.24051 45.6667 15.8963C76.5367 61.3754 89.0375 163.688 133.167 198.25C121.798 219.902 105.272 207.21 86.5 210.407L150.667 283.349C151.168 311.705 111.624 286.492 109.833 301.584L112.75 328.938C98.1142 323.917 93.0684 289.452 74.8334 313.741C100.232 359.409 201.697 400.396 92.3334 398.84C179.513 425.354 105.698 404.067 144.833 471.782L130.25 474.821L112.75 450.507C73.4217 493.877 173.93 491.154 174 502.174L104 520.409C137.804 543.714 156.973 583.486 174 623.743H92.3334L150.667 635.9L115.667 654.136C129.853 654.507 162.812 706.69 156.5 714.92H39.8334L31.0834 876C-4.18491 777.012 82.3526 687.166 -73.9166 711.881C-97.3724 703.73 -44.8899 675.471 -53.4999 654.136C-59.5957 639.037 -81.8791 647.796 -85.5832 645.018C-96.3807 636.922 -82.0599 624.613 -82.6666 623.743C-88.1324 615.963 -105.901 610.486 -106 605.508C-106.128 599.034 -4.58742 523.911 -38.9166 511.292C-156.277 511.991 -83.9266 492.114 -76.8332 465.703C-76.0341 462.719 -98.3524 419.367 -88.4999 404.918C-75.3749 385.674 -34.2791 430.624 -24.3332 398.84L-88.4999 392.761C-99.1515 372.8 -48.5766 377 -47.6666 356.291C-47.5791 354.242 -59.5724 345.982 -59.3332 344.134C-53.8032 301.651 -32.0857 313.45 -76.8332 283.349C-76.8274 271.806 -5.35158 258.044 -12.6666 222.564C-13.2907 219.525 -59.7766 211.483 -59.3332 192.172C-58.9482 175.389 48.7292 168.612 -41.8332 161.78L25.2501 0.700077ZM31.0834 55.4063L34.0001 64.524L36.9167 67.5633L39.8334 58.4456L31.0834 55.4063ZM13.5834 79.7202C9.96091 80.0484 -0.346588 94.2174 7.75008 97.9556C20.2101 103.706 24.7017 78.7051 13.5834 79.7202ZM48.5834 79.7202C39.7401 81.5559 52.1359 99.0984 54.4167 97.9556C60.0751 95.1291 60.3842 77.2706 48.5834 79.7202ZM31.0834 110.113C19.6501 112.088 23.1792 130.725 36.9167 128.348C48.3501 126.372 44.8209 107.736 31.0834 110.113ZM7.75008 134.426C3.90008 134.949 -6.10409 148.96 1.91675 152.662C11.6992 157.178 25.7342 131.995 7.75008 134.426ZM48.5834 140.505C54.1717 164.138 72.2142 195.266 98.1667 180.015L48.5834 140.505ZM31.0834 158.74C16.2551 155.841 15.8992 197.235 36.9167 183.054C44.6751 177.821 37.5642 160.005 31.0834 158.74ZM1.91675 195.211C-1.93325 195.734 -11.9374 209.745 -3.91658 213.447C5.86591 217.963 19.9009 192.78 1.91675 195.211ZM48.5834 201.29C36.0359 203.806 42.4467 222.929 54.4167 219.525C64.2751 216.723 70.0676 196.986 48.5834 201.29ZM25.2501 219.525C13.9917 221.069 13.9917 248.373 25.2501 249.917C39.1684 251.82 39.1684 217.622 25.2501 219.525ZM71.9167 219.525C53.2559 220.194 61.1542 255.437 77.7501 249.917C91.015 245.504 89.8425 218.887 71.9167 219.525ZM1.91675 249.917C-9.20158 248.902 -4.70992 273.903 7.75008 268.153C15.8467 264.415 5.53925 250.246 1.91675 249.917ZM48.5834 249.917C37.3834 249.778 27.4901 281.787 54.4167 274.231C70.5226 269.715 52.3051 249.966 48.5834 249.917ZM95.25 255.996C82.37 265.053 101.842 280.918 112.75 280.31C121.611 269.758 99.5959 252.938 95.25 255.996ZM25.2501 280.31C19.6267 280.583 11.2151 299.882 19.4167 304.624C32.0284 311.912 38.8242 279.653 25.2501 280.31ZM66.0834 286.388C47.3409 299.658 85.0709 299.512 80.6667 289.427C78.9225 285.428 68.1192 284.948 66.0834 286.388ZM-3.91658 310.702C-15.5016 312.72 -9.64491 337.143 1.91675 335.016C10.6026 333.417 20.0176 306.538 -3.91658 310.702ZM36.9167 316.781C28.5576 320.622 39.7809 335.113 42.7501 335.016C52.7192 334.694 56.2309 307.9 36.9167 316.781ZM19.4167 335.016C13.8926 335.733 9.66341 360.588 19.4167 359.33C27.2101 358.321 35.4876 332.937 19.4167 335.016ZM60.2501 335.016C48.6651 337.034 54.5217 361.457 66.0834 359.33C74.7692 357.731 84.1842 330.852 60.2501 335.016ZM-27.2499 341.094C-31.6191 342.717 -41.2149 355.598 -33.0832 359.33C-22.9566 363.974 -1.26825 331.448 -27.2499 341.094ZM-9.74992 365.408C-10.3624 365.5 -18.7507 373.936 -18.4999 374.526C-11.6516 390.64 12.1542 362.181 -9.74992 365.408ZM31.0834 365.408C18.5651 374.891 41.0759 383.96 45.6667 374.526C49.8784 365.864 35.3417 362.181 31.0834 365.408ZM83.5834 365.408C74.0925 367.116 75.1017 382.604 83.5834 383.644C103.469 386.081 110.557 360.558 83.5834 365.408ZM7.75008 389.722C-0.609085 393.564 10.6142 408.055 13.5834 407.958C23.5526 407.636 27.0642 380.842 7.75008 389.722ZM54.4167 389.722C38.3167 393.965 55.5776 416.547 66.0834 414.036C80.5442 410.584 75.2126 384.239 54.4167 389.722ZM-15.5833 414.036C-24.3916 415.343 -37.5982 440.988 -21.4166 444.428C-6.79242 447.535 6.64758 410.736 -15.5833 414.036ZM31.0834 414.036C12.5684 420.236 28.8901 450.416 36.9167 450.507C56.2367 450.732 50.0592 407.678 31.0834 414.036ZM-62.2499 420.115C-65.8724 420.443 -76.1799 434.612 -68.0832 438.35C-55.6232 444.1 -51.1316 419.1 -62.2499 420.115ZM77.7501 420.115C65.9667 428.163 86.92 450.939 89.4167 450.507C107.599 447.37 94.2 408.876 77.7501 420.115ZM1.91675 450.507C-5.84158 455.741 1.26925 473.557 7.75008 474.821C22.5784 477.72 22.9342 436.326 1.91675 450.507ZM60.2501 450.507C53.2792 452.106 49.5459 479.428 66.0834 474.821C80.0717 470.925 74.25 447.298 60.2501 450.507ZM-21.4166 474.821C-34.0166 476.298 -44.0966 502.271 -9.74992 493.056C-1.78741 484.297 -13.0341 473.836 -21.4166 474.821ZM36.9167 474.821C27.9567 476.675 19.0084 503.262 42.7501 499.135C59.4684 496.229 39.8801 474.207 36.9167 474.821ZM83.5834 480.899C82.3175 481.063 71.9809 489.914 77.7501 493.056C97.6534 503.894 103.86 478.249 83.5834 480.899ZM7.75008 505.213C6.91591 505.146 -1.20409 510.702 1.91675 517.37C8.36841 531.15 27.5717 506.818 7.75008 505.213ZM60.2501 505.213C46.5884 508.38 51.7509 532.846 66.0834 529.527C79.745 526.36 74.5826 501.894 60.2501 505.213ZM31.0834 529.527C16.5876 533.235 21.4817 563.864 36.9167 559.919C51.4126 556.212 46.5184 525.582 31.0834 529.527ZM89.4167 529.527C52.6784 529.472 107.004 600.554 130.25 596.39C131.907 584.701 93.22 529.533 89.4167 529.527ZM-15.5833 535.606C-17.4033 535.691 -27.1041 546.267 -24.3332 550.802C-13.8566 567.949 6.16341 534.621 -15.5833 535.606ZM1.91675 559.919C-14.8424 565.439 -6.18575 597.8 13.5834 590.312C27.1809 585.163 15.2634 555.525 1.91675 559.919ZM-44.7499 565.998C-52.0766 568.66 -58.2191 585.71 -50.5832 590.312C-39.7099 596.864 -16.3591 555.683 -44.7499 565.998ZM54.4167 565.998C38.3809 567.378 55.8692 590.81 60.2501 590.312C71.2401 589.054 72.1267 564.478 54.4167 565.998ZM31.0834 596.39L36.9167 602.469C48.4317 603.429 48.4317 595.43 36.9167 596.39H31.0834ZM-44.7499 614.626C-55.6524 617.422 -55.1274 636.648 -44.7499 638.94C-25.7274 643.146 -9.79659 605.672 -44.7499 614.626ZM7.75008 614.626C-2.10825 617.428 -7.90076 637.165 13.5834 632.861C26.1309 630.345 19.7201 611.222 7.75008 614.626ZM48.5834 620.704C39.7809 629.244 55.0584 642.423 60.2501 638.94C69.0409 633.043 63.0851 615.021 48.5834 620.704ZM-15.5833 645.018C-22.8516 647.474 -29.0291 664.743 -21.4166 669.332C-8.97408 676.827 7.04424 637.377 -15.5833 645.018ZM31.0834 645.018C19.6501 646.994 23.1792 665.63 36.9167 663.253C48.3501 661.278 44.8209 642.641 31.0834 645.018ZM83.5834 645.018C82.7317 644.988 74.2034 653.169 69.0001 654.136C74.7926 680.437 93.0859 694.509 118.583 699.724C133.558 691.415 86.8792 645.127 83.5834 645.018ZM7.75008 669.332C-8.37909 673.532 -7.84242 711.097 13.5834 699.724C18.9384 696.88 25.4717 664.718 7.75008 669.332ZM-38.9166 675.41C-39.9491 675.198 -55.4307 689.166 -50.5832 693.646C-26.8007 701.274 -25.5232 678.158 -38.9166 675.41ZM54.4167 675.41C40.6909 678.504 42.6159 701.189 66.0834 693.646C68.1717 687.488 62.8692 673.502 54.4167 675.41Z"/>
</mask>
<path d="M25.2501 0.700077C39.3376 -2.75249 39.7926 7.24051 45.6667 15.8963C76.5367 61.3754 89.0375 163.688 133.167 198.25C121.798 219.902 105.272 207.21 86.5 210.407L150.667 283.349C151.168 311.705 111.624 286.492 109.833 301.584L112.75 328.938C98.1142 323.917 93.0684 289.452 74.8334 313.741C100.232 359.409 201.697 400.396 92.3334 398.84C179.513 425.354 105.698 404.067 144.833 471.782L130.25 474.821L112.75 450.507C73.4217 493.877 173.93 491.154 174 502.174L104 520.409C137.804 543.714 156.973 583.486 174 623.743H92.3334L150.667 635.9L115.667 654.136C129.853 654.507 162.812 706.69 156.5 714.92H39.8334L31.0834 876C-4.18491 777.012 82.3526 687.166 -73.9166 711.881C-97.3724 703.73 -44.8899 675.471 -53.4999 654.136C-59.5957 639.037 -81.8791 647.796 -85.5832 645.018C-96.3807 636.922 -82.0599 624.613 -82.6666 623.743C-88.1324 615.963 -105.901 610.486 -106 605.508C-106.128 599.034 -4.58742 523.911 -38.9166 511.292C-156.277 511.991 -83.9266 492.114 -76.8332 465.703C-76.0341 462.719 -98.3524 419.367 -88.4999 404.918C-75.3749 385.674 -34.2791 430.624 -24.3332 398.84L-88.4999 392.761C-99.1515 372.8 -48.5766 377 -47.6666 356.291C-47.5791 354.242 -59.5724 345.982 -59.3332 344.134C-53.8032 301.651 -32.0857 313.45 -76.8332 283.349C-76.8274 271.806 -5.35158 258.044 -12.6666 222.564C-13.2907 219.525 -59.7766 211.483 -59.3332 192.172C-58.9482 175.389 48.7292 168.612 -41.8332 161.78L25.2501 0.700077ZM31.0834 55.4063L34.0001 64.524L36.9167 67.5633L39.8334 58.4456L31.0834 55.4063ZM13.5834 79.7202C9.96091 80.0484 -0.346588 94.2174 7.75008 97.9556C20.2101 103.706 24.7017 78.7051 13.5834 79.7202ZM48.5834 79.7202C39.7401 81.5559 52.1359 99.0984 54.4167 97.9556C60.0751 95.1291 60.3842 77.2706 48.5834 79.7202ZM31.0834 110.113C19.6501 112.088 23.1792 130.725 36.9167 128.348C48.3501 126.372 44.8209 107.736 31.0834 110.113ZM7.75008 134.426C3.90008 134.949 -6.10409 148.96 1.91675 152.662C11.6992 157.178 25.7342 131.995 7.75008 134.426ZM48.5834 140.505C54.1717 164.138 72.2142 195.266 98.1667 180.015L48.5834 140.505ZM31.0834 158.74C16.2551 155.841 15.8992 197.235 36.9167 183.054C44.6751 177.821 37.5642 160.005 31.0834 158.74ZM1.91675 195.211C-1.93325 195.734 -11.9374 209.745 -3.91658 213.447C5.86591 217.963 19.9009 192.78 1.91675 195.211ZM48.5834 201.29C36.0359 203.806 42.4467 222.929 54.4167 219.525C64.2751 216.723 70.0676 196.986 48.5834 201.29ZM25.2501 219.525C13.9917 221.069 13.9917 248.373 25.2501 249.917C39.1684 251.82 39.1684 217.622 25.2501 219.525ZM71.9167 219.525C53.2559 220.194 61.1542 255.437 77.7501 249.917C91.015 245.504 89.8425 218.887 71.9167 219.525ZM1.91675 249.917C-9.20158 248.902 -4.70992 273.903 7.75008 268.153C15.8467 264.415 5.53925 250.246 1.91675 249.917ZM48.5834 249.917C37.3834 249.778 27.4901 281.787 54.4167 274.231C70.5226 269.715 52.3051 249.966 48.5834 249.917ZM95.25 255.996C82.37 265.053 101.842 280.918 112.75 280.31C121.611 269.758 99.5959 252.938 95.25 255.996ZM25.2501 280.31C19.6267 280.583 11.2151 299.882 19.4167 304.624C32.0284 311.912 38.8242 279.653 25.2501 280.31ZM66.0834 286.388C47.3409 299.658 85.0709 299.512 80.6667 289.427C78.9225 285.428 68.1192 284.948 66.0834 286.388ZM-3.91658 310.702C-15.5016 312.72 -9.64491 337.143 1.91675 335.016C10.6026 333.417 20.0176 306.538 -3.91658 310.702ZM36.9167 316.781C28.5576 320.622 39.7809 335.113 42.7501 335.016C52.7192 334.694 56.2309 307.9 36.9167 316.781ZM19.4167 335.016C13.8926 335.733 9.66341 360.588 19.4167 359.33C27.2101 358.321 35.4876 332.937 19.4167 335.016ZM60.2501 335.016C48.6651 337.034 54.5217 361.457 66.0834 359.33C74.7692 357.731 84.1842 330.852 60.2501 335.016ZM-27.2499 341.094C-31.6191 342.717 -41.2149 355.598 -33.0832 359.33C-22.9566 363.974 -1.26825 331.448 -27.2499 341.094ZM-9.74992 365.408C-10.3624 365.5 -18.7507 373.936 -18.4999 374.526C-11.6516 390.64 12.1542 362.181 -9.74992 365.408ZM31.0834 365.408C18.5651 374.891 41.0759 383.96 45.6667 374.526C49.8784 365.864 35.3417 362.181 31.0834 365.408ZM83.5834 365.408C74.0925 367.116 75.1017 382.604 83.5834 383.644C103.469 386.081 110.557 360.558 83.5834 365.408ZM7.75008 389.722C-0.609085 393.564 10.6142 408.055 13.5834 407.958C23.5526 407.636 27.0642 380.842 7.75008 389.722ZM54.4167 389.722C38.3167 393.965 55.5776 416.547 66.0834 414.036C80.5442 410.584 75.2126 384.239 54.4167 389.722ZM-15.5833 414.036C-24.3916 415.343 -37.5982 440.988 -21.4166 444.428C-6.79242 447.535 6.64758 410.736 -15.5833 414.036ZM31.0834 414.036C12.5684 420.236 28.8901 450.416 36.9167 450.507C56.2367 450.732 50.0592 407.678 31.0834 414.036ZM-62.2499 420.115C-65.8724 420.443 -76.1799 434.612 -68.0832 438.35C-55.6232 444.1 -51.1316 419.1 -62.2499 420.115ZM77.7501 420.115C65.9667 428.163 86.92 450.939 89.4167 450.507C107.599 447.37 94.2 408.876 77.7501 420.115ZM1.91675 450.507C-5.84158 455.741 1.26925 473.557 7.75008 474.821C22.5784 477.72 22.9342 436.326 1.91675 450.507ZM60.2501 450.507C53.2792 452.106 49.5459 479.428 66.0834 474.821C80.0717 470.925 74.25 447.298 60.2501 450.507ZM-21.4166 474.821C-34.0166 476.298 -44.0966 502.271 -9.74992 493.056C-1.78741 484.297 -13.0341 473.836 -21.4166 474.821ZM36.9167 474.821C27.9567 476.675 19.0084 503.262 42.7501 499.135C59.4684 496.229 39.8801 474.207 36.9167 474.821ZM83.5834 480.899C82.3175 481.063 71.9809 489.914 77.7501 493.056C97.6534 503.894 103.86 478.249 83.5834 480.899ZM7.75008 505.213C6.91591 505.146 -1.20409 510.702 1.91675 517.37C8.36841 531.15 27.5717 506.818 7.75008 505.213ZM60.2501 505.213C46.5884 508.38 51.7509 532.846 66.0834 529.527C79.745 526.36 74.5826 501.894 60.2501 505.213ZM31.0834 529.527C16.5876 533.235 21.4817 563.864 36.9167 559.919C51.4126 556.212 46.5184 525.582 31.0834 529.527ZM89.4167 529.527C52.6784 529.472 107.004 600.554 130.25 596.39C131.907 584.701 93.22 529.533 89.4167 529.527ZM-15.5833 535.606C-17.4033 535.691 -27.1041 546.267 -24.3332 550.802C-13.8566 567.949 6.16341 534.621 -15.5833 535.606ZM1.91675 559.919C-14.8424 565.439 -6.18575 597.8 13.5834 590.312C27.1809 585.163 15.2634 555.525 1.91675 559.919ZM-44.7499 565.998C-52.0766 568.66 -58.2191 585.71 -50.5832 590.312C-39.7099 596.864 -16.3591 555.683 -44.7499 565.998ZM54.4167 565.998C38.3809 567.378 55.8692 590.81 60.2501 590.312C71.2401 589.054 72.1267 564.478 54.4167 565.998ZM31.0834 596.39L36.9167 602.469C48.4317 603.429 48.4317 595.43 36.9167 596.39H31.0834ZM-44.7499 614.626C-55.6524 617.422 -55.1274 636.648 -44.7499 638.94C-25.7274 643.146 -9.79659 605.672 -44.7499 614.626ZM7.75008 614.626C-2.10825 617.428 -7.90076 637.165 13.5834 632.861C26.1309 630.345 19.7201 611.222 7.75008 614.626ZM48.5834 620.704C39.7809 629.244 55.0584 642.423 60.2501 638.94C69.0409 633.043 63.0851 615.021 48.5834 620.704ZM-15.5833 645.018C-22.8516 647.474 -29.0291 664.743 -21.4166 669.332C-8.97408 676.827 7.04424 637.377 -15.5833 645.018ZM31.0834 645.018C19.6501 646.994 23.1792 665.63 36.9167 663.253C48.3501 661.278 44.8209 642.641 31.0834 645.018ZM83.5834 645.018C82.7317 644.988 74.2034 653.169 69.0001 654.136C74.7926 680.437 93.0859 694.509 118.583 699.724C133.558 691.415 86.8792 645.127 83.5834 645.018ZM7.75008 669.332C-8.37909 673.532 -7.84242 711.097 13.5834 699.724C18.9384 696.88 25.4717 664.718 7.75008 669.332ZM-38.9166 675.41C-39.9491 675.198 -55.4307 689.166 -50.5832 693.646C-26.8007 701.274 -25.5232 678.158 -38.9166 675.41ZM54.4167 675.41C40.6909 678.504 42.6159 701.189 66.0834 693.646C68.1717 687.488 62.8692 673.502 54.4167 675.41Z" fill="#E0ECDF" stroke="#C2D9C1" stroke-width="0.77886" mask="url(#path-1-inside-1_1743_28052)"/>
</g>
</svg>
