<svg width="300" height="584" viewBox="0 0 300 584" fill="none" xmlns="http://www.w3.org/2000/svg">
<path opacity="0.5" d="M143.985 0.510742C158.236 19.589 182.148 53.8805 194.03 83.6611C200.014 98.6588 202.926 112.462 200.069 122.593C198.644 127.647 195.782 131.789 191.14 134.718C186.492 137.65 180.042 139.376 171.428 139.564L171.11 139.571L171.225 139.867C174.641 148.684 181.63 154.189 189.514 157.895C197.393 161.598 206.193 163.515 213.257 165.144C216.795 165.959 219.891 166.7 222.23 167.555C223.4 167.982 224.37 168.434 225.108 168.932C225.847 169.429 226.339 169.962 226.576 170.546C227.041 171.692 226.57 173.18 224.604 175.245C222.651 177.298 219.287 179.85 214.169 183.089L214.333 183.494C220.272 182.26 225.236 182.598 229.505 184.129C233.775 185.66 237.368 188.39 240.555 191.968C246.938 199.133 251.665 209.657 256.943 220.649C257.026 220.822 257.048 220.968 257.031 221.095C257.014 221.222 256.956 221.348 256.849 221.476C256.627 221.739 256.216 221.986 255.64 222.218C254.493 222.679 252.823 223.031 251.111 223.393C249.414 223.751 247.677 224.119 246.441 224.614C245.826 224.861 245.306 225.15 244.979 225.507C244.814 225.688 244.693 225.892 244.639 226.121C244.584 226.351 244.601 226.593 244.689 226.841C245.419 228.892 247.367 230.704 249.816 232.355C252.273 234.012 255.277 235.534 258.171 236.99C261.073 238.45 263.861 239.841 265.913 241.242C266.938 241.942 267.768 242.638 268.334 243.335C268.899 244.031 269.187 244.714 269.166 245.397C269.157 245.679 268.93 246.046 268.41 246.508C267.902 246.959 267.163 247.458 266.236 248.008C264.384 249.107 261.829 250.38 258.979 251.85C253.293 254.78 246.45 258.478 241.89 263.037C239.607 265.318 237.883 267.829 237.167 270.582C236.45 273.342 236.753 276.325 238.489 279.531C241.934 285.892 251.028 293.143 269.039 301.402L244.725 332.245L244.44 332.605H244.899C262.554 332.615 272.731 337.16 278.611 344.33C284.501 351.512 286.125 361.376 286.556 372.13C286.771 377.504 286.688 383.083 286.696 388.651C286.705 394.216 286.805 399.765 287.388 405.06C288.549 415.605 291.631 425.176 299.761 431.878C299.385 434.417 297.292 436.36 293.759 437.824C290.176 439.309 285.176 440.274 279.186 440.875C267.208 442.076 251.348 441.812 235.137 441.376C218.933 440.94 202.381 440.334 189.042 440.855C182.373 441.116 176.496 441.659 171.863 442.649C167.388 443.606 164.023 444.988 162.244 446.982L162.077 447.178C160.303 449.33 159.161 452.711 158.458 456.99C157.754 461.276 157.486 466.494 157.483 472.346C157.478 484.049 158.535 498.329 159.307 512.827C160.079 527.332 160.566 542.061 159.429 554.687C158.294 567.274 155.546 577.715 149.907 583.774C148.945 583.745 148.074 583.306 147.278 582.472C146.452 581.605 145.715 580.319 145.061 578.655C143.752 575.328 142.798 570.546 142.102 564.749C140.708 553.16 140.348 537.581 140.187 521.621C140.025 505.667 140.062 489.333 139.463 476.255C139.163 469.716 138.705 463.983 137.98 459.513C137.618 457.278 137.189 455.352 136.678 453.798C136.168 452.248 135.571 451.047 134.862 450.275C132.778 448.007 129.055 446.685 124.218 446.01C119.37 445.333 113.355 445.299 106.633 445.647C93.1902 446.344 76.8687 448.571 61.3262 450.272C45.7701 451.975 31.0006 453.15 20.6191 451.757C15.4252 451.06 11.3689 449.723 8.8584 447.523C7.6073 446.427 6.73897 445.117 6.30273 443.558C5.866 441.997 5.85808 440.174 6.34766 438.05C7.04964 435.006 9.62557 433.031 13.1895 431.609C16.7504 430.189 21.2345 429.347 25.6543 428.531C30.0598 427.718 34.4073 426.931 37.6465 425.613C40.8827 424.297 43.1046 422.411 43.0869 419.36C43.0774 417.607 42.4292 416.214 41.2988 415.104C40.175 414.001 38.5824 413.183 36.6904 412.549C32.9097 411.281 27.8489 410.72 22.7197 410.136C17.5756 409.55 12.3569 408.94 8.20996 407.585C4.06 406.229 1.05512 404.15 0.225586 400.672H0.224609C0.221895 400.661 0.2185 400.623 0.232422 400.547C0.245765 400.474 0.272672 400.381 0.314453 400.266C0.398115 400.035 0.53614 399.737 0.724609 399.377C1.10101 398.657 1.66824 397.709 2.37598 396.584C3.79134 394.335 5.75578 391.403 7.85156 388.222C12.035 381.872 16.748 374.523 18.583 369.739C19.3411 367.764 19.1046 366.022 18.3848 364.424C17.6703 362.837 16.4764 361.384 15.3213 359.978C14.1568 358.56 13.0335 357.192 12.4033 355.745C11.7799 354.314 11.6429 352.813 12.4541 351.117C13.2033 349.553 14.5323 348.387 16.332 347.486C18.1343 346.585 20.3966 345.957 22.9893 345.462C25.5808 344.968 28.4893 344.609 31.5811 344.243C34.6702 343.877 37.9407 343.504 41.2461 342.979C54.4635 340.878 68.3346 336.335 73.6875 320.026L73.7705 319.773L73.5068 319.737C45.0192 315.769 29.0613 312.861 21.5674 310.095C19.6957 309.404 18.3695 308.727 17.5107 308.057C16.6525 307.386 16.2888 306.744 16.2744 306.119C16.26 305.487 16.6001 304.802 17.3105 304.046C18.0184 303.292 19.0673 302.496 20.4053 301.642C23.0809 299.934 26.8645 298.028 31.2686 295.802C35.6679 293.578 40.6774 291.038 45.7881 288.07C56.0065 282.137 66.6512 274.479 73.6602 264.168L73.8838 263.839L73.4863 263.82C59.3262 263.154 51.246 261.446 47.0449 259.144C44.951 257.996 43.8455 256.715 43.4121 255.364C42.9782 254.012 43.2032 252.545 43.8643 250.998C44.5258 249.45 45.6148 247.842 46.874 246.225C48.1335 244.607 49.5501 242.995 50.8682 241.425C52.1817 239.861 53.3969 238.339 54.2324 236.92C55.0642 235.507 55.5455 234.154 55.3281 232.939C55.2391 232.441 54.8541 231.82 54.3008 231.13C53.7395 230.43 52.9765 229.627 52.0859 228.76C50.3044 227.026 47.9932 225.02 45.7178 223.056C43.439 221.089 41.1971 219.164 39.5439 217.585C38.7169 216.795 38.0431 216.098 37.5879 215.529C37.3601 215.245 37.1923 214.998 37.0869 214.794C36.9782 214.583 36.9524 214.447 36.9629 214.37C37.2229 212.467 38.4707 210.989 40.5068 209.798C42.5467 208.605 45.3509 207.717 48.6602 206.996C55.2852 205.552 63.8274 204.791 72.1523 203.519C80.4538 202.25 88.529 200.473 94.126 196.986C96.9291 195.24 99.1217 193.058 100.406 190.287C101.691 187.515 102.057 184.173 101.244 180.126L101.211 179.958L101.039 179.948L49.7305 176.885C60.5475 170.419 66.7567 159.255 71.6367 147.641C74.1222 141.725 76.2746 135.662 78.5068 130.055C80.7435 124.436 83.0665 119.258 85.9053 115.061C87.5864 112.575 90.6285 110.504 94.3037 108.613C97.9756 106.724 102.24 105.033 106.344 103.286C110.439 101.543 114.375 99.743 117.354 97.6436C120.239 95.6111 122.269 93.2692 122.645 90.3857L122.676 90.1055C122.686 89.9909 122.642 89.8937 122.587 89.8203C122.533 89.749 122.459 89.6877 122.382 89.6348C122.226 89.5287 122.006 89.4232 121.747 89.3135C121.232 89.0952 120.479 88.8273 119.632 88.4912C117.917 87.8108 115.711 86.812 113.734 85.1836C111.761 83.5575 110.018 81.3041 109.222 78.1104C108.425 74.914 108.572 70.7535 110.42 65.3057C111.822 61.168 114.32 56.3278 117.361 51.0615C120.402 45.7963 123.978 40.12 127.534 34.3037C134.534 22.8544 141.458 10.8604 143.985 0.510742ZM88.6631 408.405C87.0576 405.212 83.2229 403.251 76.5254 403.607C73.6682 403.759 70.4036 405.646 67.3955 408.384C64.38 411.128 61.5879 414.757 59.6787 418.456C57.773 422.148 56.7289 425.943 57.2578 429.008C57.5233 430.546 58.1865 431.903 59.3359 432.962C60.4839 434.02 62.1023 434.766 64.2568 435.113C68.9642 435.871 73.7682 434.185 77.8945 431.281C82.022 428.377 85.4951 424.238 87.5488 420.047C89.5978 415.865 90.2573 411.576 88.6631 408.405ZM125.526 403.607C125.428 403.602 125.324 403.634 125.233 403.671C125.136 403.711 125.024 403.768 124.901 403.84C124.656 403.984 124.349 404.195 123.993 404.462C123.28 404.997 122.355 405.769 121.304 406.712C119.2 408.599 116.58 411.182 114.131 413.945C111.683 416.707 109.396 419.659 107.965 422.283C107.249 423.595 106.741 424.836 106.538 425.938C106.335 427.041 106.433 428.03 106.965 428.807L107.007 428.867L107.076 428.892C116.483 432.114 123.572 432.247 128.613 430.584C133.662 428.918 136.638 425.457 137.81 421.545C140.144 413.748 135.29 404.157 125.527 403.607H125.526ZM209.779 402.255C205.931 401.497 202.068 401.798 198.871 403.637C197.259 404.564 196.329 405.846 195.974 407.351C195.62 408.847 195.839 410.543 196.479 412.301C197.757 415.815 200.737 419.646 204.391 422.801C208.045 425.957 212.4 428.46 216.45 429.293C220.51 430.127 224.296 429.285 226.717 425.699C228.816 422.592 228.903 419.184 227.664 415.955C226.428 412.734 223.873 409.688 220.678 407.261C217.481 404.833 213.628 403.013 209.779 402.255ZM250.618 403.487C249.595 403.264 248.654 403.277 247.87 403.627C246.085 404.424 244.955 405.498 244.386 406.756C243.817 408.013 243.821 409.424 244.245 410.866C245.09 413.741 247.613 416.799 250.763 419.214C253.915 421.631 257.733 423.435 261.205 423.771C262.943 423.94 264.605 423.741 266.053 423.057C267.412 422.413 268.57 421.346 269.422 419.78L269.588 419.461C269.639 419.358 269.631 419.246 269.614 419.161C269.596 419.07 269.559 418.971 269.512 418.868C269.416 418.662 269.26 418.408 269.059 418.118C268.653 417.536 268.039 416.779 267.272 415.919C265.738 414.197 263.577 412.044 261.217 410.009C258.858 407.975 256.291 406.052 253.943 404.8C252.77 404.174 251.643 403.711 250.618 403.487ZM167.15 408.64C165.141 408.612 163.292 408.997 162.117 409.863C158.798 412.312 157.734 414.787 158.202 416.989C158.666 419.169 160.612 420.979 163.072 422.153C165.54 423.332 168.577 423.899 171.311 423.558C174.045 423.216 176.506 421.959 177.754 419.461C178.888 417.189 178.769 415.214 177.85 413.597C176.938 411.993 175.258 410.769 173.323 409.94C171.385 409.111 169.168 408.667 167.15 408.64ZM69.1709 356.205C64.8152 356.38 59.1573 357.589 51.9736 360.131C48.7677 361.265 45.6874 363.814 43.1455 367.073C40.6019 370.335 38.5843 374.324 37.5107 378.362C36.4376 382.399 36.3031 386.504 37.5508 389.984C38.8019 393.474 41.4366 396.318 45.8535 397.827V397.828C51.5782 399.782 58.436 397.081 64.5605 392.348C70.6966 387.605 76.1632 380.775 79.127 374.333C80.6086 371.112 81.4717 367.975 81.4697 365.234C81.4677 362.489 80.5957 360.129 78.5957 358.505C76.6023 356.887 73.5244 356.03 69.1709 356.205ZM156.094 353.907C151.181 354.632 148.1 358.309 146.783 363.122C145.467 367.932 145.898 373.909 148.016 379.333C150.134 384.759 153.949 389.655 159.426 392.28C164.908 394.908 172.023 395.245 180.702 391.609L180.749 391.59L180.782 391.552C182.959 389.085 182.556 385.436 180.815 381.461C179.068 377.47 175.936 373.056 172.485 368.96C169.033 364.862 165.251 361.07 162.195 358.322C160.668 356.949 159.319 355.834 158.28 355.07C157.762 354.689 157.316 354.393 156.962 354.195C156.785 354.097 156.626 354.019 156.488 353.97C156.358 353.923 156.219 353.889 156.094 353.907ZM126.378 361.355C124.496 358.705 120.472 357.839 113.85 359.919L113.2 360.129C113.11 360.159 113.018 360.225 112.935 360.294C112.846 360.368 112.744 360.466 112.633 360.583C112.41 360.817 112.134 361.141 111.817 361.541C111.184 362.342 110.375 363.458 109.475 364.79C107.673 367.455 105.495 370.996 103.597 374.633C101.7 378.266 100.076 382.01 99.3896 385.076C99.0469 386.608 98.9337 387.991 99.1514 389.113C99.3708 390.244 99.93 391.123 100.93 391.604L100.967 391.623L101.009 391.626C106.481 392.054 111.749 389.707 116.122 386.12C120.496 382.533 123.996 377.69 125.94 373.084C126.913 370.781 127.499 368.528 127.606 366.515C127.713 364.503 127.341 362.712 126.378 361.355ZM254.082 353.905C252.044 353.916 250.51 354.525 249.429 355.594C248.351 356.659 247.745 358.156 247.515 359.899C247.054 363.38 248.073 367.912 249.924 372.213C251.776 376.517 254.476 380.625 257.412 383.254C260.339 385.875 263.578 387.083 266.441 385.383C269.47 383.584 270.466 380.675 270.203 377.374C269.941 374.086 268.432 370.385 266.432 366.925C264.429 363.461 261.922 360.217 259.641 357.838C258.5 356.649 257.412 355.672 256.468 354.99C255.996 354.65 255.555 354.38 255.159 354.195C254.766 354.012 254.4 353.904 254.082 353.905ZM234.824 371.744C230.268 363.689 216.327 355.478 198.925 360.125L198.853 360.145L198.807 360.204C196.526 363.143 195.828 365.875 196.224 368.359C196.618 370.836 198.095 373.028 200.089 374.902C204.073 378.648 210.19 381.195 214.229 382.3C219.247 383.673 223.324 384.22 226.55 384.139C229.774 384.057 232.163 383.348 233.784 382.189C235.412 381.026 236.252 379.422 236.389 377.598C236.525 375.781 235.965 373.76 234.824 371.744ZM113.015 311.652C111.795 310.526 109.859 310.064 107.12 310.418L107.019 310.431L106.963 310.516L82.4736 347.793L82.3545 347.975L82.5322 348.098C84.2664 349.299 86.3083 349.544 88.4873 349.077C90.6616 348.612 92.9823 347.437 95.3037 345.788C99.9472 342.489 104.639 337.254 108.229 331.824C111.813 326.401 114.325 320.744 114.563 316.597C114.683 314.52 114.234 312.779 113.015 311.652ZM162.259 310.416C153.468 310.043 148.84 312.096 147.301 315.557C146.534 317.28 146.555 319.312 147.168 321.487C147.781 323.663 148.99 325.998 150.624 328.346C153.891 333.041 158.88 337.818 164.297 341.504C169.71 345.187 175.576 347.8 180.601 348.137L180.608 348.138H180.616C183.436 348.128 185.362 347.536 186.526 346.459C187.701 345.373 188.056 343.835 187.832 342.047C187.609 340.263 186.808 338.202 185.632 336.014C184.454 333.822 182.893 331.49 181.136 329.161C177.622 324.504 173.314 319.847 169.696 316.347C167.887 314.596 166.248 313.132 164.964 312.101C164.322 311.585 163.766 311.174 163.319 310.89C163.096 310.747 162.896 310.634 162.725 310.555C162.559 310.478 162.398 310.422 162.259 310.416ZM212.249 315.09C209.259 315.009 206.616 315.526 204.978 316.669C202.519 318.383 201.064 320.25 200.428 322.177C199.791 324.105 199.984 326.068 200.773 327.95C202.348 331.703 206.302 335.165 210.884 337.545C215.468 339.926 220.733 341.252 224.971 340.686C227.093 340.402 228.97 339.641 230.369 338.286C231.683 337.014 232.559 335.233 232.831 332.879L232.877 332.4C233.476 324.777 228.061 319.725 221.776 317.145C218.63 315.853 215.247 315.171 212.249 315.09ZM113.103 248.365L70.2461 298.067L70.0273 298.321L70.3467 298.425C75.6148 300.126 82.3131 299.247 89.0322 296.651C95.7567 294.053 102.533 289.723 107.974 284.477C113.413 279.232 117.534 273.056 118.917 266.76C120.303 260.45 118.936 254.035 113.431 248.355L113.261 248.181L113.103 248.365ZM143.662 254.692L137.539 298.182L137.502 298.451L137.773 298.435L189.812 295.328L190.353 295.296L189.946 294.939L144.029 254.557L143.719 254.284L143.662 254.692ZM209.126 256.649C205.747 253.721 202.152 252.475 198.864 254.535C197.101 255.64 196.002 257.098 195.457 258.801C194.914 260.499 194.927 262.425 195.363 264.464C196.234 268.538 198.801 273.114 202.1 277.35C205.401 281.589 209.452 285.506 213.316 288.264C215.248 289.642 217.139 290.734 218.87 291.431C220.597 292.125 222.187 292.435 223.508 292.22L223.537 292.215L223.565 292.202C224.001 292 224.314 291.621 224.522 291.125C224.73 290.631 224.84 290.008 224.87 289.289C224.93 287.85 224.669 285.973 224.152 283.843C223.118 279.578 221.049 274.245 218.398 269.25C215.75 264.258 212.51 259.583 209.126 256.649ZM211.229 204.799C208.428 204.767 206.134 205.417 204.306 206.578C202.477 207.739 201.127 209.405 200.199 211.383C198.346 215.333 198.172 220.545 199.234 225.576C200.298 230.609 202.606 235.497 205.761 238.802C208.919 242.111 212.947 243.851 217.413 242.511C222.34 241.032 224.974 237.921 225.995 234.086C227.012 230.267 226.425 225.751 224.971 221.44C223.516 217.126 221.183 212.993 218.676 209.928C217.422 208.395 216.121 207.123 214.858 206.23C213.599 205.34 212.357 204.812 211.229 204.799ZM113.048 198.808C113.022 204.303 110.167 208.601 105.861 212.111C101.552 215.625 95.8088 218.331 90.0576 220.633C87.1833 221.783 84.3122 222.831 81.6211 223.828C78.9322 224.825 76.4213 225.772 74.2744 226.719C72.1302 227.664 70.3333 228.617 69.0811 229.628C67.8315 230.637 67.0824 231.74 67.1309 232.987C67.2679 236.539 68.39 238.973 70.251 240.441C72.1072 241.906 74.6563 242.376 77.5801 242.092C83.4231 241.524 90.8834 237.94 97.7119 232.965C104.544 227.987 110.781 221.591 114.164 215.36C115.856 212.245 116.842 209.156 116.818 206.298C116.795 203.432 115.756 200.81 113.422 198.646L113.051 198.301L113.048 198.808ZM155.932 198.701L140.626 226.659L140.48 226.924L140.776 226.984L186.693 236.303L187.308 236.428L186.91 235.944L156.299 198.667L156.09 198.413L155.932 198.701ZM138.323 175.218C136.142 173.961 133.918 173.289 131.595 173.739C125.479 174.926 122.539 177.559 122.091 180.673C121.647 183.762 123.685 187.179 127.179 189.879C134.186 195.294 147.263 198.012 159.314 189.673L159.773 189.354L159.222 189.27C156.55 188.856 154.064 187.586 151.689 185.925C149.313 184.262 147.065 182.22 144.859 180.271C142.66 178.327 140.501 176.473 138.323 175.218ZM118.822 137.605C116.511 136.492 113.034 136.001 108.128 136.373L107.127 136.459C107.049 136.467 106.971 136.501 106.907 136.534C106.838 136.57 106.76 136.619 106.675 136.677C106.504 136.793 106.292 136.958 106.046 137.162C105.552 137.571 104.909 138.148 104.171 138.837C102.694 140.216 100.826 142.055 98.9883 143.923C97.1503 145.791 95.3398 147.691 93.9795 149.192C93.2996 149.943 92.7303 150.597 92.3252 151.098C92.1231 151.348 91.9594 151.563 91.8428 151.735C91.7846 151.821 91.7355 151.901 91.6992 151.97C91.6659 152.033 91.6321 152.109 91.6221 152.183V152.184C90.9532 157.228 91.3642 160.745 92.5508 163.024C93.748 165.324 95.7212 166.337 98.0791 166.391C100.421 166.444 103.141 165.554 105.885 164.072C108.633 162.589 111.424 160.501 113.915 158.133C116.406 155.764 118.602 153.109 120.153 150.488C121.702 147.872 122.622 145.266 122.528 143.003C122.434 140.718 121.307 138.803 118.822 137.605ZM151.334 110.93C148.525 110.686 145.732 110.628 143.336 110.746C140.946 110.863 138.929 111.155 137.682 111.621C135.057 112.603 133.146 114.122 131.847 116.033C130.549 117.943 129.87 120.233 129.691 122.747C129.334 127.77 130.965 133.717 133.677 139.421C136.39 145.128 140.196 150.615 144.216 154.721C146.226 156.774 148.292 158.487 150.308 159.708C152.321 160.928 154.296 161.666 156.116 161.754L156.478 161.771L156.33 161.441L141.11 127.464L165.411 115.135L165.728 114.974L165.444 114.759C164.048 113.697 161.915 112.864 159.447 112.234C156.974 111.604 154.143 111.174 151.334 110.93ZM149.846 74.3975L134.54 89.9287L134.317 90.1543L134.605 90.2871L168.278 105.819L168.397 105.874L168.503 105.796C173.455 102.141 175.417 98.8319 175.328 95.7676C175.239 92.7127 173.114 89.9987 170.144 87.5303C167.167 85.0564 163.288 82.7857 159.602 80.6289C155.904 78.4653 152.408 76.4206 150.153 74.3877L149.995 74.2451L149.846 74.3975ZM152.588 36.5615C151.777 36.2486 150.864 36.4034 149.877 37.0938V37.0947C147.151 39.0033 145.981 43.0124 146.058 46.8662C146.096 48.8012 146.45 50.7181 147.091 52.3447C147.731 53.9688 148.667 55.3229 149.885 56.1025C150.934 56.7738 151.884 56.9113 152.713 56.5869C153.529 56.2673 154.175 55.5191 154.671 54.5371C155.664 52.5722 156.122 49.5432 156.091 46.5449C156.059 43.5462 155.537 40.5261 154.529 38.5791C154.026 37.6069 153.383 36.8687 152.588 36.5615Z" fill="#E0ECDF" stroke="#C2D9C1" stroke-width="0.445104"/>
</svg>
