<svg width="22" height="20" viewBox="0 0 22 20" fill="none" xmlns="http://www.w3.org/2000/svg">
<path d="M17.8181 6.27243C18.2199 6.17197 18.6271 6.41629 18.7276 6.81813C18.8281 7.21998 18.5837 7.62718 18.1819 7.72764L14.1819 8.72764C13.7801 8.8281 13.3729 8.58378 13.2724 8.18194C13.1719 7.78009 13.4163 7.37289 13.8181 7.27243L17.8181 6.27243Z" fill="#1C274D"/>
<path d="M17.8181 10.2724C18.2199 10.172 18.6271 10.4163 18.7276 10.8181C18.8281 11.22 18.5837 11.6272 18.1819 11.7276L14.1819 12.7276C13.7801 12.8281 13.3729 12.5838 13.2724 12.1819C13.1719 11.7801 13.4163 11.3729 13.8181 11.2724L17.8181 10.2724Z" fill="#1C274D"/>
<path d="M3.27239 6.81813C3.37285 6.41629 3.78006 6.17197 4.1819 6.27243L8.1819 7.27243C8.58375 7.37289 8.82807 7.78009 8.72761 8.18194C8.62715 8.58378 8.21994 8.8281 7.8181 8.72764L3.8181 7.72764C3.41625 7.62718 3.17193 7.21998 3.27239 6.81813Z" fill="#1C274D"/>
<path d="M3.27239 10.8181C3.37285 10.4163 3.78006 10.172 4.1819 10.2724L8.1819 11.2724C8.58375 11.3729 8.82807 11.7801 8.72761 12.1819C8.62715 12.5838 8.21994 12.8281 7.8181 12.7276L3.8181 11.7276C3.41625 11.6272 3.17193 11.22 3.27239 10.8181Z" fill="#1C274D"/>
<path fill-rule="evenodd" clip-rule="evenodd" d="M21.75 2.93323C21.75 1.46992 20.5847 0.214983 19.0559 0.268237C17.9175 0.307889 16.4296 0.426304 15.2849 0.768985C14.2899 1.06687 13.1706 1.64872 12.2982 2.15366C11.4801 2.62712 10.4617 2.65074 9.63284 2.21248C8.63736 1.68609 7.32766 1.06215 6.19136 0.762302C5.23055 0.508763 4.01517 0.386983 3.02841 0.326336C1.47017 0.230567 0.25 1.49868 0.25 2.99784V14.1436C0.25 15.6798 1.49378 16.8792 2.96804 16.9714C3.9268 17.0314 5.00566 17.1467 5.80864 17.3586C6.8012 17.6205 8.0286 18.2029 9.01962 18.7311C10.2529 19.3885 11.7471 19.3885 12.9804 18.7311C13.9714 18.2029 15.1988 17.6205 16.1914 17.3586C16.9943 17.1467 18.0732 17.0314 19.032 16.9714C20.5062 16.8792 21.75 15.6798 21.75 14.1436V2.93323ZM19.1081 1.76733C19.7229 1.74591 20.25 2.25164 20.25 2.93323V14.1436C20.25 14.8294 19.6817 15.4278 18.9383 15.4743C17.9582 15.5356 16.7591 15.6574 15.8086 15.9082C14.6383 16.2171 13.2827 16.8701 12.2748 17.4074C12.1065 17.4971 11.9305 17.5678 11.75 17.6194V3.94207C12.2023 3.85153 12.6421 3.68771 13.0495 3.45191C13.9 2.95972 14.8949 2.45152 15.7151 2.20597C16.6643 1.92182 17.9892 1.8063 19.1081 1.76733ZM10.25 3.97501C9.79499 3.90426 9.34899 3.75918 8.93167 3.53851C7.95486 3.022 6.77076 2.46654 5.80864 2.21266C4.99643 1.99833 3.90238 1.88288 2.93639 1.82351C2.30243 1.78455 1.75 2.30065 1.75 2.99784V14.1436C1.75 14.8294 2.31831 15.4278 3.06168 15.4743C4.04176 15.5356 5.24092 15.6574 6.19136 15.9082C7.3617 16.2171 8.71727 16.8701 9.72521 17.4074C9.89346 17.4971 10.0695 17.5678 10.25 17.6194V3.97501Z" fill="#1C274D"/>
</svg>
