<svg width="68" height="46" viewBox="0 0 68 46" fill="none" xmlns="http://www.w3.org/2000/svg">
<path d="M12.3911 37.9982C12.3911 38.6911 12.2822 39.3642 12.0644 40.0176C11.8467 40.6709 11.5398 41.2648 11.1438 41.7994C10.7677 42.3537 10.3024 42.8388 9.74806 43.2545C9.21352 43.6703 8.60968 43.9871 7.93655 44.2048L4.55109 45.363L3.89776 43.3139L7.4614 42.1261C8.31271 41.8291 8.99574 41.3242 9.51049 40.6115C10.045 39.9186 10.3123 39.1168 10.3123 38.2061V37.6715C10.1539 37.7705 9.96584 37.8398 9.74806 37.8794C9.55008 37.8992 9.34221 37.9091 9.12443 37.9091H6.06564C5.4519 37.9091 4.87776 37.7804 4.34322 37.523C3.82847 37.2657 3.39291 36.9192 3.03655 36.4836C2.68018 36.0481 2.42281 35.5531 2.26443 34.9988C2.12584 34.4246 2.11594 33.8406 2.23473 33.2467L2.73958 30.5442C2.81877 30.0889 2.97715 29.6731 3.21473 29.297C3.45231 28.901 3.73938 28.5644 4.07594 28.2873C4.41251 28.0101 4.78867 27.7923 5.20443 27.6339C5.63998 27.4756 6.09534 27.3964 6.57049 27.3964H8.23352C8.80766 27.3964 9.34221 27.5052 9.83715 27.723C10.3519 27.9408 10.7974 28.2378 11.1735 28.6139C11.5497 28.9703 11.8467 29.4059 12.0644 29.9206C12.2822 30.4156 12.3911 30.9501 12.3911 31.5242V37.9982ZM10.342 35.4739V31.5242C10.342 31.0095 10.1539 30.5739 9.77776 30.2176C9.4214 29.8414 8.98584 29.6533 8.47109 29.6533H6.51109C6.05574 29.6533 5.65978 29.7919 5.32322 30.0691C4.98665 30.3463 4.76887 30.7125 4.66988 31.1679L4.22443 33.5436C4.12544 34.0584 4.24423 34.5137 4.58079 34.9097C4.91736 35.2859 5.34301 35.4739 5.85776 35.4739H10.342ZM21.138 28.7624V33.4248C21.138 33.999 21.3459 34.484 21.7616 34.88C22.1972 35.276 22.7021 35.4739 23.2762 35.4739H26.2459C26.3647 35.4739 26.4637 35.5234 26.5429 35.6224C26.6221 35.7016 26.6616 35.8006 26.6616 35.9194V37.4933C26.6616 37.7705 26.5231 37.9091 26.2459 37.9091H23.6326C23.1574 37.9091 22.6922 37.8101 22.2368 37.6121C21.7814 37.4141 21.4152 37.1172 21.138 36.7212V38.0279C21.138 38.7208 21.0291 39.384 20.8113 40.0176C20.5936 40.6709 20.2867 41.2648 19.8907 41.7994C19.5146 42.3339 19.0493 42.7992 18.495 43.1951C17.9406 43.6109 17.3368 43.9277 16.6835 44.1455L13.298 45.3333L12.6447 43.2842L16.238 42.0964C17.1091 41.8192 17.8021 41.3143 18.3168 40.5818C18.8315 39.8493 19.0889 39.0376 19.0889 38.1467V28.7624H21.138ZM33.5504 37.9091C32.8377 37.9091 32.1745 37.7507 31.5607 37.4339C30.947 37.0974 30.4421 36.6024 30.0462 35.9491C29.6502 36.6024 29.1454 37.0974 28.5316 37.4339C27.9179 37.7507 27.2547 37.9091 26.5419 37.9091H25.6807C25.4035 37.9091 25.265 37.7705 25.265 37.4933V35.8897C25.265 35.7709 25.3145 35.6719 25.4134 35.5927C25.4926 35.5135 25.5817 35.4739 25.6807 35.4739H26.8983C27.4922 35.4739 27.9971 35.2661 28.4128 34.8503C28.8286 34.4345 29.0365 33.9297 29.0365 33.3358V28.703H31.0856V33.3655C31.0856 33.9594 31.2934 34.4642 31.7092 34.88C32.125 35.276 32.6199 35.4739 33.1941 35.4739H33.7286C34.3027 35.4739 34.8076 35.3057 35.2431 34.9691C35.6787 34.6127 35.946 34.1574 36.045 33.603L36.9953 28.9109L38.985 29.2673L38.2128 33.1576C38.0941 33.7911 38.2425 34.3356 38.6583 34.7909C39.0939 35.2463 39.6284 35.4739 40.2619 35.4739H42.8159V27.8715H44.865V35.2364C44.865 36.0481 44.6175 36.7014 44.1225 37.1964C43.6276 37.6715 42.9842 37.9091 42.1922 37.9091H40.2322C39.5789 37.9091 38.9553 37.7408 38.3613 37.4042C37.7674 37.0677 37.3219 36.5826 37.025 35.9491C36.629 36.6222 36.1242 37.1172 35.5104 37.4339C34.8967 37.7507 34.2433 37.9091 33.5504 37.9091Z" fill="#37643C"/>
<path d="M58.206 0C61.2769 0.972961 60.802 6.17068 61.0458 6.77184C61.3175 7.44204 62.5111 7.41146 62.7934 8.08252C63.5374 9.85238 63.0599 11.3422 63.6672 12.8883C63.9524 13.6149 66.2592 15.7474 66.2885 15.9466C66.552 17.7309 64.9722 16.4752 64.9778 17.6942C64.9805 18.256 72.8511 20.4706 61.4827 20.3155C62.8025 23.7242 67.5979 19.9695 67.5992 22.5C67.5992 22.6778 66.2776 23.6464 66.2885 23.8107C66.3156 24.2249 67.5966 25.449 67.5992 25.5583C67.6193 26.4486 65.1753 28.5702 67.5992 31.6748H64.5409C74.7918 36.9459 59.0588 33.7496 58.4244 35.6068L59.0798 45C56.091 43.8811 58.3375 37.3832 57.5506 35.6068C56.8293 33.9781 49.4 35.9196 48.8128 34.2961C48.614 33.7465 50.6054 32.1912 50.5604 31.6748C50.5416 31.4594 49.2593 30.5677 49.2497 30.3641C49.1557 28.3522 50.1016 28.0935 50.1235 27.3058C50.137 26.81 48.7092 26.8287 48.8128 25.9951C48.8718 25.5198 50.5127 25.1524 50.5604 24.6845C50.5831 24.4608 49.161 23.7569 49.2497 22.9369C49.3707 21.818 52.7348 21.538 49.2497 19.0049C49.746 17.9283 53.5955 13.7687 53.6186 13.3252C53.6269 13.1697 52.2852 12.1517 52.3079 12.0146C53.1101 7.1432 54.6283 7.86451 57.5506 5.89806C56.4025 4.72981 55.6646 7.23102 54.9293 4.58738L58.206 0ZM58.206 2.18447C57.382 2.64757 58.5983 4.44495 59.5167 4.36893L58.206 2.18447ZM58.6429 5.24272C57.9281 6.22049 58.9417 6.86097 59.5167 7.42718C60.1646 7.17335 58.8251 5.17981 58.6429 5.24272ZM57.3322 7.86408C57.192 8.14718 52.7889 11.4781 54.7108 11.7961C56.8193 12.1448 57.7634 8.00039 57.3322 7.86408ZM58.6429 8.73786C57.1116 8.86675 59.1117 12.5851 61.2642 11.7961C61.7924 10.8026 59.1283 8.6968 58.6429 8.73786ZM58.6429 12.233C56.458 12.6017 60.0623 16.4945 61.4827 14.6359C61.5954 14.4883 58.8963 12.1902 58.6429 12.233ZM56.0215 12.6699C55.6943 12.5969 53.5439 14.3567 54.2739 15.2913C55.8171 16.0414 57.8661 13.0801 56.0215 12.6699ZM62.5749 13.5437C61.6548 13.5939 62.0056 15.2332 63.4487 14.8544C63.8214 14.5385 62.6536 13.5393 62.5749 13.5437ZM56.0215 16.165C55.6655 16.1865 54.0328 18.4063 54.7108 18.7864C56.2081 19.6257 58.4869 16.0161 56.0215 16.165ZM58.6429 16.165C57.3366 17.1153 59.5752 19.3653 61.0458 18.1311C60.5997 17.8226 59.1095 15.8256 58.6429 16.165ZM62.138 16.6019C61.4438 17.152 61.8833 19.0669 63.4487 18.7864C64.7646 18.5505 63.0603 15.8715 62.138 16.6019ZM52.5264 17.0388C52.4189 17.0594 50.9313 18.3731 51.2157 18.7864C52.9091 19.3933 54.7633 16.6102 52.5264 17.0388ZM56.8953 19.6602C56.6646 19.6252 54.5068 21.496 55.1477 22.2816C56.0932 22.4725 58.884 19.9603 56.8953 19.6602ZM53.4002 20.0971C53.2472 20.1351 51.0191 22.0531 51.6526 22.7184C53.1175 22.4445 53.8296 21.5104 54.4924 20.3155C54.312 20.0062 53.7038 20.0215 53.4002 20.0971ZM59.0798 20.0971C57.929 20.735 61.1402 22.3484 61.2642 22.7184C61.6653 21.8888 59.9855 19.5951 59.0798 20.0971ZM56.8953 23.1553C56.7559 23.1453 54.3722 24.4844 55.1477 25.3398C57.3864 26.1502 58.8067 23.2908 56.8953 23.1553ZM59.9536 23.1553C58.7678 24.0147 60.9785 26.0366 62.138 25.7767L59.9536 23.1553ZM63.8856 23.1553C61.7129 22.9933 63.987 25.3765 65.1963 25.7767C66.4987 25.3 64.2963 23.1859 63.8856 23.1553ZM52.9633 23.5922C51.8728 23.6766 50.3703 26.1494 51.6526 26.2136C52.1598 26.2389 55.6917 23.3817 52.9633 23.5922ZM54.2739 26.6505L50.5604 29.0534C50.67 30.614 55.3068 27.9122 54.2739 26.6505ZM56.8953 26.6505C56.7385 26.6632 54.5693 28.5562 55.1477 29.2718C56.1141 29.7022 58.632 26.5098 56.8953 26.6505ZM59.0798 26.6505C57.4248 27.755 62.9611 30.5353 63.2303 29.9272C62.0144 28.3299 61.5163 26.3464 59.0798 26.6505ZM63.4487 26.6505C62.505 27.301 64.2832 29.3557 65.1963 28.835C65.8713 28.45 64.3863 26.0039 63.4487 26.6505ZM56.4584 30.1456C56.2417 30.1168 53.8659 33.0042 53.8371 33.6408C57.1177 35.1913 58.1942 30.3759 56.4584 30.1456ZM53.4002 30.5825L50.7788 33.6408C51.7614 34.2804 54.5758 31.6407 53.4002 30.5825ZM58.6429 30.5825C57.8521 32.3751 58.6066 34.401 60.8273 33.6408C62.0358 33.227 59.5656 31.265 58.6429 30.5825ZM61.7011 31.0194L63.2303 33.4223C65.9036 33.7373 63.1521 31.1898 61.7011 31.0194Z" fill="#37643C"/>
</svg>
