<svg width="281" height="877" viewBox="0 0 281 877" fill="none" xmlns="http://www.w3.org/2000/svg">
<g opacity="0.5">
<mask id="path-1-inside-1_1350_18263" fill="white">
<path d="M131.75 1.00818C145.838 -2.44678 146.293 7.55314 152.167 16.2149C183.037 61.7255 195.538 164.109 239.667 198.695C228.298 220.362 211.772 207.661 193 210.861L257.167 283.853C257.668 312.228 218.124 286.997 216.333 302.101L219.25 329.473C204.614 324.449 199.568 289.96 181.333 314.266C206.732 359.965 308.197 400.981 198.833 399.424C286.013 425.956 212.198 404.655 251.333 472.416L236.75 475.457L219.25 451.126C179.922 494.526 280.43 491.801 280.5 502.829L210.5 521.077C244.304 544.398 263.473 584.197 280.5 624.483H198.833L257.167 636.648L222.167 654.896C236.353 655.267 269.312 707.487 263 715.723H146.333L137.583 876.914C102.315 777.858 188.853 687.949 32.5834 712.682C9.12762 704.525 61.6101 676.246 53.0001 654.896C46.9043 639.787 24.6209 648.552 20.9168 645.772C10.1193 637.67 24.4401 625.353 23.8334 624.483C18.3676 616.697 0.599288 611.216 0.500122 606.235C0.371788 599.757 101.913 524.581 67.5834 511.953C-49.7774 512.653 22.5734 492.762 29.6668 466.333C30.4659 463.347 8.14762 419.965 18.0001 405.506C31.1251 386.249 72.2209 431.23 82.1668 399.424L18.0001 393.341C7.34845 373.365 57.9234 377.569 58.8334 356.845C58.9209 354.795 46.9276 346.529 47.1668 344.68C52.6968 302.168 74.4143 313.974 29.6668 283.853C29.6726 272.302 101.148 258.531 93.8334 223.026C93.2093 219.985 46.7234 211.937 47.1668 192.613C47.5518 175.818 155.229 169.036 64.6668 162.199L131.75 1.00818ZM137.583 55.7523L140.5 64.8763L143.417 67.9176L146.333 58.7936L137.583 55.7523ZM120.083 80.083C116.461 80.4115 106.153 94.5902 114.25 98.331C126.71 104.085 131.202 79.0672 120.083 80.083ZM155.083 80.083C146.24 81.92 158.636 99.4746 160.917 98.331C166.575 95.5026 166.884 77.6317 155.083 80.083ZM137.583 110.496C126.15 112.473 129.679 131.123 143.417 128.744C154.85 126.768 151.321 108.118 137.583 110.496ZM114.25 134.827C110.4 135.35 100.396 149.371 108.417 153.075C118.199 157.595 132.234 132.394 114.25 134.827ZM155.083 140.91C160.672 164.559 178.714 195.709 204.667 180.447L155.083 140.91ZM137.583 159.158C122.755 156.256 122.399 197.679 143.417 183.489C151.175 178.251 144.064 160.423 137.583 159.158ZM108.417 195.654C104.567 196.177 94.5626 210.198 102.583 213.902C112.366 218.421 126.401 193.221 108.417 195.654ZM155.083 201.737C142.536 204.255 148.947 223.391 160.917 219.985C170.775 217.181 176.568 197.43 155.083 201.737ZM131.75 219.985C120.492 221.53 120.492 248.853 131.75 250.398C145.668 252.302 145.668 218.081 131.75 219.985ZM178.417 219.985C159.756 220.654 167.654 255.921 184.25 250.398C197.515 245.982 196.343 219.346 178.417 219.985ZM108.417 250.398C97.2984 249.382 101.79 274.4 114.25 268.646C122.347 264.905 112.039 250.726 108.417 250.398ZM155.083 250.398C143.883 250.258 133.99 282.289 160.917 274.729C177.023 270.209 158.805 250.447 155.083 250.398ZM201.75 256.481C188.87 265.544 208.342 281.42 219.25 280.811C228.111 270.252 206.096 253.421 201.75 256.481ZM131.75 280.811C126.127 281.085 117.715 300.398 125.917 305.142C138.528 312.435 145.324 280.154 131.75 280.811ZM172.583 286.894C153.841 300.173 191.571 300.027 187.167 289.935C185.423 285.933 174.619 285.452 172.583 286.894ZM102.583 311.225C90.9984 313.244 96.8551 337.684 108.417 335.556C117.103 333.956 126.518 307.058 102.583 311.225ZM143.417 317.307C135.058 321.152 146.281 335.653 149.25 335.556C159.219 335.233 162.731 308.421 143.417 317.307ZM125.917 335.556C120.393 336.273 116.163 361.145 125.917 359.886C133.71 358.876 141.988 333.475 125.917 335.556ZM166.75 335.556C155.165 337.575 161.022 362.015 172.583 359.886C181.269 358.286 190.684 331.389 166.75 335.556ZM79.2501 341.638C74.8809 343.262 65.2851 356.151 73.4168 359.886C83.5434 364.533 105.232 331.985 79.2501 341.638ZM96.7501 365.969C96.1376 366.06 87.7493 374.503 88.0001 375.093C94.8484 391.218 118.654 362.739 96.7501 365.969ZM137.583 365.969C125.065 375.458 147.576 384.533 152.167 375.093C156.378 366.425 141.842 362.739 137.583 365.969ZM190.083 365.969C180.593 367.678 181.602 383.177 190.083 384.217C209.969 386.656 217.057 361.115 190.083 365.969ZM114.25 390.3C105.891 394.144 117.114 408.645 120.083 408.548C130.053 408.225 133.564 381.413 114.25 390.3ZM160.917 390.3C144.817 394.545 162.078 417.142 172.583 414.63C187.044 411.175 181.713 384.813 160.917 390.3ZM90.9167 414.63C82.1084 415.938 68.9018 441.601 85.0834 445.044C99.7076 448.152 113.148 411.327 90.9167 414.63ZM137.583 414.63C119.068 420.835 135.39 451.035 143.417 451.126C162.737 451.351 156.559 408.268 137.583 414.63ZM44.2501 420.713C40.6276 421.042 30.3201 435.22 38.4168 438.961C50.8768 444.715 55.3684 419.697 44.2501 420.713ZM184.25 420.713C172.467 428.767 193.42 451.558 195.917 451.126C214.099 447.988 200.7 409.466 184.25 420.713ZM108.417 451.126C100.658 456.364 107.769 474.192 114.25 475.457C129.078 478.359 129.434 436.936 108.417 451.126ZM166.75 451.126C159.779 452.726 156.046 480.068 172.583 475.457C186.572 471.558 180.75 447.915 166.75 451.126ZM85.0834 475.457C72.4834 476.935 62.4034 502.927 96.7501 493.705C104.713 484.94 93.4659 474.472 85.0834 475.457ZM143.417 475.457C134.457 477.312 125.508 503.918 149.25 499.788C165.968 496.88 146.38 474.843 143.417 475.457ZM190.083 481.54C188.818 481.704 178.481 490.56 184.25 493.705C204.153 504.551 210.36 478.888 190.083 481.54ZM114.25 505.871C113.416 505.804 105.296 511.363 108.417 518.036C114.868 531.825 134.072 507.476 114.25 505.871ZM166.75 505.871C153.088 509.04 158.251 533.522 172.583 530.201C186.245 527.032 181.083 502.549 166.75 505.871ZM137.583 530.201C123.088 533.912 127.982 564.562 143.417 560.615C157.913 556.904 153.018 526.254 137.583 530.201ZM195.917 530.201C159.178 530.147 213.504 601.277 236.75 597.111C238.407 585.414 199.72 530.207 195.917 530.201ZM90.9167 536.284C89.0967 536.369 79.3959 546.953 82.1668 551.491C92.6434 568.65 112.663 535.299 90.9167 536.284ZM108.417 560.615C91.6576 566.138 100.314 598.522 120.083 591.028C133.681 585.876 121.763 556.217 108.417 560.615ZM61.7501 566.697C54.4234 569.362 48.2809 586.423 55.9168 591.028C66.7901 597.585 90.1409 556.375 61.7501 566.697ZM160.917 566.697C144.881 568.078 162.369 591.527 166.75 591.028C177.74 589.769 178.627 565.177 160.917 566.697ZM137.583 597.111L143.417 603.193C154.932 604.154 154.932 596.15 143.417 597.111H137.583ZM61.7501 615.359C50.8476 618.157 51.3726 637.396 61.7501 639.689C80.7726 643.899 96.7034 606.399 61.7501 615.359ZM114.25 615.359C104.392 618.163 98.5992 637.913 120.083 633.607C132.631 631.089 126.22 611.952 114.25 615.359ZM155.083 621.441C146.281 629.988 161.558 643.175 166.75 639.689C175.541 633.789 169.585 615.754 155.083 621.441ZM90.9167 645.772C83.6484 648.23 77.4709 665.51 85.0834 670.103C97.5259 677.603 113.544 638.126 90.9167 645.772ZM137.583 645.772C126.15 647.749 129.679 666.399 143.417 664.02C154.85 662.043 151.321 643.394 137.583 645.772ZM190.083 645.772C189.232 645.742 180.703 653.929 175.5 654.896C181.293 681.216 199.586 695.297 225.083 700.516C240.058 692.201 193.379 645.882 190.083 645.772ZM114.25 670.103C98.1209 674.306 98.6576 711.897 120.083 700.516C125.438 697.67 131.972 665.486 114.25 670.103ZM67.5834 676.186C66.5509 675.973 51.0693 689.951 55.9168 694.434C79.6993 702.067 80.9768 678.935 67.5834 676.186ZM160.917 676.186C147.191 679.282 149.116 701.982 172.583 694.434C174.672 688.272 169.369 674.276 160.917 676.186Z"/>
</mask>
<path d="M131.75 1.00818C145.838 -2.44678 146.293 7.55314 152.167 16.2149C183.037 61.7255 195.538 164.109 239.667 198.695C228.298 220.362 211.772 207.661 193 210.861L257.167 283.853C257.668 312.228 218.124 286.997 216.333 302.101L219.25 329.473C204.614 324.449 199.568 289.96 181.333 314.266C206.732 359.965 308.197 400.981 198.833 399.424C286.013 425.956 212.198 404.655 251.333 472.416L236.75 475.457L219.25 451.126C179.922 494.526 280.43 491.801 280.5 502.829L210.5 521.077C244.304 544.398 263.473 584.197 280.5 624.483H198.833L257.167 636.648L222.167 654.896C236.353 655.267 269.312 707.487 263 715.723H146.333L137.583 876.914C102.315 777.858 188.853 687.949 32.5834 712.682C9.12762 704.525 61.6101 676.246 53.0001 654.896C46.9043 639.787 24.6209 648.552 20.9168 645.772C10.1193 637.67 24.4401 625.353 23.8334 624.483C18.3676 616.697 0.599288 611.216 0.500122 606.235C0.371788 599.757 101.913 524.581 67.5834 511.953C-49.7774 512.653 22.5734 492.762 29.6668 466.333C30.4659 463.347 8.14762 419.965 18.0001 405.506C31.1251 386.249 72.2209 431.23 82.1668 399.424L18.0001 393.341C7.34845 373.365 57.9234 377.569 58.8334 356.845C58.9209 354.795 46.9276 346.529 47.1668 344.68C52.6968 302.168 74.4143 313.974 29.6668 283.853C29.6726 272.302 101.148 258.531 93.8334 223.026C93.2093 219.985 46.7234 211.937 47.1668 192.613C47.5518 175.818 155.229 169.036 64.6668 162.199L131.75 1.00818ZM137.583 55.7523L140.5 64.8763L143.417 67.9176L146.333 58.7936L137.583 55.7523ZM120.083 80.083C116.461 80.4115 106.153 94.5902 114.25 98.331C126.71 104.085 131.202 79.0672 120.083 80.083ZM155.083 80.083C146.24 81.92 158.636 99.4746 160.917 98.331C166.575 95.5026 166.884 77.6317 155.083 80.083ZM137.583 110.496C126.15 112.473 129.679 131.123 143.417 128.744C154.85 126.768 151.321 108.118 137.583 110.496ZM114.25 134.827C110.4 135.35 100.396 149.371 108.417 153.075C118.199 157.595 132.234 132.394 114.25 134.827ZM155.083 140.91C160.672 164.559 178.714 195.709 204.667 180.447L155.083 140.91ZM137.583 159.158C122.755 156.256 122.399 197.679 143.417 183.489C151.175 178.251 144.064 160.423 137.583 159.158ZM108.417 195.654C104.567 196.177 94.5626 210.198 102.583 213.902C112.366 218.421 126.401 193.221 108.417 195.654ZM155.083 201.737C142.536 204.255 148.947 223.391 160.917 219.985C170.775 217.181 176.568 197.43 155.083 201.737ZM131.75 219.985C120.492 221.53 120.492 248.853 131.75 250.398C145.668 252.302 145.668 218.081 131.75 219.985ZM178.417 219.985C159.756 220.654 167.654 255.921 184.25 250.398C197.515 245.982 196.343 219.346 178.417 219.985ZM108.417 250.398C97.2984 249.382 101.79 274.4 114.25 268.646C122.347 264.905 112.039 250.726 108.417 250.398ZM155.083 250.398C143.883 250.258 133.99 282.289 160.917 274.729C177.023 270.209 158.805 250.447 155.083 250.398ZM201.75 256.481C188.87 265.544 208.342 281.42 219.25 280.811C228.111 270.252 206.096 253.421 201.75 256.481ZM131.75 280.811C126.127 281.085 117.715 300.398 125.917 305.142C138.528 312.435 145.324 280.154 131.75 280.811ZM172.583 286.894C153.841 300.173 191.571 300.027 187.167 289.935C185.423 285.933 174.619 285.452 172.583 286.894ZM102.583 311.225C90.9984 313.244 96.8551 337.684 108.417 335.556C117.103 333.956 126.518 307.058 102.583 311.225ZM143.417 317.307C135.058 321.152 146.281 335.653 149.25 335.556C159.219 335.233 162.731 308.421 143.417 317.307ZM125.917 335.556C120.393 336.273 116.163 361.145 125.917 359.886C133.71 358.876 141.988 333.475 125.917 335.556ZM166.75 335.556C155.165 337.575 161.022 362.015 172.583 359.886C181.269 358.286 190.684 331.389 166.75 335.556ZM79.2501 341.638C74.8809 343.262 65.2851 356.151 73.4168 359.886C83.5434 364.533 105.232 331.985 79.2501 341.638ZM96.7501 365.969C96.1376 366.06 87.7493 374.503 88.0001 375.093C94.8484 391.218 118.654 362.739 96.7501 365.969ZM137.583 365.969C125.065 375.458 147.576 384.533 152.167 375.093C156.378 366.425 141.842 362.739 137.583 365.969ZM190.083 365.969C180.593 367.678 181.602 383.177 190.083 384.217C209.969 386.656 217.057 361.115 190.083 365.969ZM114.25 390.3C105.891 394.144 117.114 408.645 120.083 408.548C130.053 408.225 133.564 381.413 114.25 390.3ZM160.917 390.3C144.817 394.545 162.078 417.142 172.583 414.63C187.044 411.175 181.713 384.813 160.917 390.3ZM90.9167 414.63C82.1084 415.938 68.9018 441.601 85.0834 445.044C99.7076 448.152 113.148 411.327 90.9167 414.63ZM137.583 414.63C119.068 420.835 135.39 451.035 143.417 451.126C162.737 451.351 156.559 408.268 137.583 414.63ZM44.2501 420.713C40.6276 421.042 30.3201 435.22 38.4168 438.961C50.8768 444.715 55.3684 419.697 44.2501 420.713ZM184.25 420.713C172.467 428.767 193.42 451.558 195.917 451.126C214.099 447.988 200.7 409.466 184.25 420.713ZM108.417 451.126C100.658 456.364 107.769 474.192 114.25 475.457C129.078 478.359 129.434 436.936 108.417 451.126ZM166.75 451.126C159.779 452.726 156.046 480.068 172.583 475.457C186.572 471.558 180.75 447.915 166.75 451.126ZM85.0834 475.457C72.4834 476.935 62.4034 502.927 96.7501 493.705C104.713 484.94 93.4659 474.472 85.0834 475.457ZM143.417 475.457C134.457 477.312 125.508 503.918 149.25 499.788C165.968 496.88 146.38 474.843 143.417 475.457ZM190.083 481.54C188.818 481.704 178.481 490.56 184.25 493.705C204.153 504.551 210.36 478.888 190.083 481.54ZM114.25 505.871C113.416 505.804 105.296 511.363 108.417 518.036C114.868 531.825 134.072 507.476 114.25 505.871ZM166.75 505.871C153.088 509.04 158.251 533.522 172.583 530.201C186.245 527.032 181.083 502.549 166.75 505.871ZM137.583 530.201C123.088 533.912 127.982 564.562 143.417 560.615C157.913 556.904 153.018 526.254 137.583 530.201ZM195.917 530.201C159.178 530.147 213.504 601.277 236.75 597.111C238.407 585.414 199.72 530.207 195.917 530.201ZM90.9167 536.284C89.0967 536.369 79.3959 546.953 82.1668 551.491C92.6434 568.65 112.663 535.299 90.9167 536.284ZM108.417 560.615C91.6576 566.138 100.314 598.522 120.083 591.028C133.681 585.876 121.763 556.217 108.417 560.615ZM61.7501 566.697C54.4234 569.362 48.2809 586.423 55.9168 591.028C66.7901 597.585 90.1409 556.375 61.7501 566.697ZM160.917 566.697C144.881 568.078 162.369 591.527 166.75 591.028C177.74 589.769 178.627 565.177 160.917 566.697ZM137.583 597.111L143.417 603.193C154.932 604.154 154.932 596.15 143.417 597.111H137.583ZM61.7501 615.359C50.8476 618.157 51.3726 637.396 61.7501 639.689C80.7726 643.899 96.7034 606.399 61.7501 615.359ZM114.25 615.359C104.392 618.163 98.5992 637.913 120.083 633.607C132.631 631.089 126.22 611.952 114.25 615.359ZM155.083 621.441C146.281 629.988 161.558 643.175 166.75 639.689C175.541 633.789 169.585 615.754 155.083 621.441ZM90.9167 645.772C83.6484 648.23 77.4709 665.51 85.0834 670.103C97.5259 677.603 113.544 638.126 90.9167 645.772ZM137.583 645.772C126.15 647.749 129.679 666.399 143.417 664.02C154.85 662.043 151.321 643.394 137.583 645.772ZM190.083 645.772C189.232 645.742 180.703 653.929 175.5 654.896C181.293 681.216 199.586 695.297 225.083 700.516C240.058 692.201 193.379 645.882 190.083 645.772ZM114.25 670.103C98.1209 674.306 98.6576 711.897 120.083 700.516C125.438 697.67 131.972 665.486 114.25 670.103ZM67.5834 676.186C66.5509 675.973 51.0693 689.951 55.9168 694.434C79.6993 702.067 80.9768 678.935 67.5834 676.186ZM160.917 676.186C147.191 679.282 149.116 701.982 172.583 694.434C174.672 688.272 169.369 674.276 160.917 676.186Z" fill="#E0ECDF" stroke="#C2D9C1" stroke-width="0.77886" mask="url(#path-1-inside-1_1350_18263)"/>
</g>
</svg>
