<svg width="66" height="113" viewBox="0 0 66 113" fill="none" xmlns="http://www.w3.org/2000/svg">
<path d="M31.3186 0.0201365C34.5395 -1.01203 54.2535 38.0483 35.4944 22.3371L32.0146 25.8242C35.7366 31.3239 48.9099 25.283 50.1097 31.4034C50.5872 33.8374 46.8568 34.539 47.3259 36.9827C47.8409 39.6677 60.0064 40.5785 47.3259 46.7464L57.0694 55.1153L47.3259 56.5101C51.6102 64.699 56.7994 60.5257 59.1573 61.3919C61.8535 62.3822 58.5713 72.4918 65.4211 74.6426L33.4065 77.4323L31.3186 113L29.2307 78.8271L0 76.0375C9.22437 71.8642 2.04893 67.0674 2.78387 64.8789C5.66797 56.2925 11.876 52.2657 18.0952 45.3516H12.5274C11.9818 28.6445 21.6502 32.5263 29.2307 24.4294L22.967 26.5216C20.8999 24.6553 31.2462 5.36925 31.3186 0.0201365ZM32.7105 9.78383C30.2524 14.2542 30.7549 18.0732 36.8863 18.1527L32.7105 9.78383ZM27.1428 32.1008C26.65 32.0674 18.6561 37.2923 19.4871 38.3775C24.0095 44.279 32.8024 32.4844 27.1428 32.1008ZM34.1025 32.1008V37.6801L43.1501 36.9827L34.1025 32.1008ZM34.1025 41.8645C31.1864 43.0139 31.1028 48.8051 34.1025 50.2334L44.542 49.536C43.981 46.4409 35.7909 41.1992 34.1025 41.8645ZM24.3589 43.2593C17.3992 45.0405 20.5283 56.139 27.1428 51.6282C28.3983 50.7718 30.56 41.672 24.3589 43.2593ZM34.1025 54.4178V61.3919L44.542 60.6945C45.1809 56.9327 37.0979 54.3844 34.1025 54.4178ZM13.2234 55.8127L10.4395 61.3919C14.9411 62.9848 17.544 55.3566 13.2234 55.8127ZM22.967 55.8127C14.5666 57.2716 17.8753 66.5248 27.1428 62.7867C29.2613 61.9317 30.0993 54.5741 22.967 55.8127ZM25.7508 65.5764C25.2804 65.4229 16.7812 70.2099 18.0952 71.853C22.1638 76.9399 33.9535 68.2642 25.7508 65.5764ZM34.1025 65.5764C28.7254 69.7176 40.2646 76.7209 44.542 70.4582C44.549 69.8138 35.0977 64.8106 34.1025 65.5764ZM48.0218 65.5764C42.0128 66.8317 53.2583 75.6469 58.4614 70.4582C56.766 67.836 50.6818 65.0212 48.0218 65.5764ZM10.4395 66.9712C1.97377 69.8012 12.0904 78.3501 16.7032 67.6686C15.4268 66.734 11.6436 66.5681 10.4395 66.9712Z" fill="#37643C"/>
</svg>
