<svg width="160" height="206" viewBox="0 0 160 206" fill="none" xmlns="http://www.w3.org/2000/svg">
<path d="M85.0043 7.6748C97.9704 11.7829 95.9652 33.7288 96.9946 36.267C98.1419 39.0967 103.182 38.9676 104.373 41.801C107.515 49.2737 105.498 55.564 108.063 62.0923C109.267 65.16 119.007 74.1637 119.13 75.0049C120.243 82.5385 113.573 77.2369 113.597 82.3835C113.608 84.7558 146.839 94.1064 98.8392 93.4515C104.412 107.844 124.659 91.9905 124.664 102.675C124.664 103.426 119.084 107.515 119.13 108.209C119.245 109.958 124.653 115.126 124.664 115.587C124.749 119.347 114.43 128.305 124.664 141.413H111.752C155.033 163.668 88.605 150.173 85.9266 158.015L88.6936 197.675C76.0743 192.951 85.5595 165.515 82.2373 158.015C79.1917 151.138 47.8233 159.335 45.3441 152.481C44.5048 150.16 52.9127 143.593 52.7227 141.413C52.6434 140.503 47.2293 136.738 47.1887 135.879C46.7921 127.384 50.7858 126.292 50.8781 122.966C50.9352 120.872 44.9069 120.952 45.3441 117.432C45.5931 115.425 52.5217 113.874 52.7227 111.898C52.8186 110.954 46.8143 107.982 47.1887 104.519C47.6997 99.7953 61.9036 98.6129 47.1887 87.9175C49.2843 83.3723 65.5376 65.8093 65.6353 63.9369C65.6704 63.2802 60.0054 58.9822 60.1014 58.403C63.4882 37.835 69.8983 40.8805 82.2373 32.5777C77.3895 27.6451 74.2739 38.2058 71.1693 27.0437L85.0043 7.6748ZM85.0043 16.8981C81.5252 18.8534 86.6608 26.4424 90.5383 26.1214L85.0043 16.8981ZM86.8489 29.8107C83.8311 33.9391 88.1107 36.6433 90.5383 39.034C93.2739 37.9623 87.6182 29.5451 86.8489 29.8107ZM81.315 40.8787C80.7228 42.074 62.1323 56.1377 70.247 57.4806C79.1493 58.9527 83.1356 41.4542 81.315 40.8787ZM86.8489 44.568C80.3834 45.1122 88.8283 60.8121 97.9169 57.4806C100.147 53.2859 88.8983 44.3946 86.8489 44.568ZM86.8489 59.3253C77.6238 60.8822 92.8422 77.3181 98.8392 69.4709C99.3151 68.8474 87.9188 59.1445 86.8489 59.3253ZM75.781 61.1699C74.3993 60.8619 65.3199 68.2922 68.4023 72.2379C74.9177 75.4052 83.5691 62.9021 75.781 61.1699ZM103.451 64.8593C99.566 65.0714 101.047 71.9926 107.14 70.3932C108.714 69.0596 103.783 64.8408 103.451 64.8593ZM75.781 75.9272C74.2776 76.0176 67.3841 85.3903 70.247 86.9952C76.5686 90.5388 86.1904 75.2982 75.781 75.9272ZM86.8489 75.9272C81.3334 79.9394 90.7854 89.4394 96.9946 84.2282C95.1112 82.9259 88.819 74.4939 86.8489 75.9272ZM101.606 77.7719C98.675 80.0943 100.531 88.1795 107.14 86.9952C112.696 85.9991 105.5 74.6876 101.606 77.7719ZM61.0237 79.6166C60.5699 79.7032 54.2888 85.2501 55.4897 86.9952C62.6396 89.5574 70.4683 77.8069 61.0237 79.6166ZM79.4703 90.6845C78.4963 90.5369 69.3855 98.4358 72.0917 101.752C76.0835 102.559 87.8672 91.9518 79.4703 90.6845ZM64.713 92.5292C64.0674 92.6897 54.6596 100.788 57.3344 103.597C63.5195 102.441 66.5263 98.4967 69.3247 93.4515C68.5628 92.1455 65.9951 92.21 64.713 92.5292ZM88.6936 92.5292C83.8348 95.2224 97.393 102.035 97.9169 103.597C99.6103 100.094 92.5176 90.4097 88.6936 92.5292ZM79.4703 105.442C78.8818 105.399 68.8174 111.053 72.0917 114.665C81.5437 118.087 87.5407 106.014 79.4703 105.442ZM92.3829 105.442C87.3765 109.07 96.7105 117.607 101.606 116.51L92.3829 105.442ZM108.985 105.442C99.8114 104.757 109.413 114.82 114.519 116.51C120.018 114.497 110.719 105.571 108.985 105.442ZM62.8684 107.286C58.2641 107.642 51.9203 118.083 57.3344 118.354C59.476 118.461 74.3883 106.397 62.8684 107.286ZM68.4023 120.199L52.7227 130.345C53.1857 136.934 72.7631 125.526 68.4023 120.199ZM79.4703 120.199C78.8081 120.253 69.6493 128.245 72.0917 131.267C76.172 133.084 86.8028 119.605 79.4703 120.199ZM88.6936 120.199C81.706 124.862 105.082 136.602 106.218 134.034C101.084 127.29 98.9813 118.915 88.6936 120.199ZM107.14 120.199C103.156 122.946 110.663 131.621 114.519 129.422C117.369 127.797 111.099 117.469 107.14 120.199ZM77.6256 134.956C76.7107 134.835 66.6794 147.026 66.5577 149.714C80.4092 156.26 84.9545 135.928 77.6256 134.956ZM64.713 136.801L53.6451 149.714C57.7937 152.414 69.677 141.269 64.713 136.801ZM86.8489 136.801C83.5101 144.37 86.6958 152.923 96.0722 149.714C101.175 147.967 90.7449 139.682 86.8489 136.801ZM99.7616 138.646L106.218 148.791C117.505 150.121 105.888 139.365 99.7616 138.646Z" fill="#37643C"/>
<path d="M132.573 25.0183C132.663 25.0184 132.735 25.046 132.779 25.0779C132.804 25.0957 132.836 25.1252 132.864 25.1873L132.891 25.2615L135.684 35.6794C135.972 36.756 136.778 37.6121 137.824 37.9685L138.036 38.033L148.454 40.8259C148.57 40.857 148.615 40.9041 148.639 40.9373C148.671 40.982 148.697 41.0538 148.697 41.1433C148.697 41.2328 148.671 41.3047 148.639 41.3494C148.621 41.3742 148.591 41.4064 148.528 41.4343L148.454 41.4607L138.036 44.2537C136.96 44.5424 136.104 45.3486 135.748 46.3943L135.684 46.6062L132.891 57.0242C132.86 57.14 132.812 57.185 132.779 57.2087C132.735 57.2407 132.663 57.2673 132.573 57.2673C132.484 57.2673 132.412 57.2406 132.367 57.2087C132.342 57.191 132.309 57.1611 132.281 57.0984L132.256 57.0242L129.463 46.6062C129.174 45.5297 128.367 44.6744 127.321 44.3181L127.109 44.2537L116.691 41.4607C116.576 41.4297 116.532 41.3825 116.508 41.3494C116.476 41.3047 116.448 41.2328 116.448 41.1433C116.448 41.0537 116.476 40.982 116.508 40.9373C116.526 40.9124 116.555 40.8792 116.617 40.8513L116.691 40.8259L127.109 38.033C128.186 37.7443 129.042 36.9374 129.398 35.8914L129.463 35.6794L132.256 25.2615C132.287 25.1459 132.334 25.1015 132.367 25.0779C132.412 25.0459 132.484 25.0183 132.573 25.0183Z" stroke="url(#paint0_linear_539_6487)" stroke-width="3"/>
<path d="M145.215 7.10858C145.469 5.96287 147.103 5.96287 147.357 7.10858L148.627 12.8262C148.719 13.2421 149.044 13.567 149.46 13.6593L155.178 14.9291C156.323 15.1836 156.323 16.8168 155.178 17.0712L149.46 18.341C149.044 18.4334 148.719 18.7582 148.627 19.1742L147.357 24.8918C147.103 26.0375 145.469 26.0375 145.215 24.8918L143.945 19.1742C143.853 18.7582 143.528 18.4334 143.112 18.341L137.394 17.0712C136.249 16.8168 136.249 15.1836 137.394 14.9291L143.112 13.6593C143.528 13.567 143.853 13.2421 143.945 12.8262L145.215 7.10858Z" fill="url(#paint1_linear_539_6487)"/>
<path d="M27.4268 176.125C27.3373 176.125 27.2654 176.098 27.2207 176.066C27.1959 176.048 27.1635 176.018 27.1357 175.956L27.1094 175.882L24.3164 165.464C24.0278 164.388 23.2217 163.531 22.1758 163.175L21.9639 163.111L11.5459 160.318C11.43 160.287 11.385 160.239 11.3613 160.206C11.3294 160.162 11.3027 160.09 11.3027 160C11.3028 159.911 11.3294 159.839 11.3613 159.794C11.3791 159.769 11.4092 159.737 11.4717 159.709L11.5459 159.683L21.9639 156.89C23.0402 156.601 23.8956 155.795 24.252 154.749L24.3164 154.537L27.1094 144.119C27.1404 144.004 27.1876 143.959 27.2207 143.935C27.2654 143.903 27.3373 143.876 27.4268 143.876C27.5162 143.876 27.5881 143.903 27.6328 143.935C27.6577 143.953 27.6908 143.982 27.7188 144.045L27.7441 144.119L30.5371 154.537C30.8258 155.614 31.6328 156.469 32.6787 156.825L32.8906 156.89L43.3086 159.683C43.4238 159.714 43.4684 159.761 43.4922 159.794C43.5241 159.839 43.5517 159.911 43.5518 160C43.5518 160.09 43.5241 160.162 43.4922 160.206C43.4744 160.231 43.4453 160.264 43.3828 160.292L43.3086 160.318L32.8906 163.111C31.8139 163.399 30.9579 164.206 30.6016 165.252L30.5371 165.464L27.7441 175.882C27.7131 175.998 27.6659 176.042 27.6328 176.066C27.5881 176.098 27.5164 176.125 27.4268 176.125Z" stroke="url(#paint2_linear_539_6487)" stroke-width="3"/>
<path d="M14.785 194.035C14.5305 195.181 12.8973 195.181 12.6429 194.035L11.3731 188.317C11.2807 187.901 10.9559 187.577 10.5399 187.484L4.82234 186.214C3.67664 185.96 3.67664 184.327 4.82234 184.072L10.5399 182.803C10.9559 182.71 11.2807 182.385 11.3731 181.969L12.6429 176.252C12.8973 175.106 14.5305 175.106 14.785 176.252L16.0548 181.969C16.1472 182.385 16.472 182.71 16.888 182.803L22.6055 184.072C23.7512 184.327 23.7512 185.96 22.6055 186.214L16.888 187.484C16.472 187.577 16.1472 187.901 16.0548 188.317L14.785 194.035Z" fill="url(#paint3_linear_539_6487)"/>
<defs>
<linearGradient id="paint0_linear_539_6487" x1="141.716" y1="52.5716" x2="121.144" y2="27.4287" gradientUnits="userSpaceOnUse">
<stop offset="0.0673077" stop-color="#0E9777"/>
<stop offset="0.528846" stop-color="#9FD9A2"/>
<stop offset="0.894231" stop-color="#DEBC93"/>
</linearGradient>
<linearGradient id="paint1_linear_539_6487" x1="151.772" y1="22.8573" x2="139.429" y2="7.7716" gradientUnits="userSpaceOnUse">
<stop offset="0.0673077" stop-color="#0E9777"/>
<stop offset="0.528846" stop-color="#9FD9A2"/>
<stop offset="0.894231" stop-color="#DEBC93"/>
</linearGradient>
<linearGradient id="paint2_linear_539_6487" x1="18.2842" y1="148.572" x2="38.8556" y2="173.715" gradientUnits="userSpaceOnUse">
<stop offset="0.0673077" stop-color="#0E9777"/>
<stop offset="0.528846" stop-color="#9FD9A2"/>
<stop offset="0.894231" stop-color="#DEBC93"/>
</linearGradient>
<linearGradient id="paint3_linear_539_6487" x1="8.22822" y1="178.286" x2="20.5711" y2="193.372" gradientUnits="userSpaceOnUse">
<stop offset="0.0673077" stop-color="#0E9777"/>
<stop offset="0.528846" stop-color="#9FD9A2"/>
<stop offset="0.894231" stop-color="#DEBC93"/>
</linearGradient>
</defs>
</svg>
