<svg width="25" height="24" viewBox="0 0 25 24" fill="none" xmlns="http://www.w3.org/2000/svg">
<g clip-path="url(#clip0_471_5161)">
<path d="M17.668 21V19C17.668 17.9391 17.2465 16.9217 16.4964 16.1716C15.7463 15.4214 14.7288 15 13.668 15H5.66797C4.6071 15 3.58969 15.4214 2.83954 16.1716C2.0894 16.9217 1.66797 17.9391 1.66797 19V21" fill="#4B7E50"/>
<path d="M17.668 21V19C17.668 17.9391 17.2465 16.9217 16.4964 16.1716C15.7463 15.4214 14.7288 15 13.668 15H5.66797C4.6071 15 3.58969 15.4214 2.83954 16.1716C2.0894 16.9217 1.66797 17.9391 1.66797 19V21" stroke="#37643C" stroke-width="2" stroke-linecap="round" stroke-linejoin="round"/>
<path d="M9.66797 11C11.8771 11 13.668 9.20914 13.668 7C13.668 4.79086 11.8771 3 9.66797 3C7.45883 3 5.66797 4.79086 5.66797 7C5.66797 9.20914 7.45883 11 9.66797 11Z" fill="#4B7E50" stroke="#37643C" stroke-width="2" stroke-linecap="round" stroke-linejoin="round"/>
<path d="M23.668 20.9999V18.9999C23.6673 18.1136 23.3723 17.2527 22.8293 16.5522C22.2863 15.8517 21.5261 15.3515 20.668 15.1299" stroke="#37643C" stroke-width="2" stroke-linecap="round" stroke-linejoin="round"/>
<path d="M16.668 3.12988C17.5284 3.35018 18.291 3.85058 18.8356 4.55219C19.3802 5.2538 19.6758 6.11671 19.6758 7.00488C19.6758 7.89305 19.3802 8.75596 18.8356 9.45757C18.291 10.1592 17.5284 10.6596 16.668 10.8799" stroke="#37643C" stroke-width="2" stroke-linecap="round" stroke-linejoin="round"/>
</g>
<defs>
<clipPath id="clip0_471_5161">
<rect width="24" height="24" fill="white" transform="translate(0.667969)"/>
</clipPath>
</defs>
</svg>
