<svg width="24" height="24" viewBox="0 0 24 24" fill="none" xmlns="http://www.w3.org/2000/svg">
<rect x="0.750488" y="0.75" width="22.5" height="22.5" rx="11.25" stroke="#37643C" stroke-width="1.5"/>
<path d="M20.0005 21V19C20.0005 17.9391 19.5791 16.9217 18.8289 16.1716C18.0788 15.4214 17.0614 15 16.0005 15H8.00049C6.93962 15 5.92221 15.4214 5.17206 16.1716C4.42192 16.9217 4.00049 17.9391 4.00049 19V21" stroke="#37643C" stroke-width="2" stroke-linecap="round" stroke-linejoin="round"/>
<path d="M12.0005 11C14.2096 11 16.0005 9.20914 16.0005 7C16.0005 4.79086 14.2096 3 12.0005 3C9.79135 3 8.00049 4.79086 8.00049 7C8.00049 9.20914 9.79135 11 12.0005 11Z" stroke="#37643C" stroke-width="2" stroke-linecap="round" stroke-linejoin="round"/>
</svg>
