<svg width="25" height="28" viewBox="0 0 25 28" fill="none" xmlns="http://www.w3.org/2000/svg">
<path d="M23.5835 18.9999V8.99988C23.583 8.56147 23.4673 8.13089 23.2479 7.75133C23.0285 7.37177 22.7132 7.05658 22.3335 6.83738L13.5835 1.83738C13.2034 1.61796 12.7723 1.50244 12.3335 1.50244C11.8947 1.50244 11.4635 1.61796 11.0835 1.83738L2.3335 6.83738C1.95382 7.05658 1.63847 7.37177 1.41907 7.75133C1.19967 8.13089 1.08395 8.56147 1.0835 8.99988V18.9999C1.08395 19.4383 1.19967 19.8689 1.41907 20.2484C1.63847 20.628 1.95382 20.9432 2.3335 21.1624L11.0835 26.1624C11.4635 26.3818 11.8947 26.4973 12.3335 26.4973C12.7723 26.4973 13.2034 26.3818 13.5835 26.1624L22.3335 21.1624C22.7132 20.9432 23.0285 20.628 23.2479 20.2484C23.4673 19.8689 23.583 19.4383 23.5835 18.9999Z" fill="#4B7E50" stroke="#37643C" stroke-width="2" stroke-linecap="round" stroke-linejoin="round"/>
</svg>
